<svg width="199" height="214" viewBox="0 0 199 214" fill="none" xmlns="http://www.w3.org/2000/svg">
<path d="M28.4006 110.16L30.142 111.034L32.7245 112.336L35.3398 113.637L37.9223 114.938L40.5376 116.24L43.1331 117.535L45.7353 118.843L48.3375 120.151L50.9464 121.472L53.5486 122.78L56.1441 124.075L58.7463 125.383L61.355 126.671L63.9441 127.986L64.6932 128.361" stroke="white" stroke-width="0.3" stroke-miterlimit="10"/>
<path d="M23.1492 103.921L25.0089 104.867L27.7819 106.252L30.5549 107.638L33.3082 109.017L36.0812 110.403L38.8412 111.795L41.6076 113.167L44.3544 114.566L47.1274 115.952L49.8808 117.331L52.6538 118.717L55.4268 120.102L58.1867 121.494L60.9597 122.88L63.7196 124.272L66.486 125.645L69.246 127.037L71.9993 128.416L72.8601 128.85" stroke="white" stroke-width="0.3" stroke-miterlimit="10"/>
<path d="M21.308 99.418L21.8401 99.6572L24.5213 101.024L27.1825 102.351L29.8701 103.698L32.538 105.038L35.206 106.379L37.8936 107.725L40.5745 109.059L43.2424 110.4L45.9234 111.733L48.611 113.08L51.2659 114.427L53.9468 115.761L56.6214 117.114L59.3024 118.448L61.9833 119.782L61.99 119.795L64.6579 121.135L67.3388 122.469L67.3455 122.482L70.0068 123.809L72.6813 125.163L72.6944 125.156L75.3558 126.516L77.5308 127.597" stroke="white" stroke-width="0.3" stroke-miterlimit="10"/>
<path d="M18.3432 94.3184L19.4735 94.8948L22.2398 96.2673L25.0195 97.666L27.7794 99.0582L30.5721 100.45L33.3518 101.849L36.1248 103.235L38.8978 104.62L41.6774 106.019L44.4504 107.404L47.23 108.803L50.0097 110.202L52.7827 111.587L55.5623 112.986L58.355 114.378L61.1083 115.757L63.8879 117.156L66.6676 118.555L69.4406 119.94L72.2202 121.339L74.9932 122.725L77.7662 124.11L80.5459 125.509L83.3255 126.908L83.3386 126.901" stroke="white" stroke-width="0.3" stroke-miterlimit="10"/>
<path d="M16.9028 89.9901L17.9871 90.5406L20.7864 91.9457L23.5594 93.3313L26.3587 94.7364L29.1317 96.122L31.931 97.5271L34.7237 98.9192L37.5034 100.318L40.3027 101.723L43.0823 103.122L45.875 104.514L48.6547 105.912L51.454 107.317L54.227 108.703L54.2336 108.716L57.0263 110.108L59.819 111.5L62.5987 112.899L65.398 114.304L68.1776 115.703L70.9703 117.095L73.75 118.493L76.5426 119.886L79.3223 121.284L79.3353 121.278L82.1216 122.689L84.9143 124.081L87.6546 125.467L87.6939 125.48" stroke="white" stroke-width="0.3" stroke-miterlimit="10"/>
<path d="M91.0158 123.547L88.8341 122.453L86.0611 121.067L83.3078 119.688L80.5348 118.302L77.7618 116.917L75.0019 115.524L72.2486 114.145L69.4689 112.747L66.7287 111.361L63.9557 109.975L61.1893 108.603L58.4294 107.21L55.6563 105.825L52.903 104.446L52.8964 104.433L50.13 103.06L47.3701 101.668L44.6102 100.276L41.8438 98.903L39.0708 97.5174L36.3175 96.1382L33.5445 94.7526L30.7715 93.3669L28.0181 91.9878L25.2582 90.5955L22.5049 89.2163L19.7253 87.8177L16.9653 86.4254L16.42 86.16" stroke="white" stroke-width="0.3" stroke-miterlimit="10"/>
<path d="M16.1942 82.4467L18.6124 83.6509L21.346 85.0237L24.0993 86.4029L26.8395 87.7887L29.6059 89.1612L32.3395 90.534L35.0928 91.9131L37.8462 93.2923L40.5798 94.6651L43.3463 96.0704L46.093 97.4365L48.8463 98.8157L51.58 100.188L54.3333 101.568L57.0866 102.947L59.8399 104.326L62.5932 105.705L65.3268 107.078L68.0801 108.457L70.8334 109.836L73.5934 111.228L76.327 112.601L79.0803 113.98L81.827 115.347L84.5803 116.726L87.3336 118.105L90.0739 119.491L92.8272 120.87L94.0559 121.478L94.0626 121.491" stroke="white" stroke-width="0.3" stroke-miterlimit="10"/>
<path d="M97.0457 119.371L97.0194 119.351L94.3121 117.998L91.5521 116.606L88.8055 115.24L86.0521 113.86L83.3119 112.475L80.5455 111.102L77.7922 109.723L75.052 108.337L72.2856 106.964L69.552 105.592L66.792 104.199L64.0387 102.82L61.2854 101.441L58.5518 100.068L55.7788 98.6828L53.0255 97.3036L50.2918 95.9308L47.5188 94.5452L44.7852 93.1725L42.0319 91.7933L39.272 90.4011L36.5187 89.0219L33.7653 87.6427L31.0251 86.2569L28.2587 84.8843L25.5251 83.5116L22.7587 82.139L20.0185 80.7532L17.2652 79.3741L16.1021 78.7979" stroke="white" stroke-width="0.3" stroke-miterlimit="10"/>
<path d="M15.9422 75.1166L18.3012 76.3015L21.0809 77.7002L23.8539 79.0858L26.6532 80.491L29.4065 81.8701L32.2058 83.2752L34.9658 84.6675L37.7585 86.0595L40.5381 87.4582L43.3111 88.8438L46.1104 90.2489L48.8704 91.6412L51.6631 93.0332L54.423 94.4255L57.2157 95.8175L60.0018 97.1965L60.0084 97.2096L62.7684 98.6018L65.5611 99.9939L68.321 101.386L71.1203 102.791L73.8933 104.177L76.673 105.576L79.446 106.961L82.2256 108.36L85.0183 109.752L87.7782 111.144L90.5709 112.536L93.3439 113.922L96.1236 115.32L98.8966 116.706L100.066 117.295" stroke="white" stroke-width="0.3" stroke-miterlimit="10"/>
<path d="M102.463 114.897L100.419 113.88L97.6329 112.469L94.8599 111.083L92.0803 109.684L89.2809 108.279L86.5079 106.894L83.7152 105.502L80.929 104.09L78.156 102.704L75.3633 101.312L72.5836 99.9135L69.7909 98.5215L67.0113 97.1228L64.2317 95.7241L61.452 94.3254L58.6593 92.9334L55.86 91.5283L53.087 90.1427L50.3074 88.744L47.5277 87.3453L44.735 85.9533L41.9554 84.5546L39.1627 83.1625L36.3634 81.7574L33.6101 80.3782L30.8041 78.9601L28.0311 77.5744L25.2384 76.1824L22.4588 74.7837L19.6791 73.385L16.9061 71.9994L16.3805 71.7405" stroke="white" stroke-width="0.3" stroke-miterlimit="10"/>
<path d="M103.802 111.967L101.154 110.633L98.4139 109.28L95.6867 107.887L92.94 106.521L90.2131 105.162L87.4728 103.776L84.7261 102.41L82.0122 101.043L79.2589 99.6643L76.5319 98.3046L73.7916 96.9188L71.058 95.5461L68.318 94.193L65.5908 92.8006L62.8441 91.4344L60.0974 90.0683L57.3769 88.689L54.6302 87.3228L51.9096 85.9435L49.1629 84.5774L46.4163 83.2112L43.6957 81.8319L40.949 80.4657L38.1957 79.0866L35.4818 77.7203L32.7482 76.3475L30.0146 74.9748L27.2809 73.602L24.5409 72.249L21.8006 70.8632L19.067 69.4904L17.917 68.9076" stroke="white" stroke-width="0.3" stroke-miterlimit="10"/>
<path d="M106.199 109.568L105.923 109.445L103.144 108.046L100.377 106.641L97.5977 105.275L94.8311 103.87L92.0581 102.484L89.2851 101.098L86.5054 99.6996L83.7389 98.2943L80.9594 96.9284L78.1798 95.5297L75.4199 94.1375L72.6338 92.7585L69.8672 91.3532L67.0942 89.9675L64.3146 88.5689L61.5416 87.1833L58.775 85.778L55.9889 84.399L53.2159 83.0134L50.456 81.6211L47.6633 80.2291L44.9033 78.8368L42.1303 77.4512L39.3376 76.0592L36.5843 74.68L33.7981 73.2682L31.0251 71.8826L28.2651 70.4904L25.4921 69.1048L22.7125 67.7061L19.9461 66.3335L18.3755 65.537" stroke="white" stroke-width="0.3" stroke-miterlimit="10"/>
<path d="M19.819 62.6523L21.5407 63.5201L24.294 64.8992L27.067 66.2849L29.8269 67.6771L32.5869 69.0693L35.3402 70.4485L38.1132 71.8341L40.8665 73.2133L43.6395 74.5989L46.4125 75.9845L49.1658 77.3637L51.9455 78.7624L54.6857 80.1482L57.4587 81.5338L60.2186 82.9261L62.9917 84.3117L65.745 85.6909L68.518 87.0765L71.291 88.4621L74.0443 89.8413L76.8042 91.2335L79.5575 92.6127L82.3305 93.9983L85.1102 95.397L87.8635 96.7762L90.6365 98.1618L93.3964 99.554L96.1628 100.927L98.9227 102.319L101.683 103.711L104.436 105.09L107.209 106.476L107.623 106.676" stroke="white" stroke-width="0.3" stroke-miterlimit="10"/>
<path d="M109.047 103.785L108.745 103.643L105.965 102.244L103.212 100.865L100.432 99.4665L97.6659 98.094L94.9059 96.7017L92.1132 95.3097L89.3599 93.9305L89.3469 93.9371L86.5803 92.5318L83.827 91.1526L83.8203 91.1396L81.0473 89.7539L78.294 88.3748L78.2874 88.3617L75.5078 86.963L72.7283 85.5971L69.9684 84.2049L67.1954 82.8192L64.4354 81.427L61.6558 80.0283L58.8894 78.6558L56.1295 77.2635L53.3434 75.8845L50.5704 74.4989L47.8038 73.0936L45.0505 71.7144L42.2643 70.3027L39.5176 68.9366L36.7313 67.5248L33.9519 66.1589L31.1919 64.7667L28.4189 63.3811L25.659 61.9888L22.886 60.6032L21.2563 59.7874" stroke="white" stroke-width="0.3" stroke-miterlimit="10"/>
<path d="M110.51 100.94L110.458 100.901L107.711 99.5346L104.938 98.149L102.139 96.7438L99.3524 95.3321L96.5728 93.9334L93.7801 92.5414L90.9808 91.1363L88.2011 89.7376L85.4084 88.3455L82.6091 86.9404L79.8164 85.5484L77.0171 84.1433L74.2441 82.7576L71.4448 81.3525L68.6585 79.9408L65.8658 78.5487L63.0862 77.1501L60.2868 75.7449L57.4875 74.3398L54.7014 72.9608L51.9021 71.5557L49.1225 70.1571L46.3231 68.7519L43.5435 67.3533L40.7508 65.9612L37.9646 64.5495L35.1719 63.1574L32.3922 61.7587L29.5929 60.3536L26.7805 58.9551L24.0075 57.5695L22.6998 56.9025" stroke="white" stroke-width="0.3" stroke-miterlimit="10"/>
<path d="M111.87 98.0164L109.708 96.9285L106.902 95.5103L104.063 94.0923L101.244 92.6808L98.4055 91.2628L95.5668 89.8448L92.7542 88.4136L89.9221 87.0087L87.0965 85.5841L84.2644 84.1791L81.4388 82.7545L78.6 81.3365L75.7941 79.9184L72.9554 78.5004L70.1167 77.0824L67.2976 75.6708L64.472 74.2462L61.6463 72.8216L58.8143 71.4167L55.9886 69.9921L53.1499 68.5741L50.3309 67.1626L47.5052 65.7379L44.6665 64.32L41.8475 62.9084L39.0088 61.4904L36.1898 60.0789L33.3575 58.6412L30.5318 57.2166L27.6997 55.8117L24.8741 54.3871L24.1513 54.031" stroke="white" stroke-width="0.3" stroke-miterlimit="10"/>
<path d="M27.7103 52.208L30.3125 53.516L33.0527 54.9018L35.8061 56.281L38.5397 57.6537L41.293 59.0329L44.0594 60.4055L46.793 61.7782L49.5463 63.1574L52.2865 64.5432L55.0332 65.9093L57.7865 67.2885L60.5202 68.6612L63.2604 70.0471L66.0071 71.4132L68.7604 72.7923L71.5006 74.1782L74.254 75.5573L76.9876 76.9301L79.7409 78.3093L82.5073 79.6818L85.2409 81.0545L87.9942 82.4337L90.7278 83.8065L93.4811 85.1857L96.2214 86.5715L98.968 87.9376L101.708 89.3234L104.455 90.6895L107.208 92.0687L109.942 93.4414L111.171 94.05" stroke="white" stroke-width="0.3" stroke-miterlimit="10"/>
<path d="M111.859 90.8095L111.754 90.7643L109 89.3851L106.214 87.9733L103.448 86.6008L100.668 85.2021L97.8952 83.8165L95.1352 82.4243L92.3622 81.0387L89.5892 79.653L86.8162 78.2674L84.0496 76.8621L81.2766 75.4765L78.5167 74.0843L75.7306 72.7053L72.9643 71.3327L70.2109 69.9535L67.4313 68.5549L64.678 67.1757L61.8853 65.7836L59.1187 64.3783L56.3325 62.9666L53.5792 61.5874L50.7603 60.2086L47.9743 58.8296L45.2734 57.4567L42.5004 56.0711L39.7206 54.6396L36.9476 53.254L34.1746 51.8684L31.4016 50.4828L29.8967 49.7186" stroke="white" stroke-width="0.3" stroke-miterlimit="10"/>
<path d="M111.122 86.8306L109.735 86.1378L107.008 84.7781L104.294 83.4118L101.58 82.0455L98.8665 80.6792L98.8535 80.6858L96.1396 79.3195L93.4126 77.9598L90.6986 76.5935L87.9717 75.2338L85.2577 73.8675L82.5241 72.4948L79.8168 71.1415L77.0832 69.7688L74.3628 68.4222L71.6423 67.0428L68.9284 65.6765L66.2144 64.3102L63.4874 62.9505L60.7801 61.5973L58.0465 60.2245L55.3326 58.8582L52.6056 57.4985L49.872 56.1258L47.1647 54.7725L44.4311 53.3998L41.7238 52.0465L38.9902 50.6738L36.2829 49.3206L33.5623 47.9412L33.5032 47.9219" stroke="white" stroke-width="0.3" stroke-miterlimit="10"/>
<path d="M111.803 83.5768L109.398 82.3659L106.606 80.9738L103.813 79.5818L101.014 78.1767L98.2143 76.7715L95.4346 75.3729L92.6222 73.9744L89.836 72.5626L87.0433 71.1706L84.2439 69.7655L81.4512 68.3734L78.665 66.9617L75.8657 65.5566L73.073 64.1645L70.2736 62.7594L67.4743 61.3543L64.6816 59.9623L61.8953 58.5505L59.0896 57.1651L56.31 55.7664L53.5106 54.3613L50.7113 52.9562L47.9186 51.5641L45.1193 50.159L42.3396 48.7603L39.5403 47.3552L36.7476 45.9632L35.6633 45.4127" stroke="white" stroke-width="0.3" stroke-miterlimit="10"/>
<path d="M39.9734 43.9656L41.6294 44.8009L44.3827 46.1801L47.1097 47.5398L49.8696 48.932L52.5835 50.2983L55.3368 51.6775L58.0835 53.0436L60.8238 54.4294L63.5704 55.7956L66.3041 57.1683L69.0574 58.5475L71.7713 59.9138L74.5246 61.293L77.2649 62.6788L80.0115 64.0449L82.7582 65.411L85.4854 66.8034L88.2321 68.1696L90.9657 69.5423L93.719 70.9215L96.4591 72.2745L99.1993 73.6603L101.953 75.0395L104.667 76.4058L107.42 77.785L110.153 79.1578L110.351 79.2549" stroke="white" stroke-width="0.3" stroke-miterlimit="10"/>
<path d="M107.647 74.2853L107.358 74.1363L104.742 72.8349L102.14 71.5269L99.5181 70.2125L96.9029 68.9111L94.2941 67.59L91.6722 66.2756L89.0766 64.9807L86.4547 63.6662L83.8459 62.3451L81.2175 61.0504L78.6087 59.7293L75.9934 58.4279L73.3912 57.1199L70.7824 55.7989L68.1541 54.5041L65.5519 53.1961L62.93 51.8817L60.3278 50.5737L57.7059 49.2592L55.084 47.9448L52.4884 46.6498L49.8665 45.3354L47.2577 44.0143L45.5426 43.1597" stroke="white" stroke-width="0.3" stroke-miterlimit="10"/>
<path d="M48.6036 41.0973L49.9704 41.7837L52.7304 43.1759L55.464 44.5486L58.2959 45.9208L61.0295 47.2936L63.7697 48.6794L66.418 50.0133L69.1516 51.386L71.8982 52.7522L74.6449 54.1183L77.3852 55.5041L80.1385 56.8833L82.8787 58.2691L85.6188 59.6221L88.359 61.0079L91.1124 62.3871L93.846 63.7599L96.5993 65.139L99.3393 66.4921L102.08 67.8779L104.82 69.2637L107.415 70.5586" stroke="white" stroke-width="0.3" stroke-miterlimit="10"/>
<path d="M104.431 65.4853L103.091 64.8184L100.409 63.4519L97.7087 62.1117L95.008 60.7716L92.3335 59.4181L89.6262 58.0649L86.9386 56.7181L84.251 55.3713L81.5568 54.0114L78.8692 52.6646L76.1816 51.3178L73.4743 49.9645L70.7867 48.6177L68.0991 47.2709L65.4048 45.911L62.7172 44.5642L60.0166 43.224L57.3223 41.8641L54.6347 40.5173L54.4836 40.4462" stroke="white" stroke-width="0.3" stroke-miterlimit="10"/>
<path d="M98.7451 59.0397L97.306 58.3079L94.8812 57.0906L92.4761 55.8797L90.0383 54.669L87.6332 53.4581L85.2084 52.2407L82.7837 51.0234L80.3655 49.8191L77.9407 48.6018L75.4768 47.4043L73.052 46.187L70.6469 44.9761L68.2483 43.7455L65.8432 42.5346L63.4184 41.3173L63.0308 41.1361" stroke="white" stroke-width="0.3" stroke-miterlimit="10"/>
<path d="M15.6163 71.0437L16.3024 69.6441L17.4743 67.2917L18.6659 64.9457L19.8509 62.5866L21.0294 60.2473L22.2078 57.8752L23.3797 55.5227L24.3964 53.5119" stroke="white" stroke-width="0.3" stroke-miterlimit="10"/>
<path d="M15.0179 79.3813L16.0402 77.2197L17.3611 74.5782L18.682 71.9366L20.0095 69.308L21.3699 66.7121L22.7039 64.0639L24.0247 61.4223L25.3848 58.7608L26.7188 56.1126L28.0396 53.471L29.3671 50.8425L30.6553 48.2011L30.7206 48.1679" stroke="white" stroke-width="0.3" stroke-miterlimit="10"/>
<path d="M35.9488 44.8738L35.9357 44.8804L35.217 46.3129L33.8442 49.0466L32.4651 51.7999L31.0793 54.5401L29.7065 57.2737L28.3273 60.027L26.9482 62.7804L25.5754 65.514L24.1962 68.2673L22.8171 71.0206L21.4509 73.7673L20.0718 76.5206L18.699 79.2542L17.3198 82.0075L15.934 84.7478L15.5649 85.4772" stroke="white" stroke-width="0.3" stroke-miterlimit="10"/>
<path d="M16.9418 89.9044L17.5115 88.761L18.8778 86.0471L20.2506 83.3135L21.6103 80.5865L22.9766 77.8725L24.3493 75.1389L25.709 72.4119L27.0817 69.6783L28.4481 66.9644L29.8208 64.2308L31.1871 61.5169L32.5468 58.7899L33.9262 56.0693L35.2728 53.3489L36.6455 50.6153L38.0183 47.8817L39.3649 45.1613L40.2911 43.3607" stroke="white" stroke-width="0.3" stroke-miterlimit="10"/>
<path d="M18.2133 94.5484L18.7186 93.5692L20.1171 90.7568L21.5157 87.9772L22.9208 85.1779L24.326 82.3785L25.718 79.5858L27.1231 76.7865L28.5218 74.0069L29.9139 71.2142L31.3256 68.4279L32.711 65.6221L34.1161 62.8228L35.5279 60.0366L36.9199 57.2439L38.3317 54.4576L39.7301 51.6452L41.1288 48.8656L42.5209 46.0729L43.926 43.2735L44.7613 41.6176" stroke="white" stroke-width="0.3" stroke-miterlimit="10"/>
<path d="M48.6104 41.1103L48.0728 42.1552L46.7003 44.9215L45.2949 47.6881L43.9093 50.4611L42.5237 53.2341L41.1381 56.0071L39.7525 58.7801L38.3602 61.5401L36.9746 64.3131L35.5824 67.073L34.1903 69.8657L32.7981 72.6256L31.4255 75.392L30.0202 78.1586L28.6346 80.9316L27.2424 83.6915L25.8634 86.4776L24.4647 89.2572L23.0855 92.0106L21.6869 94.7902L20.3077 97.5435L20.1201 97.9508" stroke="white" stroke-width="0.3" stroke-miterlimit="10"/>
<path d="M22.1495 101.077L23.2697 98.8495L24.6489 96.0962L26.0215 93.3298L27.4073 90.5896L28.7929 87.8166L30.1721 85.0633L31.5512 82.31L32.9371 79.5697L34.3096 76.8033L35.6954 74.0631L37.081 71.2901L38.4668 68.5498L39.8394 65.7835L41.2186 63.0301L42.6174 60.2833L43.9769 57.5235L45.3692 54.7636L46.7353 52.0169L48.1342 49.27L49.5067 46.5036L50.8925 43.7634L52.2651 40.997L52.3169 40.905" stroke="white" stroke-width="0.3" stroke-miterlimit="10"/>
<path d="M55.8038 41.107L54.9749 42.7432L53.6088 45.4899L52.2555 48.1972L50.8761 50.9178L49.5034 53.6514L48.1371 56.3653L46.7774 59.0923L45.4244 61.8324L44.045 64.5529L42.6853 67.2799L41.319 69.9938L39.9462 72.7274L38.5735 75.4611L37.2008 78.1947L35.8475 80.902L34.4748 83.6356L33.1085 86.3495L31.7357 89.0831L30.3696 91.8298L29.0164 94.5371L27.6436 97.2707L26.2773 99.9847L24.9046 102.718L24.3931 103.75" stroke="white" stroke-width="0.3" stroke-miterlimit="10"/>
<path d="M26.1901 107.388L27.3879 104.99L28.793 102.19L30.1851 99.3976L31.5966 96.5786L32.9953 93.799L34.3938 90.9866L35.8053 88.1676L37.204 85.3879L38.6091 82.5886L40.0142 79.7893L41.4193 76.99L42.8244 74.1906L44.2426 71.3847L45.6347 68.592L47.0332 65.7796L48.458 62.9867L49.8434 60.1809L51.2419 57.3685L52.6536 54.5823L54.0587 51.7829L55.4638 48.9836L56.8689 46.1843L58.2741 43.385L59.6725 40.5726L59.7697 40.3754" stroke="white" stroke-width="0.3" stroke-miterlimit="10"/>
<path d="M63.0044 41.1168L62.3634 42.4112L60.9712 45.1712L59.5856 47.9442L58.2 50.7172L56.8077 53.4771L55.4221 56.2501L54.0299 59.0101L52.6442 61.7831L51.2586 64.5561L49.8664 67.316L48.4808 70.089L47.0885 72.849L45.7095 75.635L44.3173 78.395L42.9317 81.168L41.5525 83.9213L40.1538 86.7009L38.7746 89.4542L37.376 92.2339L35.9904 95.0069L34.6112 97.7602L33.2256 100.533L31.8203 103.3L30.4477 106.066L29.0621 108.839L28.693 109.569" stroke="white" stroke-width="0.3" stroke-miterlimit="10"/>
<path d="M66.3032 41.6933L65.2025 43.8946L63.8169 46.6676L62.4313 49.4406L61.0521 52.1939L59.6665 54.9669L58.2676 57.7138L56.8951 60.4802L55.5028 63.2401L54.1303 66.0065L52.738 68.7664L51.3524 71.5394L49.9668 74.3124L48.5746 77.0724L47.1823 79.8323L45.7901 82.5922L44.4175 85.3586L43.0253 88.1186L41.6527 90.8849L40.2605 93.6449L38.8749 96.4179L37.4957 99.1712L36.1035 101.931L34.7178 104.704L33.3387 107.457L31.953 110.23L31.1241 111.867" stroke="white" stroke-width="0.3" stroke-miterlimit="10"/>
<path d="M69.5838 42.3616L69.4931 42.5391L68.1139 45.2924L66.7153 48.072L65.3296 50.845L63.9505 53.5983L62.5649 56.3713L61.1595 59.1379L59.787 61.9043L58.4014 64.6773L57.0222 67.4306L55.6169 70.1972L54.2313 72.9702L52.8523 75.7562L51.4601 78.5162L50.0744 81.2892L48.6822 84.0491L47.3096 86.8155L45.911 89.5951L44.5318 92.3484L43.1462 95.1215L41.7539 97.8814L40.3617 100.641L38.9761 103.414L37.5905 106.187L36.1982 108.947L34.8126 111.72L33.6148 114.119" stroke="white" stroke-width="0.3" stroke-miterlimit="10"/>
<path d="M72.8034 43.1093L72.4343 43.8387L71.042 46.5987L69.65 49.3914L68.2513 52.171L66.8657 54.944L65.467 57.7237L64.075 60.5164L62.6827 63.2763L61.2907 66.069L59.9051 68.842L58.5064 71.6216L57.1077 74.4013L55.7221 77.1743L54.3234 79.9539L52.9247 82.7335L51.5457 85.5196L50.1404 88.2862L48.7484 91.0789L47.3628 93.8519L45.9641 96.6315L44.5785 99.4045L43.1798 102.184L41.7878 104.977L40.3955 107.737L39.0035 110.529L37.5982 113.296L36.2192 116.082L36.109 116.286" stroke="white" stroke-width="0.3" stroke-miterlimit="10"/>
<path d="M75.9542 44.0078L75.3844 45.1512L73.9857 47.9308L72.5937 50.7235L71.1886 53.5229L69.8029 56.2959L68.3978 59.0952L66.9861 61.8815L65.6071 64.6675L64.202 67.4668L62.8033 70.2465L61.4046 73.0261L59.9995 75.8254L58.6075 78.6181L57.2088 81.3978L55.8167 84.1905L54.405 86.9767L53.013 89.7694L51.6209 92.5621L50.2222 95.3418L48.8302 98.1345L47.4184 100.921L46.0328 103.694L44.6277 106.493L43.2226 109.292L41.837 112.065L40.4319 114.865L39.0332 117.644L38.7159 118.282" stroke="white" stroke-width="0.3" stroke-miterlimit="10"/>
<path d="M78.8128 45.4653L78.1397 46.8582L76.7344 49.6248L75.3618 52.3912L73.9696 55.1511L72.5709 57.9307L71.1786 60.6907L69.8061 63.457L68.4008 66.2236L67.0152 68.9966L65.636 71.7499L64.2373 74.5296L62.8714 77.309L61.4791 80.0689L60.0805 82.8486L58.7013 85.6019L57.3157 88.3749L55.9104 91.1415L54.5247 93.9145L53.1456 96.6678L51.7469 99.4474L50.3743 102.214L48.9821 104.974L47.5834 107.753L46.2042 110.507L44.8186 113.28L43.433 116.053L42.0474 118.826L41.581 119.719" stroke="white" stroke-width="0.3" stroke-miterlimit="10"/>
<path d="M44.4543 121.202L44.9724 120.184L46.345 117.417L47.7372 114.658L49.1295 111.898L50.5086 109.144L51.8942 106.371L53.2865 103.611L53.2799 103.598L54.659 100.845L56.0513 98.085L57.4305 95.3317L58.8161 92.5587L60.1822 89.812L61.5678 87.039L62.9667 84.2921L64.3523 81.5191L65.7248 78.7527L67.1171 75.9928L68.5027 73.2198L69.8885 70.4795L71.2741 67.7065L72.6533 64.9532L74.0389 62.1802L75.4312 59.4203L76.8103 56.667L78.1959 53.894L79.5882 51.134L80.9674 48.3807L81.7054 46.8891" stroke="white" stroke-width="0.3" stroke-miterlimit="10"/>
<path d="M84.563 48.3462L83.8509 49.7918L82.4587 52.5517L81.0861 55.3181L79.7005 58.0911L78.3083 60.851L76.9226 63.624L75.5435 66.3773L74.1512 69.1373L72.759 71.8972L71.3864 74.6636L69.9811 77.4302L68.6086 80.1965L67.223 82.9695L65.8307 85.7295L64.4515 88.4828L63.0593 91.2427L61.6867 94.0091L60.2945 96.7691L60.3011 96.7821L58.9219 99.5354L57.5233 102.315L56.1441 105.068L54.7518 107.828L54.7585 107.841L53.3596 110.588L51.9871 113.355L50.5948 116.115L49.2223 118.881L47.83 121.641L47.325 122.653" stroke="white" stroke-width="0.3" stroke-miterlimit="10"/>
<path d="M87.468 49.7966L86.8204 51.078L85.4282 53.8379L84.0295 56.6176L82.6375 59.4103L81.2452 62.1702L79.8532 64.9629L78.4609 67.7228L77.0753 70.4958L75.6767 73.2755L74.2977 76.0615L72.8924 78.8281L71.5003 81.6208L70.1081 84.3808L68.716 87.1735L67.3173 89.9531L65.9448 92.7195L64.5461 95.4991L63.1474 98.2787L61.7552 101.039L60.3631 103.831L58.9775 106.604L57.5788 109.384L56.1802 112.164L54.7879 114.924L53.4089 117.71L52.0103 120.489L50.6247 123.262L50.2103 124.097" stroke="white" stroke-width="0.3" stroke-miterlimit="10"/>
<path d="M90.3446 51.2275L89.8653 52.1607L88.4732 54.9534L87.0551 57.7594L85.6566 60.5718L84.2448 63.358L82.8464 66.1704L81.4348 68.9894L80.0297 71.7888L78.6246 74.5881L77.2064 77.394L75.821 80.1998L74.4028 83.0058L72.9977 85.8051L71.5992 88.6175L70.1941 91.4168L68.7759 94.2228L67.3708 97.0221L65.9723 99.8345L64.5606 102.621L63.1621 105.433L61.7505 108.252L60.3519 111.032L58.9403 113.851L57.5352 116.65L56.1367 119.463L54.7185 122.268L53.3134 125.068L53.074 125.567" stroke="white" stroke-width="0.3" stroke-miterlimit="10"/>
<path d="M92.6075 53.8413L92.394 54.2947L91.0212 57.0283L89.6421 59.7816L88.2498 62.5415L86.8837 65.2882L85.5045 68.0415L84.1187 70.7818L82.7395 73.5351L81.3604 76.2884L79.9942 79.0351L78.602 81.795L77.2228 84.5483L75.8501 87.282L74.4645 90.055L73.0853 92.8083L71.7125 95.5419L70.3269 98.3149L68.9411 101.055L67.5684 103.789L66.1828 106.562L64.8166 109.308L63.4308 112.049L62.0386 114.809L60.6725 117.555L59.2933 120.309L57.9141 123.062L56.5349 125.815L56.5285 125.835" stroke="white" stroke-width="0.3" stroke-miterlimit="10"/>
<path d="M59.8668 126.392L60.9156 124.282L62.2818 121.536L63.6611 118.815L63.6545 118.802L65.0272 116.068L66.4 113.335L67.7794 110.614L69.1324 107.874L70.5118 105.154L71.8715 102.427L73.2442 99.693L74.5973 96.953L75.9766 94.2324L77.3494 91.4988L78.7221 88.7652L78.7155 88.7521L80.0949 86.0316L81.461 83.2849L82.8404 80.5643L84.1934 77.8243L85.5728 75.1037L86.9325 72.3767L88.3052 69.6431L89.678 66.9095L91.0507 64.1759L92.4234 61.4423L93.7962 58.7086L95.0523 56.1985" stroke="white" stroke-width="0.3" stroke-miterlimit="10"/>
<path d="M62.6736 127.941L63.3536 126.594L64.7587 123.794L66.1572 120.982L67.5623 118.183L68.9674 115.383L70.3789 112.564L71.771 109.772L73.1892 106.966L74.5943 104.166L75.9928 101.354L77.4109 98.548L78.803 95.7553L80.2145 92.9363L81.6327 90.1303L83.0312 87.3179L84.443 84.5317L85.8414 81.7193L87.2465 78.92L88.6581 76.1009L90.0632 73.3016L91.4683 70.5023L92.8668 67.6899L94.2719 64.8906L95.6901 62.0846L97.0886 59.2722L97.9563 57.5506" stroke="white" stroke-width="0.3" stroke-miterlimit="10"/>
<path d="M100.414 59.8682L100.058 60.5582L98.6329 63.3839L97.228 66.216L95.8098 69.0219L94.3983 71.8409L92.9867 74.66L91.5752 77.479L90.1636 80.298L88.7521 83.117L87.3339 85.923L85.9224 88.742L84.5108 91.561L84.5174 91.5741L83.0993 94.38L81.6877 97.199L80.2631 100.025L78.8646 102.837L77.44 105.663L76.0415 108.475L74.63 111.294L73.2118 114.1L71.8003 116.919L70.3756 119.745L68.9705 122.544L68.9772 122.557L67.5656 125.376L66.141 128.202L65.9792 128.53" stroke="white" stroke-width="0.3" stroke-miterlimit="10"/>
<path d="M69.6209 128.457L70.5727 126.545L71.9778 123.745L73.3699 120.952L74.7619 118.16L76.167 115.36L77.5657 112.581L78.9708 109.781L80.3629 106.989L81.781 104.183L83.1667 101.41L84.5718 98.6105L85.9835 95.8242L87.3756 93.0315L88.7873 90.2453L90.1727 87.4395L91.5648 84.6468L92.9634 81.8672L94.3686 79.0679L95.7803 76.2816L97.1788 73.4692L98.5775 70.6896L99.9695 67.8969L101.375 65.0976L102.508 62.8305" stroke="white" stroke-width="0.3" stroke-miterlimit="10"/>
<path d="M73.5489 127.778L73.5555 127.791L73.7885 127.312L75.1482 124.585L75.1612 124.578L76.5209 121.851L77.887 119.104L79.2664 116.384L80.6392 113.65L82.0119 110.916L83.3716 108.189L84.7443 105.456L86.104 102.729L87.4768 99.9952L88.8495 97.2616L90.2092 94.5346L90.2222 94.528L91.5819 91.801L92.9677 89.0607L94.3405 86.3271L95.7002 83.6001L97.0729 80.8665L98.4326 78.1395L99.8053 75.4059L101.178 72.6723L102.538 69.9453L103.924 67.205L104.325 66.4099" stroke="white" stroke-width="0.3" stroke-miterlimit="10"/>
<path d="M106.471 69.3128L105.532 71.1856L104.166 73.9323L102.773 76.6922L101.388 79.4324L100.008 82.1858L98.6162 84.9457L97.2501 87.6924L95.8578 90.4523L94.4917 93.199L93.1059 95.9393L91.7334 98.7056L90.3542 101.459L88.9553 104.206L87.5958 106.966L86.2166 109.719L84.8375 112.472L83.4517 115.212L83.4386 115.219L82.0725 117.966L80.6933 120.719L80.6802 120.726L79.301 123.479L77.9219 126.232L77.1515 127.79" stroke="white" stroke-width="0.3" stroke-miterlimit="10"/>
<path d="M81.079 127.144L82.2379 124.798L83.6237 122.058L85.0095 119.318L86.3625 116.578L87.7483 113.837L89.108 111.11L90.4872 108.357L91.8599 105.623L93.2393 102.903L94.6054 100.156L95.9846 97.4028L97.3574 94.6692L98.7301 91.9356L100.096 89.1889L101.469 86.4553L102.835 83.7086L104.228 80.9814L105.581 78.2414L106.966 75.5011L108.281 72.8792" stroke="white" stroke-width="0.3" stroke-miterlimit="10"/>
<path d="M85.3613 125.776L85.3743 125.769L86.7145 123.068L88.0483 120.387L89.4148 117.706L90.755 115.006L92.0953 112.338L93.4421 109.65L94.7823 106.949L96.1358 104.275L97.4826 101.587L98.8294 98.8997L100.176 96.2121L101.53 93.5375L102.87 90.8369L104.223 88.1623L105.563 85.4616L106.897 82.7807L108.264 80.0995L109.604 77.3988L109.74 77.1163" stroke="white" stroke-width="0.3" stroke-miterlimit="10"/>
<path d="M89.6783 124.308L89.6912 124.269L89.7042 124.262L91.0253 121.653L92.3526 118.992L93.693 116.324L95.0139 113.683L96.3542 111.015L97.6946 108.347L99.0285 105.699L100.356 103.037L101.696 100.369L103.024 97.7081L104.364 95.0402L105.691 92.3789L107.025 89.7307L108.366 87.0628L109.693 84.4015L111.02 81.7402L111.13 81.5365" stroke="white" stroke-width="0.3" stroke-miterlimit="10"/>
<path d="M94.9838 120.942L95.8515 119.22L97.0883 116.769L98.3252 114.318L99.5554 111.854L100.792 109.403L102.022 106.939L103.259 104.488L104.489 102.024L105.713 99.5791L106.95 97.128L108.18 94.6638L109.424 92.2585L110.654 89.7944L111.632 87.8362" stroke="white" stroke-width="0.3" stroke-miterlimit="10"/>
<path d="M100.245 117.583L100.284 117.53L101.417 115.263L102.595 112.924L103.767 110.572L104.939 108.252L106.111 105.899L107.29 103.56L108.455 101.227L109.627 98.8749L110.806 96.5356L111.971 94.2028L112.068 94.0385" stroke="white" stroke-width="0.3" stroke-miterlimit="10"/>
<path d="M113.393 92.9889C113.424 92.6939 113.442 92.4055 113.46 92.1171C113.429 91.436 113.637 90.7654 114.048 90.2211C114.459 89.6768 115.046 89.2928 115.71 89.1352C116.373 88.9776 117.071 89.0563 117.682 89.3578C118.294 89.6592 118.781 90.1646 119.06 90.7867C119.767 92.0492 120.462 93.2899 121.146 94.5088C126.821 104.689 131.814 113.655 138.001 118.434L134.698 124.874C127.164 122.684 116.943 123.813 105.368 125.12L101.151 125.617C100.487 125.746 99.7975 125.642 99.2011 125.321C98.6046 125 98.1378 124.482 97.88 123.856C97.6222 123.23 97.5894 122.534 97.7871 121.886C97.9848 121.238 98.4008 120.679 98.9644 120.303L99.649 119.742C87.3584 129.741 68.774 132.386 51.1846 126.05C83.7838 137.912 121.175 121.534 136.31 129.378L141.929 132.261L148.173 120.123L142.56 117.221C127.367 109.423 118.947 69.5535 90.3446 49.9305C105.719 60.5448 114.335 77.2004 113.393 92.9889Z" fill="#E24E20"/>
<path d="M18.3422 61.0692C7.41546 82.3023 18.9209 110.059 43.9984 122.961C44.7564 123.354 45.4968 123.734 46.2196 124.101L46.351 124.166C47.1066 124.522 47.8816 124.851 48.65 125.168C49.4251 125.497 50.213 125.787 51.0009 126.077C68.7736 132.386 87.358 129.741 99.6287 119.703L99.8438 119.512L101.193 118.35L101.506 118.06C101.91 117.691 102.301 117.296 102.691 116.9L103.05 116.538L104.111 115.391L104.508 114.944L105.444 113.778L105.854 113.258C106.153 112.877 106.426 112.475 106.712 112.067L107.108 111.521C107.389 111.105 107.662 110.671 107.926 110.219L108.25 109.693C108.614 109.082 108.964 108.444 109.294 107.8C109.624 107.156 109.935 106.506 110.226 105.849L110.465 105.284C110.665 104.804 110.872 104.338 111.039 103.859C111.207 103.38 111.188 103.439 111.272 103.215C111.355 102.992 111.594 102.296 111.735 101.83L111.921 101.194C112.056 100.715 112.191 100.235 112.306 99.75C112.361 99.56 112.405 99.3673 112.44 99.1726C112.561 98.6674 112.676 98.1492 112.765 97.6442L112.854 97.1392C112.955 96.5948 113.037 96.044 113.106 95.4998C113.131 95.3555 113.144 95.2178 113.156 95.0802C113.231 94.4835 113.28 93.9001 113.342 93.3429L113.36 93.0545C114.354 77.2395 105.738 60.5839 90.3641 49.9696L90.331 49.9043C89.6534 49.4432 88.9495 48.9625 88.2394 48.5343C87.5554 48.0929 86.8058 47.619 86.1157 47.2628L85.958 47.1785C85.2348 46.757 84.4921 46.3617 83.7103 45.9864C58.5865 33.0255 29.3015 39.8031 18.3422 61.0692ZM106.159 106.187C96.1263 125.686 68.9797 131.789 45.696 119.767C22.4123 107.745 11.5421 82.1468 21.6272 62.6221C31.7124 43.0974 58.787 37.0142 82.0838 49.0294C105.381 61.0446 116.172 86.6827 106.159 106.187Z" fill="#FF5D24"/>
<path d="M142.739 133.147C142.477 133.007 142.281 132.772 142.19 132.49C142.099 132.208 142.121 131.902 142.251 131.636L147.854 120.76C147.92 120.628 148.012 120.51 148.124 120.414C148.237 120.318 148.367 120.245 148.507 120.2C148.648 120.155 148.796 120.138 148.943 120.15C149.09 120.163 149.234 120.204 149.365 120.273L194.689 143.583C194.821 143.649 194.937 143.74 195.033 143.851C195.128 143.962 195.2 144.091 195.245 144.231C195.29 144.37 195.306 144.518 195.293 144.663C195.281 144.809 195.239 144.951 195.17 145.081L189.574 155.97C189.434 156.231 189.199 156.428 188.917 156.519C188.635 156.61 188.329 156.588 188.063 156.457L142.739 133.147Z" fill="#992004"/>
<path d="M51.5713 131.719C49.337 133.087 46.7925 133.866 44.1754 133.984C41.5583 134.102 38.954 133.555 36.6056 132.394C33.9931 131.083 31.7979 129.069 30.2666 126.579C28.377 123.472 27.6399 119.799 28.1839 116.204C28.728 112.608 30.5187 109.318 33.2428 106.909C35.967 104.501 39.4513 103.126 43.0864 103.026C46.7215 102.926 50.276 104.107 53.1285 106.363C54.5288 107.485 55.7186 108.848 56.6425 110.387C58.7956 113.889 59.4708 118.102 58.52 122.102C57.5692 126.101 55.07 129.56 51.5713 131.719Z" fill="#D3F73C"/>
<mask id="mask0_207_183" style="mask-type:luminance" maskUnits="userSpaceOnUse" x="28" y="103" width="31" height="31">
<path d="M43.4893 133.979C52.0438 133.979 58.9787 127.044 58.9787 118.489C58.9787 109.935 52.0438 103 43.4893 103C34.9348 103 28 109.935 28 118.489C28 127.044 34.9348 133.979 43.4893 133.979Z" fill="white"/>
</mask>
<g mask="url(#mask0_207_183)">
<path d="M79.0267 123.352C91.7511 115.566 96.5857 100.298 89.8252 89.2484C83.0647 78.199 67.2691 75.5529 54.5447 83.3382C41.8203 91.1235 36.9857 106.392 43.7462 117.441C50.5067 128.491 66.3023 131.137 79.0267 123.352Z" stroke="white" stroke-width="2.81424" stroke-miterlimit="10"/>
<path d="M30.7342 152.042C38.426 147.336 39.0246 134.307 32.0711 122.941C25.1175 111.574 13.2451 106.175 5.55328 110.88C-2.13856 115.586 -2.73708 128.615 4.21644 139.981C11.17 151.348 23.0424 156.747 30.7342 152.042Z" stroke="white" stroke-width="2.81424" stroke-miterlimit="10"/>
</g>
<g style="mix-blend-mode:multiply" opacity="0.2">
<path d="M51.5707 131.718C49.3364 133.086 46.7919 133.865 44.1749 133.983C41.5578 134.101 38.9534 133.554 36.605 132.393C45.7691 132.393 56.2974 124.125 53.1417 106.362C54.5371 107.485 55.7222 108.848 56.6419 110.385C58.795 113.888 59.4702 118.101 58.5194 122.101C57.5686 126.1 55.0695 129.559 51.5707 131.718Z" fill="#203878"/>
</g>
</svg>
