<svg width="168" height="24" viewBox="0 0 168 24" fill="none" xmlns="http://www.w3.org/2000/svg">
<path d="M13.7335 16.7369C14.0888 16.3877 14.0888 15.8235 13.7335 15.4742L10.1982 11.9994L13.7335 8.52468C14.0888 8.17542 14.0888 7.61122 13.7335 7.26195C13.3781 6.91268 12.8041 6.91268 12.4487 7.26195L8.26651 11.3725C7.91116 11.7218 7.91116 12.286 8.26651 12.6353L12.4487 16.7459C12.795 17.0862 13.3781 17.0862 13.7335 16.7369Z" fill="#1D1D1D"/>
<path d="M58.2665 7.26308C57.9112 7.61235 57.9112 8.17655 58.2665 8.52581L61.8018 12.0006L58.2665 15.4753C57.9112 15.8246 57.9112 16.3888 58.2665 16.7381C58.6219 17.0873 59.1959 17.0873 59.5513 16.7381L63.7335 12.6275C64.0888 12.2782 64.0888 11.714 63.7335 11.3647L59.5513 7.25412C59.205 6.91381 58.6219 6.91381 58.2665 7.26308Z" fill="#1D1D1D"/>
<path d="M103.263 13.7335C103.612 14.0888 104.177 14.0888 104.526 13.7335L108.001 10.1982L111.475 13.7335C111.825 14.0888 112.389 14.0888 112.738 13.7335C113.087 13.3781 113.087 12.8041 112.738 12.4487L108.627 8.26651C108.278 7.91116 107.714 7.91116 107.365 8.26651L103.254 12.4487C102.914 12.795 102.914 13.3781 103.263 13.7335Z" fill="#1D1D1D"/>
<path d="M160.737 10.2665C160.388 9.91116 159.823 9.91116 159.474 10.2665L155.999 13.8018L152.525 10.2665C152.175 9.91116 151.611 9.91116 151.262 10.2665C150.913 10.6219 150.913 11.1959 151.262 11.5513L155.373 15.7335C155.722 16.0888 156.286 16.0888 156.635 15.7335L160.746 11.5513C161.086 11.205 161.086 10.6219 160.737 10.2665Z" fill="#1D1D1D"/>
</svg>
