<svg width="24" height="24" viewBox="0 0 24 24" fill="none" xmlns="http://www.w3.org/2000/svg">
<path fill-rule="evenodd" clip-rule="evenodd" d="M12 4C7.58172 4 4 7.58172 4 12C4 16.4183 7.58172 20 12 20C16.4183 20 20 16.4183 20 12C20 7.58172 16.4183 4 12 4ZM10.0401 8.62883C9.64959 8.23831 9.01643 8.23831 8.6259 8.62883C8.23538 9.01935 8.23538 9.65252 8.6259 10.043L10.5855 12.0026L8.6259 13.9622C8.23538 14.3527 8.23538 14.9859 8.6259 15.3764C9.01643 15.7669 9.64959 15.7669 10.0401 15.3764L11.9997 13.4168L13.9592 15.3764C14.3498 15.7669 14.9829 15.7669 15.3734 15.3764C15.764 14.9859 15.764 14.3527 15.3734 13.9622L13.4139 12.0026L15.3734 10.043C15.764 9.65252 15.764 9.01935 15.3734 8.62883C14.9829 8.23831 14.3498 8.23831 13.9592 8.62883L11.9997 10.5884L10.0401 8.62883Z" fill="#1D1D1D"/>
</svg>
