<svg width="24" height="24" viewBox="0 0 24 24" fill="none" xmlns="http://www.w3.org/2000/svg">
<path d="M3 3L21 21" stroke="#BCBCC0" stroke-width="2" stroke-linecap="round" stroke-linejoin="round"/>
<path d="M14.1213 14.1213C13.5587 14.6839 12.7956 15 12 15C11.2044 15 10.4413 14.6839 9.87868 14.1213C9.31607 13.5587 9 12.7956 9 12C9 11.2043 9.31607 10.4413 9.87868 9.87866L14.1213 14.1213Z" fill="#BCBCC0" stroke="#BCBCC0" stroke-width="2" stroke-linecap="round" stroke-linejoin="round"/>
<path d="M7.362 7.561C5.68 8.74 4.279 10.42 3 12C4.889 14.991 8.282 18 12 18C13.55 18 15.043 17.477 16.395 16.65M12 6C16.008 6 18.701 9.158 21 12C20.6705 12.5208 20.3105 13.0216 19.922 13.5" stroke="#BCBCC0" stroke-width="2" stroke-linecap="round" stroke-linejoin="round"/>
</svg>
