<svg width="24" height="24" viewBox="0 0 24 24" fill="none" xmlns="http://www.w3.org/2000/svg">
<path d="M12 12.5C12.1326 12.5 12.2598 12.4473 12.3536 12.3536C12.4473 12.2598 12.5 12.1326 12.5 12C12.5 11.8674 12.4473 11.7402 12.3536 11.6464C12.2598 11.5527 12.1326 11.5 12 11.5C11.8674 11.5 11.7402 11.5527 11.6464 11.6464C11.5527 11.7402 11.5 11.8674 11.5 12C11.5 12.1326 11.5527 12.2598 11.6464 12.3536C11.7402 12.4473 11.8674 12.5 12 12.5ZM12 19.5C12.1326 19.5 12.2598 19.4473 12.3536 19.3536C12.4473 19.2598 12.5 19.1326 12.5 19C12.5 18.8674 12.4473 18.7402 12.3536 18.6464C12.2598 18.5527 12.1326 18.5 12 18.5C11.8674 18.5 11.7402 18.5527 11.6464 18.6464C11.5527 18.7402 11.5 18.8674 11.5 19C11.5 19.1326 11.5527 19.2598 11.6464 19.3536C11.7402 19.4473 11.8674 19.5 12 19.5ZM12 5.5C12.1326 5.5 12.2598 5.44732 12.3536 5.35355C12.4473 5.25979 12.5 5.13261 12.5 5C12.5 4.86739 12.4473 4.74021 12.3536 4.64645C12.2598 4.55268 12.1326 4.5 12 4.5C11.8674 4.5 11.7402 4.55268 11.6464 4.64645C11.5527 4.74021 11.5 4.86739 11.5 5C11.5 5.13261 11.5527 5.25979 11.6464 5.35355C11.7402 5.44732 11.8674 5.5 12 5.5Z" fill="#1D1D1D" stroke="#1D1D1D" stroke-width="2" stroke-linecap="round" stroke-linejoin="round"/>
</svg>
