<svg width="16" height="16" viewBox="0 0 16 16" fill="none" xmlns="http://www.w3.org/2000/svg">
<circle cx="8" cy="8" r="8"/>
<path d="M6.302 5.51234C6.27164 5.49434 6.23705 5.48469 6.20175 5.48438C6.16645 5.48407 6.13169 5.49311 6.10102 5.51058C6.07035 5.52806 6.04484 5.55333 6.0271 5.58385C6.00936 5.61437 6.00001 5.64904 6 5.68434V10.3157C6.00001 10.351 6.00936 10.3856 6.0271 10.4162C6.04484 10.4467 6.07035 10.472 6.10102 10.4894C6.13169 10.5069 6.16645 10.5159 6.20175 10.5156C6.23705 10.5153 6.27164 10.5057 6.302 10.4877L10.2097 8.17201C10.2395 8.1543 10.2642 8.12913 10.2814 8.09897C10.2986 8.06882 10.3076 8.03471 10.3076 8.00001C10.3076 7.9653 10.2986 7.9312 10.2814 7.90104C10.2642 7.87089 10.2395 7.84572 10.2097 7.82801L6.302 5.51234Z" fill="white" stroke="white" stroke-width="1.99" stroke-linecap="round" stroke-linejoin="round"/>
</svg>
