<svg width="24" height="24" viewBox="0 0 24 24" fill="none" xmlns="http://www.w3.org/2000/svg">
<path fill-rule="evenodd" clip-rule="evenodd" d="M22.0733 13L18.0733 20C17.3802 20.6598 16.7475 21 16.0733 21H8.0733C7.52393 21 6.89123 20.6598 6.0733 20L2.0733 13C1.97557 12.6508 1.97557 11.88 2.0733 11L6.0733 4C6.89123 3.34021 7.52393 3 8.0733 3H16.0733C16.7475 3 17.3802 3.34021 18.0733 4L22.0733 11C22.171 11.88 22.171 12.6508 22.0733 13Z" stroke="#1D1D1D" stroke-width="2"/>
<path fill-rule="evenodd" clip-rule="evenodd" d="M12.0733 16C14.2824 16 16.0733 14.2091 16.0733 12C16.0733 9.79086 14.2824 8 12.0733 8C9.86416 8 8.0733 9.79086 8.0733 12C8.0733 14.2091 9.86416 16 12.0733 16Z" stroke="#1D1D1D" stroke-width="2"/>
</svg>
