<svg width="24" height="24" viewBox="0 0 24 24" fill="none" xmlns="http://www.w3.org/2000/svg">
<path d="M15.5 17.472V20C15.5 20.5304 15.2893 21.0391 14.9142 21.4142C14.5391 21.7893 14.0304 22 13.5 22H10.5C9.96957 22 9.46086 21.7893 9.08579 21.4142C8.71071 21.0391 8.5 20.5304 8.5 20V17.472M8.5 6.528V4C8.5 3.46957 8.71071 2.96086 9.08579 2.58579C9.46086 2.21071 9.96957 2 10.5 2H13.5C14.0304 2 14.5391 2.21071 14.9142 2.58579C15.2893 2.96086 15.5 3.46957 15.5 4V6.528" stroke="#1D1D1D" stroke-width="2" stroke-linecap="round" stroke-linejoin="round"/>
<rect x="7" y="7" width="10" height="10" rx="2" stroke="#1D1D1D" stroke-width="2"/>
</svg>
