<svg width="122" height="83" viewBox="0 0 122 83" fill="none" xmlns="http://www.w3.org/2000/svg">
<path d="M60.6931 63.5287L48.5287 52.9928L32.8887 68.5709L35.3412 46.2838L20.822 47.421L29.1047 35.6388L16.6318 25.5805L34.5802 26.3542L25.8965 4.72668L44.7344 17.1632L56.0813 6.19622L57.4129 21.2187L74.2971 18.7366L61.0839 31.3444L82.8266 40.2187L59.9785 44.4248L60.6931 63.5287Z" fill="#C7E4FE"/>
<path d="M64.5746 38.6351L64.4769 38.8324L66.662 39.9073L65.8754 41.5378L63.6903 40.4577L63.5977 40.6602L65.7777 41.7351L64.991 43.35L62.8111 42.3115L62.7134 42.5088L64.8985 43.5889L64.1119 45.2142L61.9268 44.1393L61.8291 44.3366L64.0142 45.4115L63.2276 47.042L62.2713 46.5695L62.1787 46.7668L63.1299 47.2393L61.9319 49.7163L62.1325 49.8149L62.4461 49.1607L64.0553 49.9551L63.2687 51.5805L62.7546 51.3156L62.6569 51.5129L63.2019 51.783L62.3587 53.481L62.5592 53.5796L63.3921 51.8557L65.0013 52.6501L64.1941 54.2547L63.3715 53.8497L63.2738 54.047L64.0964 54.452L63.2636 56.1812L63.4641 56.2746L64.297 54.5507L65.9062 55.3452L65.1196 56.9705L64.0502 56.4512L63.9525 56.6537L65.0219 57.173L64.189 58.9281L64.3844 59.0268L65.2224 57.2976L66.8316 58.0921L66.045 59.7174L65.207 59.3072L65.1093 59.5045L65.9473 59.9199L65.5515 60.7352L65.7519 60.8338L66.1478 60.0134L67.7571 60.8079L66.9242 62.537L67.1196 62.6357L67.9525 60.9065L69.5668 61.701L68.7802 63.3263L67.5463 62.7188L67.4486 62.9161L68.6825 63.5288L68.2558 64.4116L68.4511 64.5103L68.8779 63.6223L70.4923 64.4168L69.6542 66.146L69.7519 66.1927L69.7056 66.2913L71.4126 67.1378L71.1606 67.657L71.3612 67.7557L71.6131 67.2364L73.2223 68.0309L72.8007 68.9085L72.9961 69.0071L73.4177 68.1296L75.0321 68.924L74.2197 70.6013L74.4151 70.7L75.2275 69.0227L76.8367 69.8172L76.0295 71.4944L76.2248 71.5879L77.0372 69.9107L78.6464 70.7051L77.8341 72.3824L78.0346 72.481L78.8418 70.8038L80.451 71.5983L79.6438 73.2755L79.8392 73.3742L80.6516 71.6969L82.2608 72.4914L81.4485 74.1687L81.649 74.2621L82.4562 72.5901L84.0705 73.3794L83.2582 75.0255L83.4536 75.1241L84.2659 73.4469L85.8751 74.2414L85.068 75.9186L85.2633 76.0173L86.0757 74.34L87.6849 75.1345L87.2582 76.0121L87.4587 76.1055L87.8803 75.2332L89.4895 76.0276L89.2427 76.5469L89.4381 76.6404L89.69 76.1211L92.0396 77.2791L92.1321 77.0818L91.618 76.8169L92.4047 75.1864L94.0139 75.9809L93.5872 76.8689L93.7825 76.9675L94.2144 76.0796L96.2966 77.1181L96.3943 76.9208L96.1167 76.7806L96.9033 75.1553L98.5126 75.9498L98.1167 76.7702L98.3172 76.8637L98.7131 76.0484L99.4483 76.4119L99.546 76.2146L98.8056 75.8459L99.5922 74.2206L101.207 75.0151L100.369 76.7442L100.569 76.8377L101.402 75.1137L102.338 75.5759L102.435 75.3734L101.5 74.9164L102.286 73.2859L103.896 74.0804L103.063 75.8096L103.258 75.903L104.091 74.179L105.119 74.6724L105.217 74.475L104.189 73.9817L104.975 72.3512L106.584 73.1457L105.752 74.8749L105.947 74.9683L106.785 73.2444L107.52 73.6078L107.618 73.4105L106.878 73.047L107.664 71.4165L109.273 72.211L108.96 72.8653L109.155 72.964L110.358 70.4818L111.191 70.8973L111.289 70.7L110.451 70.2845L111.237 68.6592L112.579 69.3187L112.677 69.1214L111.335 68.4619L112.122 66.8314L114.307 67.9115L114.399 67.709L112.219 66.6341L113.006 65.0087L115.186 66.0836L115.284 65.8863L113.099 64.8062L113.885 63.1809L116.07 64.261L116.168 64.0585L113.983 62.9836L114.769 61.3531L116.955 62.4332L117.052 62.2359L114.867 61.1558L115.654 59.5305L117.834 60.6054L117.931 60.408L115.746 59.3279L116.533 57.7026L117.875 58.3673L117.973 58.1648L116.631 57.5053L117.417 55.88L118.255 56.2902L118.348 56.0929L117.515 55.6775L118.713 53.2006L118.512 53.1019L118.199 53.7562L116.589 52.9617L117.376 51.3364L118.111 51.6999L118.209 51.4974L117.469 51.1339L118.307 49.4099L118.106 49.3112L117.273 51.0404L115.664 50.2459L116.451 48.6154L117.448 49.1347L117.546 48.9374L116.548 48.4181L117.381 46.6941L117.181 46.5955L116.343 48.3246L114.733 47.5301L115.52 45.9048L116.456 46.367L116.554 46.1697L115.618 45.7075L116.451 43.9783L116.255 43.8849L115.417 45.6089L113.772 44.8144L114.559 43.1891L115.299 43.5525L115.392 43.3552L114.656 42.9865L115.052 42.1713L114.852 42.0726L114.456 42.8931L112.847 42.0986L113.633 40.4733L113.911 40.6083L114.009 40.411L111.921 39.3724L112.348 38.4897L112.153 38.391L111.726 39.279L110.117 38.4845L110.903 36.8592L111.417 37.124L111.51 36.9267L109.165 35.7635L109.417 35.2442L109.217 35.1508L108.965 35.67L107.356 34.8755L107.777 33.998L107.582 33.8993L107.16 34.7769L105.587 34.0032L106.399 32.3259L106.204 32.2325L105.392 33.9045L103.782 33.11L104.59 31.438L104.394 31.3393L103.582 33.0166L101.973 32.2221L102.785 30.5448L102.584 30.4462L101.777 32.1234L100.168 31.3289L100.975 29.6517L100.78 29.5582L99.9676 31.2303L98.348 30.4202L99.1604 28.7482L98.9599 28.6495L98.1527 30.3268L96.5383 29.5323L97.3506 27.855L97.1552 27.7564L96.3429 29.4336L94.7491 28.6391L95.5563 26.9619L95.3609 26.8632L94.5486 28.5405L92.9342 27.7719L93.3609 26.8944L93.1604 26.8009L92.7389 27.6785L91.1502 26.858L91.3969 26.3388L91.2016 26.2401L90.9496 26.7594L89.2427 25.9182L89.1913 26.0168L89.0936 25.9649L88.2607 27.6941L86.6515 26.8996L87.0782 26.0116L86.8829 25.9182L86.451 26.8009L85.2171 26.1934L85.1245 26.3907L86.3584 27.0034L85.5718 28.6287L83.9523 27.8343L84.7903 26.1051L84.5898 26.0116L83.7569 27.7356L82.1477 26.9411L82.5436 26.1207L82.3431 26.0272L81.9472 26.8425L81.1091 26.4322L81.0115 26.6295L81.8546 27.045L81.068 28.6703L79.4536 27.8758L80.2917 26.1518L80.0911 26.0532L79.2428 27.7719L78.1734 27.2527L78.0757 27.45L79.1452 27.9693L78.3585 29.5946L76.7544 28.8105L77.5925 27.0865L77.3919 26.9878L76.559 28.7118L75.7262 28.2912L75.6285 28.4885L76.4511 28.8988L75.6645 30.5241L74.0552 29.7296L74.8881 28.0004L74.6927 27.907L73.8598 29.6309L73.3149 29.3661L73.2172 29.5634L73.7622 29.8334L72.9755 31.4588L71.3663 30.6643L71.6799 30.01L71.4845 29.9113L70.2866 32.3934L69.3303 31.9209L69.2326 32.1182L70.1889 32.5908L69.4023 34.2161L67.2172 33.1412L67.1196 33.3385L69.3046 34.4186L68.5283 36.0803L66.3432 35.0002L66.2507 35.2027L68.4306 36.2776L67.644 37.9081L65.4435 36.8072L65.3458 37.0046L67.5309 38.0846L66.7597 39.7151L64.5746 38.6351ZM66.8573 40.0059L68.4717 40.8004L67.6851 42.4257L66.0707 41.6312L66.8573 40.0059ZM72.3688 51.7674L73.9781 52.5619L73.1915 54.1872L71.5822 53.3927L72.3688 51.7674ZM71.3817 53.3252L69.7725 52.5307L70.5591 50.9002L72.1684 51.6947L71.3817 53.3252ZM80.4819 53.5329L82.0911 54.3274L81.3045 55.9527L79.6952 55.1582L80.4819 53.5329ZM79.4999 55.0647L77.8855 54.2547L78.6721 52.6294L80.2814 53.4187L79.4999 55.0647ZM97.4483 50.3498L95.8391 49.5553L96.6257 47.93L98.2349 48.7245L97.4483 50.3498ZM98.4303 48.8179L100.04 49.6124L99.2581 51.2429L97.6437 50.4484L98.4303 48.8179ZM97.3506 50.5471L96.564 52.1776L94.9548 51.3831L95.7414 49.7526L97.3506 50.5471ZM94.7799 51.2845L93.1656 50.49L93.9522 48.8647L95.5666 49.6591L94.7799 51.2845ZM94.6823 51.4818L93.8957 53.1071L92.2864 52.3126L93.073 50.6873L94.6823 51.4818ZM92.0653 52.1776L90.4561 51.3831L91.2427 49.7578L92.8519 50.5471L92.0653 52.1776ZM91.9728 52.3749L91.1862 54.0002L89.5718 53.2161L90.3584 51.5908L91.9728 52.3749ZM90.2607 51.2845L88.6463 50.49L89.4329 48.8647L91.0473 49.6591L90.2607 51.2845ZM90.163 51.4818L89.3764 53.1123L87.7672 52.3178L88.5538 50.6873L90.163 51.4818ZM89.2787 53.3096L88.4921 54.9349L86.8829 54.1404L87.6695 52.5151L89.2787 53.3096ZM87.5667 52.2191L85.9574 51.4247L86.744 49.7994L88.3533 50.5938L87.5667 52.2191ZM87.4741 52.4165L86.6875 54.047L85.0731 53.2525L85.8597 51.622L87.4741 52.4165ZM84.8777 53.1538L83.2685 52.3594L84.0551 50.734L85.6644 51.5285L84.8777 53.1538ZM84.78 53.3512L83.9934 54.9817L82.4099 54.2028L83.1965 52.5723L84.78 53.3512ZM82.2094 54.0885L80.6001 53.294L81.3868 51.6687L82.996 52.4632L82.2094 54.0885ZM82.3071 54.3845L83.9214 55.179L83.1348 56.8043L81.5256 56.0098L82.3071 54.3845ZM84.1168 55.2776L85.7261 56.0721L84.9394 57.6974L83.3302 56.903L84.1168 55.2776ZM84.2145 55.0751L85.0011 53.4498L86.6104 54.2443L85.8237 55.8696L84.2145 55.0751ZM86.7852 54.343L88.3996 55.1374L87.6129 56.7627L86.0088 55.9838L86.7852 54.343ZM88.5949 55.2309L90.2041 56.0254L89.4175 57.6559L87.8083 56.8614L88.5949 55.2309ZM88.6926 55.0336L89.4792 53.4083L91.0885 54.2028L90.3018 55.8281L88.6926 55.0336ZM91.2633 54.2962L92.8725 55.0907L92.091 56.7212L90.4767 55.9267L91.2633 54.2962ZM91.3609 54.0989L92.1784 52.4892L93.7877 53.2837L93.001 54.909L91.3609 54.0989ZM93.9316 53.3667L95.5409 54.156L94.8005 55.8125L93.2067 55.0076L93.9316 53.3667ZM94.0242 53.1642L94.8108 51.5389L96.4252 52.3334L95.6385 53.9587L94.0242 53.1642ZM96.6206 52.432L98.2298 53.2265L97.4432 54.8518L95.8339 54.0574L96.6206 52.432ZM96.7182 52.2295L97.5048 50.6042L99.1141 51.3987L98.3275 53.024L96.7182 52.2295ZM99.2889 51.4974L100.898 52.2918L100.112 53.9172L98.5023 53.1227L99.2889 51.4974ZM99.3866 51.2948L100.173 49.6695L101.782 50.464L100.996 52.0893L99.3866 51.2948ZM101.957 50.5627L103.572 51.3572L102.785 52.9825L101.171 52.188L101.957 50.5627ZM102.055 50.3602L102.842 48.7348L104.451 49.5293L103.664 51.1546L102.055 50.3602ZM101.86 50.2667L100.25 49.4722L101.037 47.8417L102.646 48.6362L101.86 50.2667ZM100.05 49.3736L98.4406 48.5791L99.2272 46.9538L100.919 47.7638L100.05 49.3736ZM98.348 48.496L96.7337 47.7015L97.5203 46.0762L99.1347 46.8707L98.348 48.496ZM96.5383 47.608L94.929 46.8136L95.7157 45.183L97.3249 45.9775L96.5383 47.608ZM96.4406 47.8054L95.654 49.4307L94.0447 48.6362L94.8313 47.0109L96.4406 47.8054ZM93.8699 48.5427L92.2556 47.7482L93.0422 46.1177L94.6566 46.9122L93.8699 48.5427ZM93.7722 48.74L92.9856 50.3654L91.3404 49.5813L92.127 47.9559L93.7722 48.74ZM91.2016 49.4722L89.5923 48.6777L90.379 47.0524L91.9882 47.8469L91.2016 49.4722ZM89.397 48.5843L87.7877 47.7898L88.5692 46.1645L90.1836 46.9538L89.397 48.5843ZM89.2993 48.7816L88.5127 50.4069L86.9034 49.6124L87.6901 47.9871L89.2993 48.7816ZM86.7286 49.5189L85.1194 48.7245L85.906 47.094L87.5152 47.8884L86.7286 49.5189ZM86.6361 49.7163L85.8494 51.3416L84.2402 50.5471L85.0268 48.9218L86.6361 49.7163ZM84.0654 50.4536L82.4562 49.6591L83.1297 48.0235L84.7389 48.8179L84.0654 50.4536ZM83.9677 50.651L83.1862 52.2763L81.5718 51.4818L82.3585 49.8565L83.9677 50.651ZM81.3971 51.3883L79.6541 50.6198L80.4408 48.9893L82.05 49.7838L81.3971 51.3883ZM81.2994 51.5856L80.3791 53.2161L78.7698 52.4217L79.5565 50.7963L81.2994 51.5856ZM78.7287 52.3178L77.1143 51.5285L77.9009 49.898L79.5153 50.6925L78.7287 52.3178ZM78.631 52.5203L77.8444 54.1456L76.2351 53.3512L77.0218 51.7258L78.631 52.5203ZM77.7467 54.343L76.9601 55.9735L75.212 55.179L75.9987 53.5485L77.7467 54.343ZM77.9472 54.4416L79.5565 55.2361L78.6156 56.851L77.0063 56.0565L77.9472 54.4416ZM79.7518 55.3348L81.3611 56.1292L80.5744 57.7546L78.811 56.9601L79.7518 55.3348ZM81.5616 56.2279L83.1708 57.0172L82.3842 58.6477L80.775 57.8532L81.5616 56.2279ZM83.3662 57.1159L84.8263 57.8896L84.0397 59.5149L82.4099 58.7412L83.3662 57.1159ZM85.1759 58.009L86.7852 58.8035L85.9985 60.4288L84.3893 59.6343L85.1759 58.009ZM85.2736 57.8117L86.0602 56.1812L87.6695 56.9757L86.8829 58.601L85.2736 57.8117ZM87.8443 57.0743L89.4587 57.8688L88.672 59.4941L87.0576 58.6996L87.8443 57.0743ZM89.654 57.9675L91.2633 58.7619L90.4767 60.3873L88.8674 59.5928L89.654 57.9675ZM89.7517 57.7649L90.5383 56.1396L92.1476 56.9341L91.3609 58.5594L89.7517 57.7649ZM92.3224 57.0328L93.9316 57.8273L93.0319 59.4474L91.4227 58.6529L92.3224 57.0328ZM92.4201 56.8303L93.2067 55.2049L94.8159 55.9994L94.0293 57.6247L92.4201 56.8303ZM94.9907 56.0981L96.6 56.8926L95.8134 58.5179L94.2041 57.7234L94.9907 56.0981ZM95.0833 55.8956L95.7774 54.2547L97.3866 55.0492L96.6 56.6745L95.0833 55.8956ZM97.654 55.1634L99.2632 55.9579L98.4766 57.5832L96.8056 56.7887L97.654 55.1634ZM97.7465 54.9661L98.5331 53.3356L100.148 54.1301L99.3609 55.7554L97.7465 54.9661ZM100.317 54.2287L101.926 55.0232L101.14 56.6485L99.5305 55.854L100.317 54.2287ZM100.415 54.0314L101.201 52.4009L102.811 53.1954L102.024 54.8259L100.415 54.0314ZM102.986 53.294L104.6 54.0885L103.813 55.7138L102.199 54.9193L102.986 53.294ZM103.083 53.0967L103.87 51.4662L105.479 52.2607L104.692 53.8912L103.083 53.0967ZM103.968 51.2689L104.754 49.6436L106.363 50.4381L105.546 52.0634L103.968 51.2689ZM103.027 48.5427L103.813 46.9122L105.423 47.7067L104.636 49.3372L103.027 48.5427ZM102.826 48.4441L101.217 47.6496L102.004 46.0243L103.613 46.8187L102.826 48.4441ZM101.022 47.5509L99.4123 46.7564L100.199 45.1311L101.808 45.9256L101.022 47.5509ZM99.2118 46.663L97.6025 45.8685L98.3892 44.238L99.9984 45.0325L99.2118 46.663ZM97.4072 45.7698L95.7774 44.9857L96.564 43.3604L98.1784 44.1549L97.4072 45.7698ZM95.5974 44.9078L93.9882 44.1134L94.7748 42.488L96.384 43.2825L95.5974 44.9078ZM95.4997 45.1104L94.7131 46.7357L93.1039 45.9464L93.8905 44.3211L95.4997 45.1104ZM92.9291 45.8425L91.3147 45.048L92.1013 43.4227L93.7157 44.2172L92.9291 45.8425ZM92.8314 46.045L92.0448 47.6704L90.4355 46.8759L91.2222 45.2506L92.8314 46.045ZM90.235 46.7772L88.6052 45.9464L89.3918 44.3211L91.0011 45.1155L90.235 46.7772ZM88.4304 45.8841L86.8212 45.0896L87.6078 43.4643L89.217 44.2587L88.4304 45.8841ZM88.3327 46.0866L87.5512 47.6911L85.942 46.8966L86.7286 45.2713L88.3327 46.0866ZM85.7621 46.8187L84.1477 46.0243L84.9343 44.3989L86.5487 45.1934L85.7621 46.8187ZM85.6644 47.0213L84.8777 48.6466L83.2685 47.8521L84.0551 46.2268L85.6644 47.0213ZM83.0937 47.7534L81.4845 46.959L82.2711 45.3336L83.8803 46.1281L83.0937 47.7534ZM83.0012 47.9559L82.1477 49.5813L80.5333 48.7868L81.3199 47.1615L83.0012 47.9559ZM80.4305 48.6881L78.8212 47.8936L79.6079 46.2683L81.2171 47.0628L80.4305 48.6881ZM80.3328 48.8906L79.5462 50.5159L77.9369 49.7215L78.7236 48.0962L80.3328 48.8906ZM77.7621 49.6228L76.1477 48.8283L76.9344 47.203L78.5487 47.9975L77.7621 49.6228ZM77.6644 49.8253L76.7544 51.4299L75.1555 50.6198L75.9421 48.9945L77.6644 49.8253ZM76.7801 51.648L75.9935 53.2733L74.3843 52.4788L75.1709 50.8535L76.7801 51.648ZM75.901 53.4758L75.1143 55.1011L73.4999 54.3066L74.2866 52.6813L75.901 53.4758ZM76.8264 56.1916L76.0398 57.8169L74.4254 57.0224L75.212 55.3971L76.8264 56.1916ZM77.0218 56.2902L78.631 57.0847L77.8444 58.71L76.122 57.8896L77.0218 56.2902ZM78.8264 57.1782L80.4408 57.9727L79.6541 59.6032L78.0398 58.8087L78.8264 57.1782ZM80.6361 58.0713L82.2454 58.8658L81.3456 60.4859L79.7364 59.6914L80.6361 58.0713ZM82.4459 58.9645L84.0551 59.7589L83.2685 61.3843L81.6592 60.5898L82.4459 58.9645ZM84.2505 59.8524L85.8649 60.6469L84.9806 62.2566L83.3662 61.4621L84.2505 59.8524ZM86.0602 60.7456L87.5512 61.5245L86.7646 63.1498L85.1554 62.3553L86.0602 60.7456ZM86.1579 60.5482L86.8314 58.9281L88.4407 59.7226L87.6541 61.3479L86.1579 60.5482ZM88.7286 59.8109L90.3378 60.6054L89.5512 62.2307L87.942 61.4414L88.7286 59.8109ZM90.5383 60.704L92.1476 61.4985L91.2684 63.0823L89.6592 62.2878L90.5383 60.704ZM90.636 60.5067L91.4175 58.8762L93.0319 59.6707L92.1784 61.2804L90.636 60.5067ZM93.2067 59.7693L94.8159 60.5638L94.0293 62.1891L92.4201 61.3946L93.2067 59.7693ZM93.3044 59.572L94.091 57.9415L95.7002 58.736L94.9136 60.3665L93.3044 59.572ZM95.8751 58.8346L97.4894 59.6291L96.7028 61.2544L95.0884 60.46L95.8751 58.8346ZM95.9727 58.6373L96.7593 57.0068L98.3686 57.8013L97.582 59.4318L95.9727 58.6373ZM98.5691 57.8999L100.178 58.6944L99.3917 60.3197L97.7825 59.5253L98.5691 57.8999ZM98.6617 57.7026L99.4483 56.0773L101.063 56.8718L100.276 58.4971L98.6617 57.7026ZM101.232 56.9653L102.842 57.7598L102.055 59.3851L100.405 58.5698L101.232 56.9653ZM101.33 56.7679L102.117 55.1426L103.726 55.9371L102.939 57.5624L101.33 56.7679ZM103.901 56.0306L105.51 56.8251L104.728 58.4556L103.114 57.6611L103.901 56.0306ZM104.004 55.8125L104.79 54.1872L106.399 54.9817L105.613 56.607L104.004 55.8125ZM104.888 53.9847L105.674 52.3594L107.284 53.1538L106.487 54.774L104.888 53.9847ZM105.767 52.162L106.554 50.5315L108.168 51.326L107.381 52.9565L105.767 52.162ZM106.651 50.3342L107.438 48.7089L109.047 49.5034L108.25 51.1391L106.651 50.3342ZM106.456 50.2355L104.842 49.4411L105.628 47.8157L107.243 48.6102L106.456 50.2355ZM103.921 46.7253L104.703 45.1L106.317 45.8944L105.546 47.5042L103.921 46.7253ZM103.721 46.6266L102.111 45.8321L102.898 44.2068L104.507 45.0013L103.721 46.6266ZM101.916 45.7387L100.302 44.9442L101.088 43.3189L102.703 44.1134L101.916 45.7387ZM100.106 44.8455L98.4971 44.051L99.2838 42.4257L100.893 43.2202L100.106 44.8455ZM98.2966 43.9524L96.6874 43.1579L97.474 41.5326L99.0832 42.3271L98.2966 43.9524ZM96.492 43.0644L94.8828 42.27L95.6643 40.6446L97.2786 41.4339L96.492 43.0644ZM94.6823 42.1713L93.073 41.3768L93.8597 39.7515L95.4689 40.546L94.6823 42.1713ZM94.5846 42.3686L93.798 43.9991L92.1784 43.2046L92.9651 41.5741L94.5846 42.3686ZM92.0139 43.106L90.3738 42.3115L91.1605 40.6862L92.7697 41.4807L92.0139 43.106ZM91.9162 43.3033L91.1296 44.9338L89.5204 44.1393L90.307 42.5088L91.9162 43.3033ZM89.3456 44.0406L87.7312 43.2462L88.5178 41.6209L90.127 42.4153L89.3456 44.0406ZM87.5358 43.1475L85.9266 42.353L86.7132 40.7277L88.3224 41.5222L87.5358 43.1475ZM87.4381 43.35L86.6515 44.9753L84.9806 44.1809L85.7672 42.5555L87.4381 43.35ZM84.8675 44.0822L83.2531 43.2877L84.0397 41.6624L85.6541 42.4569L84.8675 44.0822ZM84.7698 44.2795L83.9831 45.91L82.3739 45.1155L83.1605 43.485L84.7698 44.2795ZM82.1734 45.0169L80.5641 44.2224L81.3508 42.5971L82.96 43.3916L82.1734 45.0169ZM82.0808 45.2142L81.2942 46.8447L79.6798 46.0502L80.4664 44.4197L82.0808 45.2142ZM79.4125 45.9464L77.7827 45.1571L78.5693 43.5318L80.1785 44.3263L79.4125 45.9464ZM79.3148 46.1437L78.5282 47.7742L76.9189 46.9849L77.7056 45.3544L79.3148 46.1437ZM76.7441 46.8811L75.1349 46.0866L75.9164 44.4613L77.5308 45.2558L76.7441 46.8811ZM76.6464 47.0784L75.8598 48.7037L74.2506 47.9092L75.0372 46.2839L76.6464 47.0784ZM75.7262 48.9114L74.9395 50.5367L73.3303 49.7422L74.1169 48.1169L75.7262 48.9114ZM74.847 50.734L74.0604 52.3645L72.446 51.5701L73.2326 49.9396L74.847 50.734ZM74.8881 55.2776L74.1015 56.9081L72.4923 56.1137L73.2789 54.4832L74.8881 55.2776ZM75.8135 57.9986L75.0269 59.6239L73.4177 58.8294L74.2043 57.2041L75.8135 57.9986ZM76.0089 58.0921L77.6182 58.8866L76.8316 60.5171L75.2223 59.7226L76.0089 58.0921ZM77.8187 58.9852L79.4279 59.7797L78.6413 61.405L77.032 60.6105L77.8187 58.9852ZM79.6233 59.8784L81.2376 60.6728L80.451 62.2982L78.8521 61.5245L79.6233 59.8784ZM81.433 60.7663L83.0423 61.5608L82.2557 63.1913L80.6464 62.3968L81.433 60.7663ZM83.2428 61.6595L84.852 62.454L84.0654 64.0793L82.4562 63.2848L83.2428 61.6595ZM85.0474 62.5526L86.6566 63.3471L85.8751 64.9724L84.2608 64.1779L85.0474 62.5526ZM86.8572 63.4406L88.4664 64.235L87.6798 65.8655L86.0705 65.0711L86.8572 63.4406ZM86.9548 63.2432L87.7415 61.6179L89.3507 62.4124L88.5795 64.0377L86.9548 63.2432ZM89.5255 62.5111L91.1347 63.3055L90.3481 64.9309L88.7749 64.1208L89.5255 62.5111ZM91.3352 63.399L92.9445 64.1935L92.1784 65.8188L90.5692 65.0295L91.3352 63.399ZM91.4278 63.2017L92.2144 61.5764L93.8288 62.3709L93.0422 63.9962L91.4278 63.2017ZM93.9985 62.4643L95.6077 63.2588L94.8211 64.8841L93.2735 64.1208L93.9985 62.4643ZM94.0961 62.267L94.8828 60.6417L96.492 61.4362L95.7774 63.0823L94.0961 62.267ZM96.6668 61.5297L98.2812 62.3241L97.4946 63.9546L95.8802 63.1601L96.6668 61.5297ZM96.7645 61.3323L97.5511 59.707L99.1604 60.5015L98.3737 62.1268L96.7645 61.3323ZM99.3352 60.595L100.944 61.3894L100.158 63.02L98.5486 62.2255L99.3352 60.595ZM99.4277 60.3976L100.214 58.7723L101.829 59.5668L101.042 61.1921L99.4277 60.3976ZM102.024 59.6655L103.633 60.4548L102.975 62.0853L101.366 61.2908L102.024 59.6655ZM102.122 59.463L102.908 57.8376L104.518 58.6321L103.731 60.2574L102.122 59.463ZM104.692 58.7308L106.302 59.5253L105.52 61.1506L103.906 60.3561L104.692 58.7308ZM104.79 58.5283L105.577 56.903L107.186 57.6974L106.399 59.3228L104.79 58.5283ZM105.674 56.7056L106.461 55.0751L108.07 55.8696L107.284 57.5001L105.674 56.7056ZM106.554 54.8778L107.34 53.2525L108.955 54.047L108.168 55.6723L106.554 54.8778ZM107.438 53.05L108.225 51.4247L109.834 52.2191L109.047 53.8445L107.438 53.05ZM108.322 51.2274L109.109 49.602L110.718 50.3965L109.931 52.0218L108.322 51.2274ZM107.397 48.5116L108.183 46.8811L109.793 47.6755L109.145 49.3008L107.397 48.5116ZM107.196 48.4129L105.587 47.6184L106.374 45.9931L107.983 46.7876L107.196 48.4129ZM104.79 44.9078L105.577 43.2773L107.186 44.0718L106.399 45.7023L104.79 44.9078ZM104.595 44.8092L102.975 44.0095L103.762 42.3842L105.371 43.1787L104.595 44.8092ZM102.785 43.916L101.176 43.1215L101.962 41.4962L103.572 42.2907L102.785 43.916ZM100.98 43.0229L99.3763 42.2284L100.163 40.5979L101.777 41.3924L100.98 43.0229ZM99.1706 42.1349L97.5614 41.3405L98.348 39.7151L99.9573 40.5096L99.1706 42.1349ZM97.3609 41.2418L95.7774 40.4421L96.564 38.8168L98.1732 39.6113L97.3609 41.2418ZM95.5563 40.3487L93.9471 39.5542L94.7337 37.9289L96.3429 38.7233L95.5563 40.3487ZM93.7465 39.4607L92.1373 38.6766L92.9239 37.0513L94.5332 37.8406L93.7465 39.4607ZM93.6488 39.658L92.8674 41.273L91.253 40.4785L92.0396 38.8532L93.6488 39.658ZM91.0782 40.3954L89.4689 39.6009L90.2556 37.9704L91.8648 38.7649L91.0782 40.3954ZM90.9805 40.5927L90.1939 42.218L88.5795 41.4183L89.3661 39.793L90.9805 40.5927ZM88.4098 41.3301L86.7955 40.5356L87.5821 38.9051L89.1965 39.6996L88.4098 41.3301ZM86.6001 40.4369L84.9909 39.6424L85.7775 38.0171L87.3867 38.8116L86.6001 40.4369ZM86.5024 40.6342L85.7158 42.2596L84.1065 41.4703L84.8932 39.8398L86.5024 40.6342ZM83.9317 41.3716L82.3174 40.5771L83.104 38.9518L84.7183 39.7463L83.9317 41.3716ZM83.8341 41.5689L83.0474 43.1943L81.3816 42.3946L82.1683 40.7693L83.8341 41.5689ZM81.2634 42.3063L79.6541 41.5118L80.4408 39.8865L82.05 40.6758L81.2634 42.3063ZM81.1708 42.5036L80.3842 44.1289L78.6824 43.35L79.4691 41.7247L81.1708 42.5036ZM78.6002 43.241L76.9909 42.4465L77.7775 40.816L79.3868 41.6105L78.6002 43.241ZM78.5025 43.4383L77.7158 45.0636L76.1066 44.2691L76.8932 42.6438L78.5025 43.4383ZM75.9318 44.1757L74.1838 43.376L74.9704 41.7455L76.5796 42.54L75.9318 44.1757ZM75.7262 44.3886L74.9395 46.0139L73.3303 45.2194L74.1169 43.5941L75.7262 44.3886ZM74.8419 46.2164L74.0552 47.8417L72.446 47.0472L73.2069 45.4271L74.8419 46.2164ZM73.937 48.0235L73.1555 49.6436L71.5462 48.8491L72.3329 47.2238L73.937 48.0235ZM73.0527 49.8513L72.266 51.4766L70.6568 50.6821L71.4434 49.0568L73.0527 49.8513ZM70.482 50.5834L68.8676 49.789L69.6542 48.1636L71.2635 48.9581L70.482 50.5834ZM70.3843 50.786L69.5565 52.4061L67.9473 51.6116L68.7288 49.9863L70.3843 50.786ZM71.3097 53.5017L70.5231 55.1271L68.9087 54.3326L69.6954 52.7073L71.3097 53.5017ZM71.5051 53.6004L73.1143 54.3949L72.3277 56.0202L70.7185 55.2257L71.5051 53.6004ZM74.0398 57.1107L73.2532 58.736L71.6131 57.9363L72.3997 56.311L74.0398 57.1107ZM74.9652 59.8265L74.1838 61.4466L72.5745 60.6573L73.3611 59.0268L74.9652 59.8265ZM75.1657 59.9251L76.775 60.7196L75.9884 62.3449L74.3586 61.5245L75.1657 59.9251ZM76.9703 60.8183L78.5796 61.6127L77.7827 63.2329L76.1734 62.4384L76.9703 60.8183ZM78.7801 61.7062L80.3893 62.5007L79.5822 64.1208L77.9729 63.3263L78.7801 61.7062ZM80.5847 62.5993L82.1991 63.3938L81.3816 65.0139L79.7672 64.2195L80.5847 62.5993ZM82.3945 63.4925L84.0037 64.287L83.2171 65.9123L81.6078 65.1178L82.3945 63.4925ZM84.2042 64.3804L85.8135 65.1749L85.0268 66.8054L83.4176 66.0109L84.2042 64.3804ZM86.0088 65.2736L87.6181 66.0681L86.8314 67.6934L85.2222 66.8989L86.0088 65.2736ZM87.8186 66.1667L89.4278 66.9612L88.6412 68.5865L87.0371 67.7868L87.8186 66.1667ZM87.9111 65.9642L88.6977 64.3389L90.3121 65.1334L89.5255 66.7587L87.9111 65.9642ZM90.5075 65.232L92.1167 66.0265L91.3301 67.6518L89.7209 66.8573L90.5075 65.232ZM92.3173 66.1252L93.9265 66.9145L93.1399 68.545L91.5101 67.7557L92.3173 66.1252ZM92.4098 65.9227L93.1964 64.2974L94.8108 65.0918L94.0036 66.7171L92.4098 65.9227ZM95.0062 65.1905L96.6154 65.985L95.8288 67.6103L94.2195 66.8158L95.0062 65.1905ZM95.1039 64.988L95.8905 63.3627L97.4997 64.1572L96.7131 65.7825L95.1039 64.988ZM97.6745 64.2558L99.2838 65.0503L98.5023 66.6756L96.8879 65.8811L97.6745 64.2558ZM97.7722 64.0533L98.5588 62.428L100.168 63.2225L99.3763 64.8426L97.7722 64.0533ZM100.343 63.3211L101.952 64.1156L101.165 65.7409L99.5562 64.9464L100.343 63.3211ZM100.435 63.1186L101.222 61.4933L102.831 62.2878L102.045 63.9131L100.435 63.1186ZM103.006 62.3864L104.615 63.1809L103.829 64.8062L102.219 64.0118L103.006 62.3864ZM103.104 62.1839L103.885 60.5586L105.5 61.3531L104.713 62.9784L103.104 62.1839ZM105.674 61.4517L107.284 62.2462L106.574 63.8664L104.96 63.0823L105.674 61.4517ZM105.772 61.2544L106.559 59.6239L108.168 60.4184L107.453 62.0437L105.772 61.2544ZM106.728 59.4474L107.515 57.8221L109.124 58.6165L108.338 60.2419L106.728 59.4474ZM107.608 57.6196L108.394 55.9942L110.003 56.7887L109.217 58.4088L107.608 57.6196ZM108.492 55.7969L109.279 54.1716L110.888 54.9609L110.101 56.5914L108.492 55.7969ZM109.376 53.9691L110.163 52.3438L111.772 53.1383L110.985 54.7636L109.376 53.9691ZM110.255 52.1465L111.042 50.5159L112.651 51.3104L111.87 52.9357L110.255 52.1465ZM109.33 49.4255L110.117 47.8002L111.731 48.5947L110.944 50.22L109.33 49.4255ZM108.404 46.7097L109.191 45.0844L110.805 45.8789L110.019 47.5042L108.404 46.7097ZM108.209 46.611L106.6 45.8166L107.387 44.1912L108.996 44.9857L108.209 46.611ZM105.674 43.1008L106.461 41.4755L108.07 42.27L107.284 43.8693L105.674 43.1008ZM105.479 43.0021L103.865 42.2076L104.651 40.5823L106.261 41.3768L105.479 43.0021ZM103.669 42.1142L102.06 41.273L102.847 39.6424L104.456 40.4369L103.669 42.1142ZM101.86 41.221L100.25 40.4265L101.037 38.8012L102.646 39.5957L101.86 41.221ZM100.055 40.3279L98.4406 39.5334L99.2272 37.9081L100.842 38.7026L100.055 40.3279ZM98.2452 39.4347L96.636 38.6454L97.4226 37.0149L99.0318 37.8094L98.2452 39.4347ZM96.4406 38.5468L94.8262 37.7523L95.6128 36.127L97.2221 36.9215L96.4406 38.5468ZM94.6309 37.6381L93.0216 36.8436L93.8082 35.2183L95.4175 36.0127L94.6309 37.6381ZM92.8211 36.7449L91.2119 35.9504L91.9985 34.3251L93.6077 35.1196L92.8211 36.7449ZM92.7286 36.9474L91.9419 38.5727L90.3276 37.7783L91.1142 36.153L92.7286 36.9474ZM90.1219 37.6692L88.5127 36.8747L89.2993 35.2494L90.9085 36.0439L90.1219 37.6692ZM90.0242 37.8717L89.2376 39.497L87.6284 38.7026L88.415 37.0773L90.0242 37.8717ZM87.4535 38.6039L85.8392 37.8094L86.6258 36.1841L88.2402 36.9786L87.4535 38.6039ZM85.6438 37.716L84.0345 36.9215L84.8212 35.291L86.4201 36.0803L85.6438 37.716ZM85.5461 37.9133L84.7595 39.5386L83.1502 38.7441L83.9523 37.1188L85.5461 37.9133ZM82.924 38.6766L81.3148 37.8821L82.0963 36.2516L83.7107 37.0461L82.924 38.6766ZM82.8263 38.8739L82.0397 40.4992L80.4305 39.7048L81.2171 38.0794L82.8263 38.8739ZM80.23 39.6061L78.6207 38.8116L79.4073 37.1863L81.0166 37.9808L80.23 39.6061ZM80.1374 39.8086L79.3508 41.4339L77.7827 40.6135L78.5693 38.9882L80.1374 39.8086ZM77.5668 40.5408L75.9524 39.7151L76.739 38.0898L78.3482 38.8843L77.5668 40.5408ZM77.4691 40.7433L76.6876 42.3686L75.0732 41.5741L75.8598 39.9488L77.4691 40.7433ZM74.8984 41.4755L73.2892 40.681L74.0758 39.0557L75.685 39.8502L74.8984 41.4755ZM74.8007 41.678L74.0141 43.3033L72.4048 42.5088L73.1555 40.8575L74.8007 41.678ZM73.9215 43.5006L73.1349 45.1259L71.5205 44.3366L72.3071 42.7061L73.9215 43.5006ZM73.0372 45.3284L72.2506 46.9538L70.6414 46.1593L71.428 44.534L73.0372 45.3284ZM72.1272 47.1251L71.3406 48.7556L69.7314 47.9611L70.518 46.3306L72.1272 47.1251ZM69.5565 47.8625L67.9422 47.068L68.7288 45.4427L70.3432 46.2372L69.5565 47.8625ZM69.4589 48.0598L68.6723 49.6903L67.063 48.8958L67.8496 47.2653L69.4589 48.0598ZM68.5746 49.8876L67.7879 51.5129L66.1787 50.7185L66.9653 49.0931L68.5746 49.8876ZM69.5 52.6034L68.6928 54.2547L67.0836 53.4602L67.8702 51.8297L69.5 52.6034ZM70.4254 55.3244L69.6388 56.9497L68.0141 56.1552L68.8008 54.5299L70.4254 55.3244ZM70.6208 55.4178L72.2352 56.2123L71.4486 57.8376L69.8342 57.0484L70.6208 55.4178ZM73.1555 58.9281L72.3688 60.5534L70.7545 59.7589L71.5411 58.1336L73.1555 58.9281ZM74.0758 61.6439L73.2892 63.2692L71.6799 62.4747L72.4665 60.8494L74.0758 61.6439ZM74.2763 61.7426L75.8855 62.537L75.0989 64.1623L73.4897 63.3679L74.2763 61.7426ZM76.0809 62.6305L77.6953 63.425L76.9087 65.0503L75.2943 64.261L76.0809 62.6305ZM77.8907 63.5236L79.4999 64.3181L78.7133 65.9434L77.0886 65.1593L77.8907 63.5236ZM79.7004 64.4168L81.3096 65.2113L80.523 66.8366L78.9138 66.0421L79.7004 64.4168ZM81.505 65.3047L83.1194 66.0992L82.3174 67.7557L80.703 66.9612L81.505 65.3047ZM83.3148 66.1979L84.924 66.9924L84.1374 68.6177L82.5281 67.8232L83.3148 66.1979ZM85.1194 67.091L86.7337 67.8855L85.9471 69.5108L84.3327 68.7163L85.1194 67.091ZM86.9291 67.979L88.5384 68.7734L87.7517 70.404L86.1425 69.6095L86.9291 67.979ZM88.7389 68.8721L90.3481 69.6666L89.5615 71.2919L87.9523 70.4974L88.7389 68.8721ZM88.8314 68.6748L89.6181 67.0443L91.2324 67.8388L90.4458 69.4693L88.8314 68.6748ZM91.4021 67.9374L93.0113 68.7319L92.235 70.352L90.636 69.5679L91.4021 67.9374ZM93.2118 68.8306L94.8211 69.6251L94.0344 71.2504L92.4252 70.4559L93.2118 68.8306ZM93.3044 68.6281L94.091 67.0027L95.7054 67.7972L94.9188 69.4225L93.3044 68.6281ZM95.8751 67.8959L97.4843 68.6904L96.6977 70.3157L95.0884 69.5212L95.8751 67.8959ZM95.9727 67.6986L96.7593 66.0681L98.3686 66.8625L97.582 68.4879L95.9727 67.6986ZM98.5434 66.9612L100.153 67.7557L99.366 69.381L97.8339 68.5917L98.5434 66.9612ZM98.6411 66.7639L99.4277 65.1334L101.037 65.9279L100.25 67.5584L98.6411 66.7639ZM101.212 66.0265L102.826 66.821L102.04 68.4463L100.425 67.6518L101.212 66.0265ZM101.309 65.8292L102.096 64.1987L103.705 64.9932L102.975 66.6289L101.309 65.8292ZM103.906 65.0918L105.515 65.8863L104.728 67.5116L103.196 66.7171L103.906 65.0918ZM104.004 64.8945L104.785 63.2692L106.399 64.0585L105.69 65.6786L104.004 64.8945ZM106.574 64.1572L108.183 64.9516L107.397 66.577L105.788 65.7825L106.574 64.1572ZM106.672 63.9598L107.458 62.3345L109.145 63.1342L108.358 64.7595L106.672 63.9598ZM107.551 62.132L108.338 60.5067L109.952 61.3012L109.165 62.9265L107.551 62.132ZM108.435 60.3094L109.222 58.6789L110.831 59.4733L110.045 61.1038L108.435 60.3094ZM109.32 58.4815L110.106 56.8562L111.716 57.6507L110.929 59.276L109.32 58.4815ZM110.199 56.6537L110.985 55.0284L112.6 55.8229L111.813 57.4482L110.199 56.6537ZM111.083 54.8311L111.87 53.2058L113.479 54.0002L112.692 55.6256L111.083 54.8311ZM111.967 53.0032L112.754 51.3779L114.363 52.1724L113.577 53.7977L111.967 53.0032ZM111.042 50.2875L111.829 48.6622L113.438 49.4566L112.744 51.0871L111.042 50.2875ZM110.117 47.5717L110.903 45.9412L112.512 46.7357L111.726 48.3662L110.117 47.5717ZM109.191 44.8507L109.978 43.2254L111.587 44.0199L110.8 45.6452L109.191 44.8507ZM108.996 44.7572L107.387 43.9628L108.168 42.3323L109.782 43.1267L108.996 44.7572ZM106.574 41.273L107.361 39.6476L108.97 40.4421L108.183 42.0674L106.574 41.273ZM106.374 41.1795L104.764 40.385L105.546 38.7285L107.155 39.523L106.374 41.1795ZM104.569 40.2863L102.955 39.4919L103.741 37.8665L105.356 38.661L104.569 40.2863ZM102.759 39.3932L101.15 38.5987L101.937 36.9734L103.546 37.7679L102.759 39.3932ZM100.919 38.4793L99.3095 37.6848L100.096 36.0543L101.705 36.8488L100.919 38.4793ZM99.1141 37.5861L97.5048 36.7917L98.2915 35.1663L99.9007 35.9608L99.1141 37.5861ZM97.3198 36.693L95.7105 35.8985L96.4972 34.2732L98.1064 35.0677L97.3198 36.693ZM95.5152 35.7998L93.9008 35.0106L94.6874 33.38L96.3018 34.1745L95.5152 35.7998ZM93.7208 34.9119L92.1116 34.1174L92.8982 32.4921L94.5075 33.2866L93.7208 34.9119ZM91.8957 34.0032L90.2864 33.2087L91.073 31.5834L92.6926 32.3934L91.8957 34.0032ZM91.8031 34.2005L91.0165 35.831L89.4021 35.0417L90.1887 33.4164L91.8031 34.2005ZM89.2325 34.9379L87.6232 34.1434L88.4098 32.5181L90.0191 33.3126L89.2325 34.9379ZM89.1348 35.1352L88.3481 36.7657L86.7389 35.9712L87.5255 34.3407L89.1348 35.1352ZM86.5641 35.8726L84.9549 35.0781L85.7415 33.4528L87.3507 34.2472L86.5641 35.8726ZM84.7543 34.9794L83.1451 34.1849L83.9317 32.5596L85.541 33.3541L84.7543 34.9794ZM84.6567 35.1819L83.8752 36.8072L82.2608 36.0127L83.0474 34.3874L84.6567 35.1819ZM82.086 35.9141L80.4767 35.1196L81.2634 33.4943L82.8726 34.2888L82.086 35.9141ZM81.9883 36.1166L81.2017 37.7419L79.5924 36.9474L80.3791 35.3221L81.9883 36.1166ZM79.4176 36.8488L77.7158 36.0803L78.5025 34.4549L80.1168 35.2494L79.4176 36.8488ZM79.3199 37.0461L78.4459 38.6766L76.8367 37.8821L77.6233 36.2568L79.3199 37.0461ZM76.7236 37.7835L75.1143 36.989L75.901 35.3637L77.5102 36.1581L76.7236 37.7835ZM76.631 37.9808L75.8444 39.6113L74.23 38.8168L75.0166 37.1863L76.631 37.9808ZM74.0347 38.7181L72.4254 37.9237L73.212 36.2984L74.8213 37.0928L74.0347 38.7181ZM73.937 38.9155L73.1503 40.546L71.5411 39.7515L72.3277 38.121L73.937 38.9155ZM72.9704 40.7537L72.1838 42.379L70.5848 41.5897L71.3715 39.9644L72.9704 40.7537ZM72.0861 42.5815L71.2995 44.2068L69.6902 43.4123L70.4768 41.787L72.0861 42.5815ZM71.2018 44.3886L70.4151 46.0139L68.8059 45.2194L69.5925 43.5941L71.2018 44.3886ZM68.6311 45.1259L66.9859 44.3522L67.7725 42.7269L69.3869 43.5162L68.6311 45.1259ZM68.5334 45.3232L67.7262 46.9849L66.117 46.1904L66.9036 44.5651L68.5334 45.3232ZM67.6491 47.1511L66.8625 48.7764L65.2327 48.0235L66.0193 46.3981L67.6491 47.1511ZM66.77 48.9737L65.9576 50.6198L64.3432 49.8253L65.1299 48.1948L66.77 48.9737ZM67.6902 51.6947L66.9036 53.32L65.2944 52.5255L66.081 50.9002L67.6902 51.6947ZM68.6157 54.4105L67.8291 56.0358L66.2198 55.2413L67.0064 53.616L68.6157 54.4105ZM69.5411 57.1262L68.7545 58.7516L67.1453 57.9571L67.9113 56.3318L69.5411 57.1262ZM69.7416 57.2249L71.3509 58.0194L70.5643 59.6447L68.955 58.8502L69.7416 57.2249ZM72.2763 60.7352L71.4897 62.3605L69.8805 61.566L70.6671 59.9407L72.2763 60.7352ZM73.2018 63.4509L72.4151 65.0815L70.8059 64.287L71.5925 62.6617L73.2018 63.4509ZM73.3971 63.5496L75.0064 64.3441L74.1838 65.9902L72.5745 65.1957L73.3971 63.5496ZM75.2069 64.4427L76.8161 65.2372L76.0295 66.8625L74.4203 66.0681L75.2069 64.4427ZM77.0115 65.3359L78.6259 66.1304L77.8187 67.7557L76.2043 66.9612L77.0115 65.3359ZM78.8212 66.2238L80.4305 67.0183L79.6438 68.6436L78.0346 67.8492L78.8212 66.2238ZM80.631 67.117L82.2402 67.9115L81.4536 69.5368L79.8392 68.7631L80.631 67.117ZM82.4356 68.0101L84.0448 68.8046L83.2582 70.4299L81.649 69.6354L82.4356 68.0101ZM84.2454 68.8981L85.8546 69.6926L85.068 71.3179L83.4382 70.5494L84.2454 68.8981ZM86.0088 69.8328L87.6232 70.6272L86.8366 72.2526L85.2222 71.4581L86.0088 69.8328ZM87.8186 70.7259L89.4278 71.5204L88.6412 73.1457L87.0371 72.3304L87.8186 70.7259ZM89.6283 71.6139L91.2376 72.4083L90.451 74.0388L88.8417 73.2444L89.6283 71.6139ZM89.7209 71.4165L90.5075 69.7912L92.1219 70.5857L91.3352 72.211L89.7209 71.4165ZM92.2915 70.6792L93.9008 71.4737L93.1142 73.1042L91.5049 72.3097L92.2915 70.6792ZM94.1013 71.5723L95.7105 72.3668L94.9702 73.9869L93.3609 73.1924L94.1013 71.5723ZM94.1938 71.375L94.9805 69.7497L96.5897 70.539L95.8031 72.1695L94.1938 71.375ZM96.7645 70.6376L98.3737 71.4321L97.5871 73.0574L95.9779 72.2629L96.7645 70.6376ZM96.8622 70.4403L97.6437 68.815L99.2581 69.6095L98.4714 71.2348L96.8622 70.4403ZM99.4328 69.7029L101.042 70.4974L100.255 72.1227L98.6462 71.3283L99.4328 69.7029ZM99.5305 69.5056L100.405 67.8595L102.014 68.654L101.227 70.2793L99.5305 69.5056ZM102.101 68.7683L103.716 69.5628L102.929 71.1932L101.433 70.378L102.101 68.7683ZM102.199 68.5709L102.986 66.9456L104.595 67.7401L103.808 69.3654L102.199 68.5709ZM104.77 67.8336L106.379 68.6281L105.592 70.2586L103.983 69.4641L104.77 67.8336ZM104.862 67.6362L105.649 66.0109L107.263 66.8054L106.476 68.4307L104.862 67.6362ZM107.433 66.9041L109.042 67.6934L108.42 69.3135L106.811 68.519L107.433 66.9041ZM107.53 66.7016L108.317 65.0763L109.926 65.8707L109.14 67.4961L107.53 66.7016ZM108.41 64.8789L109.196 63.2484L110.811 64.0429L110.173 65.6786L108.41 64.8789ZM109.294 63.0511L110.081 61.4258L111.69 62.2203L110.903 63.8456L109.294 63.0511ZM110.178 61.2233L110.965 59.598L112.574 60.3925L111.788 62.0178L110.178 61.2233ZM111.057 59.4006L111.844 57.7701L113.458 58.5646L112.672 60.1951L111.057 59.4006ZM111.942 57.5728L112.728 55.9475L114.338 56.742L113.551 58.3673L111.942 57.5728ZM112.826 55.745L113.772 54.0989L115.381 54.8934L114.595 56.5187L112.826 55.745ZM113.705 53.9223L114.492 52.297L116.106 53.0915L115.32 54.7168L113.705 53.9223ZM112.785 51.2066L113.572 49.5761L115.181 50.3705L114.394 52.0011L112.785 51.2066ZM111.859 48.4856L112.646 46.8603L114.255 47.6548L113.469 49.2801L111.859 48.4856ZM110.934 45.7698L111.721 44.1445L113.33 44.939L112.543 46.5643L110.934 45.7698ZM110.009 43.054L110.795 41.4235L112.404 42.218L111.618 43.8485L110.009 43.054ZM109.808 42.9554L108.199 42.1609L108.985 40.5356L110.595 41.3301L109.808 42.9554ZM107.273 39.4451L108.06 37.8146L109.674 38.6091L109.052 40.2344L107.273 39.4451ZM107.078 39.3465L105.469 38.552L106.255 36.9267L107.865 37.7211L107.078 39.3465ZM105.268 38.4533L103.824 37.6381L104.61 36.0127L106.219 36.8072L105.268 38.4533ZM103.464 37.5654L101.849 36.7709L102.636 35.1404L104.25 35.9349L103.464 37.5654ZM101.654 36.6722L100.045 35.8777L100.831 34.2524L102.441 35.0469L101.654 36.6722ZM99.8442 35.7791L98.2349 34.9846L99.0215 33.3593L100.631 34.1538L99.8442 35.7791ZM98.0396 34.8911L96.4303 34.0966L97.2169 32.4661L98.8262 33.2606L98.0396 34.8911ZM96.3943 34.0032L94.7851 33.2087L95.5717 31.5834L97.1809 32.3779L96.3943 34.0032ZM94.5897 33.11L92.9753 32.3156L93.762 30.6902L95.3763 31.4847L94.5897 33.11ZM92.78 32.2221L91.1502 31.4068L91.9368 29.7763L93.546 30.5708L92.78 32.2221ZM90.9702 31.3289L89.361 30.5345L90.1476 28.9091L91.7568 29.7036L90.9702 31.3289ZM90.8777 31.5263L90.0911 33.1516L88.4818 32.3571L89.2633 30.7318L90.8777 31.5263ZM88.2813 32.2636L86.672 31.4691L87.4587 29.8438L89.0679 30.6383L88.2813 32.2636ZM88.1836 32.4609L87.397 34.0863L85.7878 33.2918L86.5744 31.6665L88.1836 32.4609ZM85.6129 33.1983L84.0037 32.4038L84.7903 30.7733L86.3996 31.5678L85.6129 33.1983ZM83.8032 32.3052L82.194 31.5107L82.9806 29.8854L84.5898 30.6799L83.8032 32.3052ZM83.7055 32.5025L82.924 34.107L81.3096 33.3126L82.0963 31.682L83.7055 32.5025ZM81.1348 33.2399L79.4845 32.4454L80.2711 30.8201L81.8803 31.6145L81.1348 33.2399ZM81.0372 33.4372L80.2094 35.0417L78.6002 34.2472L79.3868 32.6167L81.0372 33.4372ZM78.4665 34.1745L76.8521 33.38L77.6387 31.7548L79.2531 32.5492L78.4665 34.1745ZM78.3688 34.3719L77.5822 35.9972L75.9729 35.2027L76.7596 33.5774L78.3688 34.3719ZM75.7981 35.1092L74.1889 34.3147L74.9755 32.6894L76.5847 33.4787L75.7981 35.1092ZM75.7056 35.3066L74.919 36.9319L73.3046 36.1374L74.0912 34.5121L75.7056 35.3066ZM73.1349 36.0439L71.5257 35.2494L72.3123 33.6189L73.9215 34.4134L73.1349 36.0439ZM73.0372 36.2412L72.1272 37.8406L70.518 37.0461L71.3046 35.4208L73.0372 36.2412ZM72.1581 38.0691L71.3715 39.6944L69.7571 38.8999L70.5437 37.2746L72.1581 38.0691ZM71.2738 39.8917L70.4871 41.5222L68.8779 40.7277L69.6645 39.0972L71.2738 39.8917ZM70.3894 41.7195L69.6028 43.3448L67.9936 42.5503L68.7802 40.925L70.3894 41.7195ZM66.0913 41.8597L67.7005 42.6542L66.9139 44.2795L65.3047 43.485L66.0913 41.8597ZM65.207 43.6824L66.8162 44.4768L66.0296 46.1073L64.4204 45.3129L65.207 43.6824ZM64.3227 45.5102L65.9371 46.3047L65.1504 47.93L63.536 47.1355L64.3227 45.5102ZM62.6569 48.9633L63.4435 47.338L65.0527 48.1325L64.2661 49.7578L62.6569 48.9633ZM63.5823 51.6791L64.3689 50.0538L65.9782 50.8483L65.1916 52.4736L63.5823 51.6791ZM64.5077 54.3949L65.2944 52.7696L66.9036 53.5641L66.117 55.1894L64.5077 54.3949ZM65.428 57.1159L66.2147 55.4905L67.8291 56.2798L66.9293 57.8896L65.428 57.1159ZM66.3535 59.8316L67.1401 58.2063L68.7545 59.0008L67.9679 60.6261L66.3535 59.8316ZM68.1632 60.7248L68.9499 59.0995L70.5591 59.8888L69.7725 61.5193L68.1632 60.7248ZM69.0887 63.4406L69.8753 61.8152L71.4845 62.6097L70.5848 64.2091L69.0887 63.4406ZM70.0141 66.1563L70.8007 64.531L72.41 65.3255L71.6234 66.9508L70.0141 66.1563ZM71.8187 67.0495L72.6054 65.4242L74.2197 66.2187L73.4331 67.844L71.8187 67.0495ZM73.6285 67.9426L74.4151 66.3121L76.0244 67.1066L75.2377 68.7371L73.6285 67.9426ZM75.4382 68.8306L76.2248 67.2053L77.8341 67.9997L77.0475 69.6251L75.4382 68.8306ZM77.2429 69.7237L78.0295 68.0984L79.6387 68.8929L78.8572 70.5182L77.2429 69.7237ZM79.0526 70.6169L79.8392 68.9864L81.4485 69.7808L80.5487 71.3906L79.0526 70.6169ZM80.8623 71.5048L81.6438 69.8795L83.2582 70.674L82.4716 72.2993L80.8623 71.5048ZM82.667 72.398L83.4536 70.7726L85.0628 71.5671L84.2762 73.1924L82.667 72.398ZM84.4767 73.2911L85.2633 71.6658L86.8726 72.4603L86.086 74.0856L84.4767 73.2911ZM86.2813 74.1842L87.0679 72.5537L88.6823 73.3482L87.8957 74.9735L86.2813 74.1842ZM88.0911 75.0722L88.8777 73.4469L90.4869 74.2414L89.6078 75.8407L88.0911 75.0722ZM91.5101 76.7598L89.9008 75.9653L90.6823 74.34L92.2967 75.1345L91.5101 76.7598ZM90.78 74.1375L91.5666 72.5122L93.1759 73.3067L92.3944 74.932L90.78 74.1375ZM92.5897 75.0307L93.3764 73.4053L94.9856 74.1998L94.199 75.8251L92.5897 75.0307ZM96.0087 76.7183L94.3943 75.9238L95.181 74.2933L96.7953 75.0878L96.0087 76.7183ZM95.2787 74.1219L96.0653 72.4966L97.6745 73.2911L96.8879 74.9164L95.2787 74.1219ZM98.6976 75.8096L97.0884 75.0151L97.875 73.3846L99.4843 74.179L98.6976 75.8096ZM97.8339 73.1353L98.6205 71.51L100.235 72.3045L99.4483 73.9298L97.8339 73.1353ZM101.253 74.8229L99.6437 74.0285L100.43 72.4032L102.04 73.1924L101.253 74.8229ZM100.528 72.2006L101.315 70.5753L102.924 71.3698L102.137 72.9951L100.528 72.2006ZM103.947 73.8883L102.333 73.0938L103.119 71.4685L104.734 72.2629L103.947 73.8883ZM103.217 71.266L104.004 69.6406L105.613 70.4351L104.826 72.0604L103.217 71.266ZM106.636 72.9536L105.032 72.1591L105.818 70.5338L107.428 71.3283L106.636 72.9536ZM105.926 70.352L106.713 68.7267L108.327 69.5212L107.541 71.1465L105.926 70.352ZM109.345 72.0397L107.736 71.2452L108.523 69.6199L110.132 70.4143L109.345 72.0397ZM110.23 70.2118L108.631 69.3966L109.417 67.7713L111.027 68.5657L110.23 70.2118ZM111.114 68.3892L109.5 67.5947L110.286 65.9694L111.901 66.7639L111.114 68.3892ZM111.993 66.5614L110.384 65.7669L111.171 64.1416L112.78 64.9361L111.993 66.5614ZM112.877 64.7387L111.268 63.9443L112.055 62.3137L113.664 63.1082L112.877 64.7387ZM113.762 62.9109L112.147 62.1164L112.934 60.4911L114.548 61.2856L113.762 62.9109ZM114.641 61.0831L113.032 60.2886L113.818 58.6633L115.428 59.4578L114.641 61.0831ZM115.525 59.2604L113.916 58.466L114.703 56.8407L116.312 57.6299L115.525 59.2604ZM116.41 57.4326L114.8 56.6174L115.587 54.9921L117.201 55.7865L116.41 57.4326ZM118.075 53.9795L117.289 55.61L115.679 54.774L116.466 53.1434L118.075 53.9795ZM117.15 51.2637L116.343 52.8682L114.733 52.0737L115.52 50.4484L117.15 51.2637ZM116.224 48.5479L115.438 50.1732L113.829 49.3787L114.615 47.7534L116.224 48.5479ZM115.314 45.8062L114.528 47.4367L112.913 46.6422L113.7 45.0117L115.314 45.8062ZM114.389 43.0904L113.602 44.7157L111.988 43.9212L112.744 42.3115L114.389 43.0904ZM113.464 40.3746L112.677 41.9999L111.063 41.2054L111.849 39.5801L113.464 40.3746ZM111.654 39.4815L110.867 41.1068L109.258 40.3123L110.045 38.687L111.654 39.4815ZM110.728 36.7657L109.942 38.391L108.333 37.5965L109.119 35.9712L110.728 36.7657ZM108.924 35.8726L108.117 37.4979L106.502 36.7034L107.289 35.0781L108.924 35.8726ZM107.088 34.9794L106.317 36.5995L104.708 35.805L105.495 34.1745L107.088 34.9794ZM105.279 34.0915L104.518 35.7168L102.908 34.9223L103.695 33.297L105.279 34.0915ZM103.489 33.1983L102.703 34.8236L101.094 34.0291L101.875 32.4038L103.489 33.1983ZM101.68 32.3052L100.919 33.9357L99.3095 33.1412L100.096 31.5107L101.68 32.3052ZM99.8904 31.4068L99.1038 33.0321L97.4894 32.2377L98.2761 30.6124L99.8904 31.4068ZM98.0807 30.5137L97.2941 32.139L95.6848 31.3445L96.4714 29.7192L98.0807 30.5137ZM96.2709 29.6205L95.4843 31.2511L93.8751 30.4566L94.6617 28.8261L96.2709 29.6205ZM94.4663 28.7326L93.6643 30.3683L92.0499 29.5738L92.8365 27.9485L94.4663 28.7326ZM92.6566 27.8395L91.87 29.4648L90.2607 28.6703L91.0473 27.045L92.6566 27.8395ZM89.2376 26.1518L90.8468 26.9463L90.0653 28.5768L88.4355 27.7719L89.2376 26.1518ZM89.9677 28.7741L89.181 30.3994L87.5512 29.6153L88.3379 27.99L89.9677 28.7741ZM86.523 27.0969L88.1322 27.8914L87.3456 29.5167L85.7363 28.7222L86.523 27.0969ZM87.253 29.7192L86.4664 31.3445L84.852 30.55L85.6387 28.9247L87.253 29.7192ZM85.4536 28.8105L84.6669 30.4358L83.0577 29.6413L83.8443 28.016L85.4536 28.8105ZM82.0346 27.1281L83.6438 27.9173L82.8572 29.5479L81.2479 28.7534L82.0346 27.1281ZM82.7646 29.7244L81.978 31.4068L80.3534 30.5916L81.14 28.9663L82.7646 29.7244ZM79.3251 28.0731L80.9343 28.8676L80.1477 30.4981L78.5384 29.7036L79.3251 28.0731ZM80.05 30.6954L79.2634 32.3208L77.6542 31.5263L78.4408 29.901L80.05 30.6954ZM76.631 29.0078L78.2454 29.8023L77.4588 31.4328L75.8444 30.6383L76.631 29.0078ZM77.3611 31.6301L76.5745 33.2554L74.9858 32.4454L75.7724 30.8201L77.3611 31.6301ZM73.9421 29.9425L75.5513 30.737L74.7647 32.3623L73.1555 31.573L73.9421 29.9425ZM74.6722 32.5648L73.8855 34.1901L72.2763 33.3956L73.0578 31.7703L74.6722 32.5648ZM71.2738 30.8876L72.883 31.682L72.0964 33.3074L70.4871 32.5129L71.2738 30.8876ZM70.3894 32.7154L71.9987 33.5099L71.212 35.1352L69.6028 34.3407L70.3894 32.7154ZM69.5051 34.5224L71.1195 35.3169L70.3329 36.9474L68.7237 36.153L69.5051 34.5224ZM68.626 36.3503L70.2352 37.1448L69.4486 38.7701L67.8393 37.9756L68.626 36.3503ZM67.7416 38.1781L69.3509 38.9726L68.5643 40.5979L66.955 39.8034L67.7416 38.1781Z" fill="white"/>
<path d="M65.6028 27.9847L68.0706 27.6524C68.4474 27.6022 68.83 27.6775 69.1607 27.8666C69.4913 28.0558 69.7518 28.3486 69.9029 28.7008C70.054 29.0529 70.0874 29.4452 69.998 29.8182C69.9086 30.1912 69.7012 30.5246 69.4074 30.768C69.2737 30.877 69.1503 30.9965 69.0218 31.1055C75.7775 25.3105 85.9882 23.4151 95.9161 26.3698C82.924 22.4077 69.0115 25.6947 58.7597 26.7333L57.4795 27.7718L60.153 28.7013C61.8856 28.4832 63.7108 28.2391 65.6028 27.9847Z" fill="#3F8EE7"/>
<path d="M54.5906 46.4914C59.3875 54.7582 65.0583 64.806 74.1791 71.3177C65.7627 65.2215 60.971 55.9317 61.3257 46.9899C61.3257 47.1613 61.3257 47.3326 61.3257 47.5092C61.3136 47.8908 61.1794 48.2582 60.9431 48.5562C60.7068 48.8543 60.3812 49.0669 60.0151 49.1623C59.6491 49.2576 59.2623 49.2305 58.9127 49.0851C58.5632 48.9397 58.2697 48.6837 58.0764 48.3556C57.6445 47.6234 57.2281 46.8964 56.8168 46.185C55.8245 44.4818 54.8682 42.8358 53.9222 41.2831L54.1536 43.3602L53.4492 43.6043L54.5906 46.4914Z" fill="#3F8EE7"/>
<path d="M64.1078 37.1187C63.9021 37.4874 63.7067 37.8613 63.5216 38.2456C63.3366 38.6298 63.1618 39.0141 63.0075 39.4087C62.9612 39.5178 62.9201 39.6372 62.8738 39.7514C62.7659 40.0267 62.6528 40.3071 62.5551 40.5927L62.4317 40.9717C62.3443 41.2469 62.2569 41.5222 62.1746 41.7974C62.1438 41.922 62.1129 42.0466 62.0769 42.1712C62.005 42.4516 61.9278 42.7372 61.8661 43.0228C61.8661 43.1371 61.8199 43.2565 61.7942 43.3708C61.7325 43.6719 61.6759 43.9731 61.6245 44.2743L61.5782 44.5754C61.5319 44.8974 61.4857 45.2193 61.4548 45.5413C61.4548 45.6244 61.4548 45.7075 61.4291 45.7905C61.3983 46.1367 61.3725 46.4829 61.352 46.8291C61.352 46.8862 61.352 46.9433 61.352 47.0056C60.9664 56.3265 66.19 66.0316 75.285 72.0967L75.321 72.1227C75.7272 72.3927 76.1385 72.642 76.5549 72.9068C76.9662 73.156 77.3827 73.3949 77.8094 73.6286L77.9071 73.6805C78.3355 73.9194 78.7726 74.1478 79.2181 74.3659C93.9892 81.6357 110.981 77.2946 117.094 64.6556C123.207 52.0166 116.159 35.7998 101.382 28.5145C100.935 28.2912 100.483 28.0835 100.035 27.8861L99.9583 27.8498C99.5127 27.6525 99.0603 27.4655 98.601 27.289C98.1434 27.1124 97.6858 26.9463 97.2231 26.7697H97.1923C86.8633 23.2595 76.0716 25.0613 69.028 31.1056L68.8943 31.2199C68.6321 31.4483 68.3802 31.682 68.1231 31.9261L67.9483 32.0922C67.717 32.3207 67.4907 32.5544 67.2697 32.788C67.1977 32.8607 67.1309 32.9334 67.064 33.0113C66.8584 33.2346 66.6578 33.4683 66.4625 33.702C66.3854 33.7902 66.3082 33.8785 66.2363 33.972C66.0512 34.1953 65.8764 34.4289 65.7221 34.6678C65.6501 34.7665 65.5679 34.8703 65.4959 34.9742C65.3262 35.2026 65.1669 35.4467 65.0075 35.6856C64.9355 35.7946 64.8584 35.9037 64.7864 36.0179C64.627 36.2671 64.4728 36.5372 64.3237 36.7864L64.1078 37.1187ZM100.493 30.3682C114.246 37.1499 120.868 52.11 115.254 63.7157C109.639 75.3214 93.8915 79.2522 80.1385 72.4706C66.3854 65.6889 59.789 50.7496 65.3777 39.1387C70.9663 27.5279 86.7399 23.6177 100.493 30.3682Z" fill="#F94F06"/>
<path d="M49.5713 45.8684L46.4865 46.0605V45.3076L44.4762 44.887C40.1524 45.9255 36.4198 47.1147 33.772 48.9996L30.7386 46.0138C32.5638 43.2669 33.6486 39.4191 34.5792 34.9689L32.8671 37.2382L32.3118 35.6803C31.2836 40.2603 30.0754 43.9886 27.9623 46.1748L25.3916 48.8438L31.0933 54.4623L33.664 51.7933C36.5843 48.7659 42.5123 47.3951 49.5713 45.8684Z" fill="#3F8EE7"/>
<path d="M24.7404 49.1606C24.8636 49.0375 25.0299 48.9685 25.2031 48.9685C25.3764 48.9685 25.5426 49.0375 25.6658 49.1606L30.7712 54.1923C30.8321 54.2535 30.8805 54.3264 30.9135 54.4066C30.9465 54.4868 30.9635 54.5728 30.9635 54.6596C30.9635 54.7465 30.9465 54.8325 30.9135 54.9127C30.8805 54.9929 30.8321 55.0657 30.7712 55.127L10.0207 76.6091C9.96052 76.6705 9.88884 76.7192 9.80986 76.7525C9.73088 76.7858 9.64616 76.8029 9.56059 76.8029C9.47502 76.8029 9.3903 76.7858 9.31132 76.7525C9.23234 76.7192 9.16067 76.6705 9.10045 76.6091L3.98995 71.5774C3.86813 71.453 3.7998 71.285 3.7998 71.1101C3.7998 70.9351 3.86813 70.7671 3.98995 70.6427L24.7404 49.1606Z" fill="#203878"/>
</svg>
