<svg width="192" height="100" viewBox="0 0 192 100" fill="none" xmlns="http://www.w3.org/2000/svg">
<path d="M170.75 7.7771L190.617 95.5021H146.975L170.75 7.7771Z" fill="#3F8EE7"/>
<g style="mix-blend-mode:color-burn" opacity="0.2">
<path d="M110.075 95.502C110.075 95.502 163.724 95.502 181.316 54.4771L190.608 95.502H110.075Z" fill="#203878"/>
</g>
<path d="M146.975 95.5021H1.06671L24.8417 7.7771H170.75L146.975 95.5021Z" fill="#C7E4FE"/>
<path d="M51.2334 82.5438H11.0334L29.5834 14.0771H69.7917L51.2334 82.5438Z" fill="#F94F06"/>
<path d="M82.2412 53.4938H65.2912L75.9745 14.0771H92.9245L82.2412 53.4938Z" fill="#203878"/>
<path d="M105.375 53.4938H88.4251L99.1084 14.0771H116.058L105.375 53.4938Z" fill="#203878"/>
<path d="M144.033 82.5438H103.691L122.241 14.0771H162.591L144.033 82.5438Z" fill="#F94F06"/>
<path d="M145.013 48.1536C142.628 57.0526 140.022 63.4701 137.195 67.4062C134.425 71.2139 130.936 73.1178 126.728 73.1178C122.52 73.1178 120.043 71.2032 119.298 67.3741C118.546 63.6519 119.423 57.1167 121.929 47.7685C124.434 38.4203 127.061 31.8852 129.808 28.163C132.59 24.3125 136.085 22.3872 140.293 22.3872C144.19 22.3872 146.617 24.0772 147.571 27.4571C148.607 31.0295 147.754 37.9283 145.013 48.1536ZM137.97 48.1536C139.977 40.6665 141.033 35.4897 141.137 32.6232C141.235 29.7781 140.409 28.3555 138.66 28.3555C136.91 28.3555 135.313 29.7674 133.87 32.5911C132.449 35.4148 130.755 40.4953 128.788 47.8327C126.821 55.1701 125.789 60.2613 125.691 63.1064C125.62 65.9302 126.46 67.342 128.21 67.342C129.937 67.342 131.509 65.9409 132.924 63.1385C134.327 60.4646 136.01 55.4696 137.97 48.1536Z" fill="white"/>
<path d="M52.2805 48.1536C49.8952 57.0526 47.2892 63.4701 44.4624 67.4062C41.6921 71.2139 38.2031 73.1178 33.9951 73.1178C29.7872 73.1178 27.3106 71.2032 26.5652 67.3741C25.8133 63.6519 26.6902 57.1167 29.1959 47.7685C31.7016 38.4203 34.3281 31.8852 37.0754 28.163C39.8571 24.3125 43.3519 22.3872 47.5598 22.3872C51.4577 22.3872 53.8838 24.0772 54.8382 27.4571C55.8738 31.0295 55.0213 37.9283 52.2805 48.1536ZM45.2378 48.1536C47.2446 40.6665 48.3 35.4897 48.404 32.6232C48.5021 29.7781 47.6764 28.3555 45.9268 28.3555C44.1772 28.3555 42.5807 29.7674 41.1373 32.5911C39.716 35.4148 38.022 40.4953 36.0553 47.8327C34.0886 55.1701 33.0561 60.2613 32.9579 63.1064C32.8876 65.9302 33.7272 67.342 35.4769 67.342C37.2043 67.342 38.7758 65.9409 40.1914 63.1385C41.5946 60.4646 43.2768 55.4696 45.2378 48.1536Z" fill="white"/>
<path d="M82.96 37.3831C81.9876 41.0106 80.9253 43.6267 79.773 45.2312C78.6437 46.7834 77.2215 47.5595 75.5061 47.5595C73.7908 47.5595 72.7812 46.779 72.4774 45.2181C72.1709 43.7008 72.5283 41.0368 73.5498 37.2261C74.5712 33.4154 75.6419 30.7514 76.7618 29.2341C77.8957 27.6645 79.3203 26.8796 81.0356 26.8796C82.6246 26.8796 83.6136 27.5685 84.0026 28.9463C84.4248 30.4026 84.0772 33.2148 82.96 37.3831ZM80.0891 37.3831C80.9072 34.331 81.3374 32.2207 81.3798 31.0522C81.4198 29.8924 81.0832 29.3126 80.37 29.3126C79.6568 29.3126 79.006 29.8881 78.4176 31.0391C77.8382 32.1902 77.1477 34.2612 76.3459 37.2523C75.5442 40.2433 75.1234 42.3187 75.0833 43.4784C75.0547 44.6295 75.3969 45.205 76.1101 45.205C76.8143 45.205 77.4549 44.6339 78.032 43.4915C78.604 42.4015 79.2897 40.3653 80.0891 37.3831Z" fill="white"/>
<path d="M106.094 37.3831C105.122 41.0106 104.059 43.6267 102.907 45.2312C101.778 46.7834 100.355 47.5595 98.6401 47.5595C96.9247 47.5595 95.9152 46.779 95.6113 45.2181C95.3048 43.7008 95.6623 41.0368 96.6837 37.2261C97.7051 33.4154 98.7758 30.7514 99.8957 29.2341C101.03 27.6645 102.454 26.8796 104.17 26.8796C105.758 26.8796 106.747 27.5685 107.137 28.9463C107.559 30.4026 107.211 33.2148 106.094 37.3831ZM103.223 37.3831C104.041 34.331 104.471 32.2207 104.514 31.0522C104.554 29.8924 104.217 29.3126 103.504 29.3126C102.791 29.3126 102.14 29.8881 101.551 31.0391C100.972 32.1902 100.282 34.2612 99.4799 37.2523C98.6781 40.2433 98.2573 42.3187 98.2172 43.4784C98.1886 44.6295 98.5308 45.205 99.2441 45.205C99.9482 45.205 100.589 44.6339 101.166 43.4915C101.738 42.4015 102.424 40.3653 103.223 37.3831Z" fill="white"/>
<path d="M37.6957 21.0553C38.486 20.365 38.6995 19.3164 38.1727 18.7133C37.6458 18.1102 36.5781 18.181 35.7878 18.8713C34.9976 19.5617 34.784 20.6102 35.3109 21.2133C35.8377 21.8164 36.9055 21.7457 37.6957 21.0553Z" fill="white"/>
<path d="M59.5131 20.1173C60.3001 19.4247 60.5097 18.3764 59.9811 17.7758C59.4526 17.1752 58.3861 17.2497 57.5991 17.9423C56.8121 18.6349 56.6026 19.6832 57.1311 20.2838C57.6597 20.8844 58.7261 20.8099 59.5131 20.1173Z" fill="white"/>
<path d="M83.8245 21.0512C84.6147 20.3608 84.8283 19.3123 84.3014 18.7092C83.7746 18.1061 82.7068 18.1768 81.9166 18.8672C81.1263 19.5575 80.9128 20.6061 81.4396 21.2092C81.9665 21.8123 83.0342 21.7415 83.8245 21.0512Z" fill="white"/>
<path d="M106.954 21.0566C107.745 20.3662 107.958 19.3176 107.431 18.7145C106.904 18.1114 105.837 18.1822 105.046 18.8726C104.256 19.5629 104.043 20.6115 104.569 21.2146C105.096 21.8177 106.164 21.7469 106.954 21.0566Z" fill="white"/>
<path d="M130.093 21.0539C130.883 20.3635 131.097 19.3149 130.57 18.7119C130.043 18.1088 128.976 18.1795 128.185 18.8699C127.395 19.5602 127.181 20.6088 127.708 21.2119C128.235 21.815 129.303 21.7442 130.093 21.0539Z" fill="white"/>
<path d="M153.223 21.0595C154.013 20.3691 154.227 19.3206 153.7 18.7175C153.173 18.1144 152.105 18.1851 151.315 18.8755C150.525 19.5658 150.311 20.6144 150.838 21.2175C151.365 21.8206 152.433 21.7498 153.223 21.0595Z" fill="white"/>
<path d="M37.5835 19.9852C33.2168 19.9852 30.6335 16.4436 31.8168 12.0769C33.0001 7.71022 37.5001 4.17689 41.8668 4.17689C43.0462 4.11112 44.2173 4.4102 45.2207 5.03344C46.2242 5.65668 47.0113 6.57385 47.4752 7.66022" stroke="#1D1D1D" stroke-width="1.66667" stroke-linecap="round" stroke-linejoin="round"/>
<path d="M60.5746 19.9854C56.2079 19.9854 53.6329 16.4438 54.8079 12.0771C55.9829 7.71042 60.4912 4.17709 64.8579 4.17709C66.0401 4.10781 67.2148 4.40521 68.2216 5.02868C69.2284 5.65214 70.0181 6.57125 70.4829 7.66042" stroke="#1D1D1D" stroke-width="1.66667" stroke-linecap="round" stroke-linejoin="round"/>
<path d="M83.6996 19.9854C79.3329 19.9854 76.7579 16.4437 77.9413 12.077C79.1246 7.71036 83.6246 4.17703 87.9829 4.17703C89.1635 4.11073 90.3359 4.40947 91.3408 5.03267C92.3456 5.65588 93.1343 6.57332 93.5996 7.66036" stroke="#1D1D1D" stroke-width="1.66667" stroke-linecap="round" stroke-linejoin="round"/>
<path d="M106.842 19.9855C102.475 19.9855 99.9 16.4439 101.083 12.0772C102.267 7.71054 106.758 4.17721 111.083 4.17721C112.263 4.11022 113.435 4.40879 114.438 5.03218C115.442 5.65557 116.229 6.57343 116.692 7.66054" stroke="#1D1D1D" stroke-width="1.66667" stroke-linecap="round" stroke-linejoin="round"/>
<path d="M129.975 19.9855C125.608 19.9855 123.033 16.4439 124.217 12.0772C125.4 7.71054 129.892 4.17721 134.217 4.17721C135.396 4.11022 136.568 4.40879 137.571 5.03218C138.575 5.65557 139.362 6.57343 139.825 7.66054" stroke="#1D1D1D" stroke-width="1.66667" stroke-linecap="round" stroke-linejoin="round"/>
<path d="M153.108 19.9854C148.75 19.9854 146.167 16.4437 147.35 12.0771C148.533 7.71041 153.033 4.17708 157.35 4.17708C158.533 4.10604 159.71 4.40261 160.718 5.02618C161.727 5.64976 162.518 6.56984 162.983 7.66041" stroke="#1D1D1D" stroke-width="1.66667" stroke-linecap="round" stroke-linejoin="round"/>
</svg>
