<svg width="195" height="120" viewBox="0 0 195 120" fill="none" xmlns="http://www.w3.org/2000/svg">
<path d="M96.0103 94.3967L76.8663 77.9454L52.2526 102.27L56.1122 67.4697L33.2624 69.2454L46.2974 50.8481L26.668 35.1427L54.9146 36.3508L41.2485 2.58051L70.8949 21.9994L88.7524 4.8751L90.8481 28.3319L117.42 24.4562L96.6252 44.1427L130.843 57.9994L94.8856 64.567L96.0103 94.3967Z" fill="#C7E4FE"/>
<path d="M102.12 55.5265L101.966 55.8346L105.405 57.513L104.167 60.0589L100.728 58.3724L100.582 58.6887L104.013 60.3671L102.775 62.8887L99.3443 61.267L99.1906 61.5752L102.629 63.2616L101.391 65.7995L97.9526 64.1211L97.7988 64.4292L101.238 66.1076L99.9997 68.6535L98.4947 67.9157L98.3491 68.2238L99.8459 68.9616L97.9607 72.8292L98.2762 72.9833L98.7698 71.9616L101.302 73.2022L100.064 75.74L99.2553 75.3265L99.1016 75.6346L99.9592 76.0562L98.6323 78.7076L98.9478 78.8616L100.259 76.1698L102.791 77.4103L101.521 79.9157L100.226 79.2833L100.073 79.5914L101.367 80.2238L100.056 82.9238L100.372 83.0698L101.683 80.3779L104.215 81.6184L102.977 84.1562L101.294 83.3454L101.141 83.6616L102.824 84.4724L101.513 87.213L101.82 87.367L103.139 84.667L105.672 85.9076L104.434 88.4454L103.115 87.8049L102.961 88.113L104.28 88.7616L103.657 90.0346L103.972 90.1887L104.596 88.9076L107.128 90.1481L105.817 92.8481L106.125 93.0022L107.436 90.3022L109.976 91.5427L108.738 94.0806L106.796 93.1319L106.643 93.44L108.585 94.3968L107.913 95.7752L108.22 95.9292L108.892 94.5427L111.433 95.7833L110.114 98.4833L110.268 98.5562L110.195 98.7103L112.881 100.032L112.485 100.843L112.8 100.997L113.197 100.186L115.729 101.427L115.066 102.797L115.373 102.951L116.037 101.581L118.577 102.821L117.299 105.44L117.606 105.594L118.885 102.975L121.417 104.216L120.147 106.835L120.454 106.981L121.733 104.362L124.265 105.602L122.987 108.221L123.303 108.375L124.573 105.756L127.105 106.997L125.835 109.616L126.143 109.77L127.421 107.151L129.954 108.391L128.675 111.01L128.991 111.156L130.261 108.545L132.802 109.778L131.523 112.348L131.831 112.502L133.109 109.883L135.642 111.124L134.371 113.743L134.679 113.897L135.957 111.278L138.49 112.518L137.818 113.889L138.134 114.035L138.797 112.672L141.33 113.913L140.942 114.724L141.249 114.87L141.646 114.059L145.343 115.867L145.489 115.559L144.68 115.145L145.918 112.599L148.45 113.84L147.779 115.226L148.086 115.381L148.766 113.994L152.043 115.616L152.197 115.308L151.76 115.089L152.998 112.551L155.53 113.791L154.907 115.072L155.223 115.218L155.846 113.945L157.003 114.513L157.157 114.205L155.991 113.629L157.229 111.091L159.77 112.332L158.451 115.032L158.767 115.178L160.077 112.486L161.55 113.208L161.704 112.891L160.231 112.178L161.469 109.632L164.002 110.872L162.691 113.572L162.998 113.718L164.309 111.027L165.927 111.797L166.081 111.489L164.463 110.718L165.701 108.172L168.234 109.413L166.923 112.113L167.23 112.259L168.549 109.567L169.706 110.135L169.86 109.827L168.695 109.259L169.933 106.713L172.465 107.954L171.972 108.975L172.279 109.129L174.172 105.254L175.483 105.902L175.637 105.594L174.318 104.945L175.556 102.408L177.668 103.437L177.822 103.129L175.71 102.099L176.948 99.5535L180.387 101.24L180.532 100.924L177.102 99.2454L178.34 96.7076L181.77 98.386L181.924 98.0779L178.485 96.3914L179.723 93.8535L183.162 95.54L183.316 95.2238L179.877 93.5454L181.115 90.9995L184.554 92.686L184.707 92.3779L181.269 90.6914L182.507 88.1535L185.937 89.8319L186.091 89.5238L182.652 87.8373L183.89 85.2995L186.002 86.3373L186.156 86.0211L184.044 84.9914L185.282 82.4535L186.601 83.0941L186.746 82.786L185.436 82.1373L187.321 78.2697L187.005 78.1157L186.512 79.1373L183.979 77.8968L185.217 75.3589L186.374 75.9265L186.528 75.6103L185.363 75.0427L186.682 72.3508L186.366 72.1968L185.055 74.8968L182.523 73.6562L183.761 71.1103L185.33 71.9211L185.484 71.613L183.914 70.8022L185.225 68.1103L184.91 67.9562L183.591 70.6562L181.058 69.4157L182.296 66.8779L183.769 67.5995L183.922 67.2914L182.45 66.5698L183.761 63.8697L183.453 63.7238L182.134 66.4157L179.545 65.1752L180.783 62.6373L181.948 63.2049L182.094 62.8968L180.937 62.3211L181.56 61.0481L181.244 60.8941L180.621 62.1751L178.089 60.9346L179.327 58.3968L179.764 58.6076L179.917 58.2995L176.632 56.6779L177.304 55.2995L176.996 55.1454L176.325 56.5319L173.792 55.2914L175.03 52.7535L175.839 53.1671L175.985 52.8589L172.295 51.0427L172.692 50.2319L172.376 50.086L171.98 50.8968L169.447 49.6562L170.111 48.286L169.803 48.1319L169.14 49.5022L166.664 48.2941L167.942 45.6751L167.635 45.5292L166.356 48.14L163.824 46.8995L165.094 44.2887L164.787 44.1346L163.508 46.7535L160.976 45.513L162.254 42.8941L161.938 42.74L160.668 45.3589L158.136 44.1184L159.406 41.4995L159.098 41.3535L157.82 43.9643L155.271 42.6995L156.55 40.0887L156.234 39.9346L154.964 42.5535L152.423 41.313L153.702 38.6941L153.394 38.54L152.116 41.1589L149.607 39.9184L150.878 37.2995L150.57 37.1454L149.292 39.7643L146.751 38.5643L147.423 37.1941L147.107 37.0481L146.444 38.4184L143.943 37.1373L144.332 36.3265L144.024 36.1724L143.628 36.9832L140.942 35.6697L140.861 35.8238L140.707 35.7427L139.396 38.4427L136.864 37.2022L137.535 35.8157L137.228 35.6697L136.548 37.0481L134.606 36.0995L134.46 36.4076L136.402 37.3643L135.164 39.9022L132.616 38.6616L133.935 35.9616L133.619 35.8157L132.308 38.5076L129.776 37.267L130.399 35.986L130.083 35.84L129.46 37.113L128.141 36.4725L127.987 36.7805L129.314 37.4292L128.076 39.9671L125.536 38.7265L126.855 36.0346L126.539 35.8806L125.204 38.5643L123.521 37.7535L123.367 38.0616L125.05 38.8725L123.812 41.4103L121.288 40.186L122.607 37.4941L122.291 37.34L120.98 40.0319L119.67 39.3752L119.516 39.6833L120.81 40.3238L119.573 42.8616L117.04 41.6211L118.351 38.9211L118.043 38.7752L116.732 41.467L115.875 41.0535L115.721 41.3616L116.579 41.7833L115.341 44.3211L112.808 43.0806L113.302 42.0589L112.994 41.9049L111.109 45.7806L109.604 45.0427L109.45 45.3508L110.955 46.0887L109.717 48.6265L106.279 46.9481L106.125 47.2562L109.564 48.9427L108.342 51.5373L104.903 49.8508L104.757 50.167L108.188 51.8454L106.95 54.3914L103.487 52.6724L103.333 52.9806L106.772 54.667L105.558 57.213L102.12 55.5265ZM105.712 57.667L108.253 58.9076L107.015 61.4454L104.474 60.2049L105.712 57.667ZM114.386 76.0319L116.919 77.2724L115.681 79.8103L113.148 78.5697L114.386 76.0319ZM112.832 78.4643L110.3 77.2238L111.538 74.6779L114.07 75.9184L112.832 78.4643ZM127.154 78.7887L129.687 80.0292L128.449 82.567L125.916 81.3265L127.154 78.7887ZM125.609 81.1806L123.068 79.9157L124.306 77.3779L126.838 78.6103L125.609 81.1806ZM153.855 73.8184L151.323 72.5779L152.561 70.04L155.093 71.2806L153.855 73.8184ZM155.401 71.4265L157.933 72.667L156.703 75.213L154.163 73.9725L155.401 71.4265ZM153.702 74.1265L152.464 76.6725L149.931 75.4319L151.169 72.886L153.702 74.1265ZM149.656 75.2779L147.115 74.0373L148.353 71.4995L150.894 72.74L149.656 75.2779ZM149.502 75.586L148.264 78.1238L145.732 76.8833L146.97 74.3454L149.502 75.586ZM145.384 76.6725L142.851 75.4319L144.089 72.8941L146.622 74.1265L145.384 76.6725ZM145.238 76.9806L144 79.5184L141.459 78.2941L142.697 75.7562L145.238 76.9806ZM142.544 75.2779L140.003 74.0373L141.241 71.4995L143.782 72.74L142.544 75.2779ZM142.39 75.586L141.152 78.1319L138.619 76.8914L139.857 74.3454L142.39 75.586ZM140.998 78.44L139.76 80.9779L137.228 79.7373L138.466 77.1995L140.998 78.44ZM138.304 76.7373L135.771 75.4968L137.009 72.9589L139.542 74.1995L138.304 76.7373ZM138.158 77.0454L136.92 79.5914L134.38 78.3508L135.618 75.8049L138.158 77.0454ZM134.072 78.1968L131.54 76.9562L132.777 74.4184L135.31 75.6589L134.072 78.1968ZM133.918 78.5049L132.68 81.0508L130.188 79.8346L131.426 77.2887L133.918 78.5049ZM129.873 79.6562L127.34 78.4157L128.578 75.8778L131.111 77.1184L129.873 79.6562ZM130.026 80.1184L132.567 81.3589L131.329 83.8968L128.797 82.6562L130.026 80.1184ZM132.875 81.513L135.407 82.7535L134.169 85.2914L131.637 84.0508L132.875 81.513ZM133.028 81.1968L134.266 78.6589L136.799 79.8995L135.561 82.4373L133.028 81.1968ZM137.074 80.0535L139.615 81.2941L138.377 83.8319L135.852 82.6157L137.074 80.0535ZM139.922 81.44L142.455 82.6806L141.217 85.2265L138.684 83.986L139.922 81.44ZM140.076 81.1319L141.314 78.5941L143.846 79.8346L142.608 82.3724L140.076 81.1319ZM144.121 79.9805L146.654 81.2211L145.424 83.767L142.884 82.5265L144.121 79.9805ZM144.275 79.6725L145.562 77.1589L148.094 78.3995L146.856 80.9373L144.275 79.6725ZM148.321 78.5292L150.853 79.7616L149.688 82.3481L147.18 81.0914L148.321 78.5292ZM148.467 78.213L149.704 75.6751L152.245 76.9157L151.007 79.4535L148.467 78.213ZM152.553 77.0697L155.085 78.3103L153.847 80.8481L151.315 79.6076L152.553 77.0697ZM152.706 76.7535L153.944 74.2157L156.477 75.4562L155.239 77.9941L152.706 76.7535ZM156.752 75.6103L159.285 76.8508L158.047 79.3887L155.514 78.1481L156.752 75.6103ZM156.906 75.2941L158.144 72.7562L160.676 73.9968L159.438 76.5346L156.906 75.2941ZM160.951 74.1508L163.492 75.3914L162.254 77.9292L159.713 76.6887L160.951 74.1508ZM161.105 73.8346L162.343 71.2968L164.876 72.5373L163.638 75.0752L161.105 73.8346ZM160.798 73.6887L158.265 72.4481L159.503 69.9022L162.036 71.1427L160.798 73.6887ZM157.949 72.2941L155.417 71.0535L156.655 68.5157L159.317 69.7806L157.949 72.2941ZM155.271 70.9238L152.731 69.6833L153.969 67.1454L156.509 68.386L155.271 70.9238ZM152.423 69.5373L149.891 68.2968L151.129 65.7508L153.661 66.9914L152.423 69.5373ZM152.269 69.8454L151.031 72.3833L148.499 71.1427L149.737 68.6049L152.269 69.8454ZM148.224 70.9968L145.683 69.7562L146.921 67.2103L149.462 68.4508L148.224 70.9968ZM148.07 71.3049L146.832 73.8427L144.243 72.6184L145.481 70.0806L148.07 71.3049ZM144.024 72.4481L141.492 71.2076L142.73 68.6698L145.262 69.9103L144.024 72.4481ZM141.184 71.0616L138.652 69.8211L139.882 67.2833L142.422 68.5157L141.184 71.0616ZM141.031 71.3697L139.793 73.9076L137.26 72.667L138.498 70.1292L141.031 71.3697ZM136.985 72.5211L134.452 71.2806L135.69 68.7346L138.223 69.9751L136.985 72.5211ZM136.839 72.8292L135.601 75.3671L133.069 74.1265L134.307 71.5887L136.839 72.8292ZM132.794 73.9806L130.261 72.74L131.321 70.186L133.854 71.4265L132.794 73.9806ZM132.64 74.2887L131.41 76.8265L128.869 75.586L130.107 73.0481L132.64 74.2887ZM128.594 75.44L125.851 74.24L127.089 71.6941L129.622 72.9346L128.594 75.44ZM128.441 75.7481L126.992 78.2941L124.46 77.0535L125.698 74.5157L128.441 75.7481ZM124.395 76.8914L121.854 75.6589L123.092 73.113L125.633 74.3535L124.395 76.8914ZM124.241 77.2076L123.003 79.7454L120.471 78.5049L121.709 75.967L124.241 77.2076ZM122.849 80.0535L121.612 82.5995L118.86 81.3589L120.098 78.813L122.849 80.0535ZM123.165 80.2076L125.698 81.4481L124.217 83.9697L121.684 82.7292L123.165 80.2076ZM126.005 81.6022L128.538 82.8427L127.3 85.3806L124.524 84.14L126.005 81.6022ZM128.853 82.9968L131.386 84.2292L130.148 86.7751L127.615 85.5346L128.853 82.9968ZM131.693 84.3833L133.991 85.5914L132.753 88.1292L130.188 86.9211L131.693 84.3833ZM134.541 85.7779L137.074 87.0184L135.836 89.5562L133.303 88.3157L134.541 85.7779ZM134.695 85.4698L135.933 82.9238L138.466 84.1643L137.228 86.7022L134.695 85.4698ZM138.741 84.3184L141.281 85.5589L140.043 88.0968L137.503 86.8562L138.741 84.3184ZM141.589 85.713L144.121 86.9535L142.884 89.4914L140.351 88.2508L141.589 85.713ZM141.743 85.3968L142.981 82.8589L145.513 84.0995L144.275 86.6373L141.743 85.3968ZM145.788 84.2535L148.321 85.4941L146.905 88.0238L144.372 86.7833L145.788 84.2535ZM145.942 83.9373L147.18 81.3995L149.713 82.64L148.475 85.1778L145.942 83.9373ZM149.988 82.7941L152.52 84.0346L151.282 86.5724L148.75 85.3319L149.988 82.7941ZM150.133 82.4779L151.226 79.9157L153.758 81.1562L152.52 83.6941L150.133 82.4779ZM154.179 81.3346L156.712 82.5752L155.474 85.113L152.844 83.8725L154.179 81.3346ZM154.325 81.0265L155.563 78.4806L158.103 79.7211L156.865 82.2589L154.325 81.0265ZM158.37 79.8752L160.903 81.1157L159.665 83.6535L157.132 82.413L158.37 79.8752ZM158.524 79.5671L159.762 77.0211L162.294 78.2616L161.057 80.8076L158.524 79.5671ZM162.57 78.4157L165.11 79.6562L163.872 82.1941L161.332 80.9535L162.57 78.4157ZM162.723 78.1076L163.961 75.5616L166.494 76.8022L165.256 79.3481L162.723 78.1076ZM164.115 75.2535L165.353 72.7157L167.886 73.9562L166.599 76.4941L164.115 75.2535ZM162.634 70.9968L163.872 68.4508L166.405 69.6914L165.167 72.2373L162.634 70.9968ZM162.319 70.8427L159.786 69.6022L161.024 67.0643L163.557 68.3049L162.319 70.8427ZM159.479 69.4481L156.946 68.2076L158.184 65.6697L160.717 66.9103L159.479 69.4481ZM156.631 68.0616L154.098 66.8211L155.336 64.2751L157.869 65.5157L156.631 68.0616ZM153.791 66.667L151.226 65.4427L152.464 62.9049L155.004 64.1454L153.791 66.667ZM150.942 65.3211L148.41 64.0806L149.648 61.5427L152.18 62.7833L150.942 65.3211ZM150.789 65.6373L149.551 68.1751L147.018 66.9427L148.256 64.4049L150.789 65.6373ZM146.743 66.7805L144.202 65.54L145.44 63.0022L147.981 64.2427L146.743 66.7805ZM146.589 67.0968L145.351 69.6346L142.819 68.3941L144.057 65.8562L146.589 67.0968ZM142.503 68.24L139.938 66.9427L141.176 64.4049L143.709 65.6454L142.503 68.24ZM139.663 66.8454L137.131 65.6049L138.369 63.067L140.901 64.3076L139.663 66.8454ZM139.509 67.1616L138.28 69.667L135.747 68.4265L136.985 65.8887L139.509 67.1616ZM135.464 68.3049L132.923 67.0643L134.161 64.5265L136.702 65.767L135.464 68.3049ZM135.31 68.6211L134.072 71.1589L131.54 69.9184L132.777 67.3806L135.31 68.6211ZM131.264 69.7644L128.732 68.5238L129.97 65.986L132.502 67.2265L131.264 69.7644ZM131.119 70.0806L129.776 72.6184L127.235 71.3779L128.473 68.84L131.119 70.0806ZM127.073 71.2238L124.541 69.9833L125.779 67.4454L128.311 68.686L127.073 71.2238ZM126.919 71.54L125.681 74.0778L123.149 72.8373L124.387 70.2995L126.919 71.54ZM122.874 72.6833L120.333 71.4427L121.571 68.9049L124.112 70.1454L122.874 72.6833ZM122.72 72.9995L121.288 75.5049L118.771 74.24L120.009 71.7022L122.72 72.9995ZM121.328 75.8454L120.09 78.3832L117.558 77.1427L118.796 74.6049L121.328 75.8454ZM119.945 78.6995L118.707 81.2373L116.166 79.9968L117.404 77.4589L119.945 78.6995ZM121.401 82.94L120.163 85.4778L117.622 84.2373L118.86 81.6995L121.401 82.94ZM121.709 83.0941L124.241 84.3346L123.003 86.8724L120.293 85.5914L121.709 83.0941ZM124.549 84.4806L127.089 85.7211L125.851 88.267L123.311 87.0265L124.549 84.4806ZM127.397 85.8752L129.929 87.1157L128.513 89.6454L125.981 88.4049L127.397 85.8752ZM130.245 87.2698L132.777 88.5103L131.54 91.0481L129.007 89.8076L130.245 87.2698ZM133.085 88.6562L135.626 89.8968L134.234 92.4103L131.693 91.1698L133.085 88.6562ZM135.933 90.0508L138.28 91.267L137.042 93.8049L134.509 92.5643L135.933 90.0508ZM136.087 89.7427L137.147 87.213L139.679 88.4535L138.441 90.9914L136.087 89.7427ZM140.132 88.5914L142.665 89.8319L141.427 92.3697L138.895 91.1373L140.132 88.5914ZM142.981 89.986L145.513 91.2265L144.13 93.6995L141.597 92.4589L142.981 89.986ZM143.134 89.6779L144.364 87.1319L146.905 88.3724L145.562 90.886L143.134 89.6779ZM147.18 88.5265L149.713 89.767L148.475 92.3049L145.942 91.0643L147.18 88.5265ZM147.334 88.2184L148.572 85.6725L151.104 86.913L149.866 89.4589L147.334 88.2184ZM151.379 87.0671L153.92 88.3076L152.682 90.8454L150.141 89.6049L151.379 87.0671ZM151.533 86.7589L152.771 84.213L155.304 85.4535L154.066 87.9995L151.533 86.7589ZM155.619 85.6076L158.152 86.8481L156.914 89.386L154.381 88.1454L155.619 85.6076ZM155.765 85.2995L157.003 82.7616L159.543 84.0022L158.305 86.54L155.765 85.2995ZM159.81 84.1481L162.343 85.3887L161.105 87.9265L158.508 86.6535L159.81 84.1481ZM159.964 83.84L161.202 81.3022L163.735 82.5427L162.497 85.0806L159.964 83.84ZM164.01 82.6887L166.542 83.9292L165.313 86.4752L162.772 85.2346L164.01 82.6887ZM164.172 82.3481L165.41 79.8103L167.942 81.0508L166.704 83.5887L164.172 82.3481ZM165.563 79.4941L166.801 76.9562L169.334 78.1968L168.08 80.7265L165.563 79.4941ZM166.947 76.6481L168.185 74.1022L170.726 75.3427L169.488 77.8887L166.947 76.6481ZM168.339 73.7941L169.577 71.2562L172.109 72.4968L170.855 75.0508L168.339 73.7941ZM168.031 73.64L165.491 72.3995L166.729 69.8616L169.269 71.1022L168.031 73.64ZM164.042 68.1589L165.272 65.6211L167.813 66.8616L166.599 69.3752L164.042 68.1589ZM163.727 68.0049L161.194 66.7643L162.432 64.2265L164.965 65.467L163.727 68.0049ZM160.887 66.6184L158.346 65.3779L159.584 62.84L162.125 64.0806L160.887 66.6184ZM158.038 65.2238L155.506 63.9833L156.744 61.4454L159.276 62.686L158.038 65.2238ZM155.19 63.8292L152.658 62.5887L153.896 60.0508L156.428 61.2914L155.19 63.8292ZM152.35 62.4427L149.818 61.2022L151.048 58.6643L153.588 59.8968L152.35 62.4427ZM149.502 61.0481L146.97 59.8076L148.208 57.2698L150.74 58.5103L149.502 61.0481ZM149.348 61.3562L148.11 63.9022L145.562 62.6616L146.8 60.1157L149.348 61.3562ZM145.303 62.5076L142.722 61.267L143.96 58.7292L146.492 59.9697L145.303 62.5076ZM145.149 62.8157L143.911 65.3616L141.379 64.1211L142.616 61.5752L145.149 62.8157ZM141.103 63.967L138.563 62.7265L139.801 60.1887L142.333 61.4292L141.103 63.967ZM138.255 62.5724L135.723 61.3319L136.961 58.7941L139.493 60.0346L138.255 62.5724ZM138.102 62.8887L136.864 65.4265L134.234 64.186L135.472 61.6481L138.102 62.8887ZM134.056 64.0319L131.515 62.7914L132.753 60.2535L135.294 61.4941L134.056 64.0319ZM133.902 64.34L132.664 66.886L130.132 65.6454L131.37 63.0995L133.902 64.34ZM129.816 65.4914L127.283 64.2508L128.521 61.713L131.054 62.9535L129.816 65.4914ZM129.67 65.7995L128.432 68.3454L125.892 67.1049L127.13 64.5589L129.67 65.7995ZM125.471 66.9427L122.906 65.7103L124.144 63.1725L126.677 64.413L125.471 66.9427ZM125.317 67.2508L124.079 69.7968L121.547 68.5643L122.785 66.0184L125.317 67.2508ZM121.272 68.4022L118.739 67.1616L119.969 64.6238L122.51 65.8644L121.272 68.4022ZM121.118 68.7103L119.88 71.2481L117.347 70.0076L118.585 67.4697L121.118 68.7103ZM119.67 71.5724L118.432 74.1103L115.899 72.8697L117.137 70.3319L119.67 71.5724ZM118.286 74.4184L117.048 76.9643L114.507 75.7238L115.745 73.1779L118.286 74.4184ZM118.351 81.513L117.113 84.0589L114.58 82.8184L115.818 80.2725L118.351 81.513ZM119.807 85.7616L118.569 88.2995L116.037 87.0589L117.275 84.5211L119.807 85.7616ZM120.115 85.9076L122.647 87.1481L121.409 89.6941L118.877 88.4535L120.115 85.9076ZM122.963 87.3022L125.495 88.5427L124.257 91.0806L121.725 89.84L122.963 87.3022ZM125.803 88.6968L128.343 89.9373L127.105 92.4751L124.589 91.267L125.803 88.6968ZM128.651 90.0833L131.183 91.3238L129.946 93.8697L127.413 92.6292L128.651 90.0833ZM131.499 91.4779L134.032 92.7184L132.794 95.2562L130.261 94.0157L131.499 91.4779ZM134.339 92.8725L136.872 94.113L135.642 96.6508L133.101 95.4103L134.339 92.8725ZM137.187 94.2589L139.72 95.4995L138.482 98.0454L135.949 96.8049L137.187 94.2589ZM137.341 93.9508L138.579 91.413L141.112 92.6535L139.898 95.1914L137.341 93.9508ZM141.387 92.8076L143.919 94.0481L142.681 96.586L140.205 95.3211L141.387 92.8076ZM144.235 94.1941L146.767 95.4346L145.562 97.9724L143.029 96.74L144.235 94.1941ZM144.38 93.886L145.618 91.3481L148.159 92.5887L146.921 95.1265L144.38 93.886ZM148.426 92.7346L150.959 93.9752L149.721 96.513L147.285 95.3211L148.426 92.7346ZM148.58 92.4265L149.818 89.8887L152.35 91.1292L151.226 93.6995L148.58 92.4265ZM152.625 91.2752L155.166 92.5157L153.928 95.0616L151.387 93.8211L152.625 91.2752ZM152.779 90.967L154.017 88.4292L156.55 89.6697L155.312 92.2076L152.779 90.967ZM156.825 89.8157L159.357 91.0562L158.119 93.6022L155.587 92.3616L156.825 89.8157ZM156.97 89.5076L158.208 86.9698L160.749 88.2103L159.511 90.7481L156.97 89.5076ZM161.057 88.3644L163.589 89.5968L162.553 92.1427L160.021 90.9022L161.057 88.3644ZM161.21 88.0481L162.448 85.5103L164.981 86.7508L163.743 89.2887L161.21 88.0481ZM165.256 86.9049L167.788 88.1454L166.559 90.6833L164.018 89.4427L165.256 86.9049ZM165.41 86.5887L166.648 84.0508L169.18 85.2914L167.942 87.8292L165.41 86.5887ZM166.801 83.7427L168.039 81.1968L170.572 82.4373L169.334 84.9833L166.801 83.7427ZM168.185 80.8887L169.423 78.3508L171.964 79.5914L170.726 82.1292L168.185 80.8887ZM169.577 78.0346L170.815 75.4968L173.347 76.7373L172.109 79.2751L169.577 78.0346ZM170.968 75.1887L172.206 72.6508L174.739 73.8914L173.501 76.4292L170.968 75.1887ZM169.512 70.9481L170.75 68.4022L173.282 69.6427L172.263 72.1805L169.512 70.9481ZM169.196 70.7941L166.664 69.5535L167.902 67.0157L170.434 68.2562L169.196 70.7941ZM165.41 65.3211L166.648 62.7751L169.18 64.0157L167.942 66.5616L165.41 65.3211ZM165.102 65.167L162.553 63.9184L163.791 61.3806L166.324 62.6211L165.102 65.167ZM162.254 63.7724L159.721 62.5319L160.959 59.9941L163.492 61.2346L162.254 63.7724ZM159.414 62.3779L156.89 61.1373L158.128 58.5914L160.668 59.8319L159.414 62.3779ZM156.566 60.9914L154.033 59.7508L155.271 57.213L157.804 58.4535L156.566 60.9914ZM153.718 59.5968L151.226 58.3481L152.464 55.8103L154.996 57.0508L153.718 59.5968ZM150.878 58.2022L148.345 56.9616L149.583 54.4238L152.116 55.6643L150.878 58.2022ZM148.03 56.8157L145.497 55.5914L146.735 53.0535L149.268 54.286L148.03 56.8157ZM147.876 57.1238L146.646 59.6454L144.105 58.4049L145.343 55.867L147.876 57.1238ZM143.83 58.2752L141.298 57.0346L142.536 54.4887L145.068 55.7292L143.83 58.2752ZM143.676 58.5833L142.438 61.1211L139.898 59.8724L141.136 57.3346L143.676 58.5833ZM139.631 59.7346L137.09 58.4941L138.328 55.9481L140.869 57.1887L139.631 59.7346ZM136.783 58.34L134.25 57.0995L135.488 54.5616L138.021 55.8022L136.783 58.34ZM136.629 58.6481L135.391 61.186L132.858 59.9535L134.096 57.4076L136.629 58.6481ZM132.583 59.7995L130.043 58.5589L131.281 56.0211L133.821 57.2616L132.583 59.7995ZM132.43 60.1076L131.192 62.6454L128.57 61.3968L129.808 58.8589L132.43 60.1076ZM128.384 61.2589L125.851 60.0184L127.089 57.4805L129.622 58.713L128.384 61.2589ZM128.238 61.567L127 64.1049L124.322 62.8887L125.56 60.3508L128.238 61.567ZM124.193 62.7184L121.66 61.4779L122.898 58.9319L125.431 60.1724L124.193 62.7184ZM124.039 63.0265L122.801 65.5643L120.268 64.3238L121.506 61.786L124.039 63.0265ZM119.993 64.1779L117.242 62.9292L118.48 60.3833L121.013 61.6238L119.993 64.1779ZM119.67 64.5103L118.432 67.0481L115.899 65.8076L117.137 63.2697L119.67 64.5103ZM118.278 67.3643L117.04 69.9022L114.507 68.6616L115.705 66.1319L118.278 67.3643ZM116.854 70.186L115.624 72.7157L113.091 71.4752L114.329 68.9373L116.854 70.186ZM115.462 73.04L114.224 75.5779L111.692 74.3373L112.93 71.7995L115.462 73.04ZM111.416 74.1833L108.876 72.9427L110.114 70.4049L112.646 71.6454L111.416 74.1833ZM111.263 74.4995L109.96 77.0292L107.427 75.7887L108.657 73.2508L111.263 74.4995ZM112.719 78.74L111.481 81.2779L108.941 80.0373L110.179 77.4995L112.719 78.74ZM113.027 78.8941L115.559 80.1346L114.321 82.6724L111.789 81.4319L113.027 78.8941ZM117.016 84.3752L115.778 86.913L113.197 85.6643L114.435 83.1265L117.016 84.3752ZM118.472 88.6157L117.242 91.1454L114.71 89.913L115.948 87.367L118.472 88.6157ZM118.788 88.7698L121.32 90.0103L120.082 92.5481L117.517 91.267L118.788 88.7698ZM121.628 90.1644L124.16 91.4049L122.906 93.9346L120.374 92.6941L121.628 90.1644ZM124.476 91.5508L127.008 92.7914L125.738 95.3211L123.205 94.0806L124.476 91.5508ZM127.316 92.9454L129.857 94.186L128.57 96.7157L126.029 95.4752L127.316 92.9454ZM130.164 94.34L132.697 95.5806L131.459 98.1184L128.926 96.8779L130.164 94.34ZM133.012 95.7265L135.545 96.967L134.307 99.513L131.774 98.2725L133.012 95.7265ZM135.852 97.1211L138.385 98.3616L137.147 100.899L134.614 99.6589L135.852 97.1211ZM138.7 98.5157L141.233 99.7562L139.995 102.294L137.47 101.045L138.7 98.5157ZM138.846 98.1995L140.084 95.6617L142.625 96.9022L141.387 99.44L138.846 98.1995ZM142.932 97.0562L145.465 98.2968L144.227 100.835L141.694 99.5941L142.932 97.0562ZM145.78 98.4508L148.313 99.6833L147.075 102.229L144.51 100.997L145.78 98.4508ZM145.926 98.1346L147.164 95.5968L149.704 96.8373L148.434 99.3752L145.926 98.1346ZM150.012 96.9914L152.544 98.2319L151.307 100.77L148.774 99.5292L150.012 96.9914ZM150.166 96.6752L151.404 94.1373L153.936 95.3779L152.698 97.9157L150.166 96.6752ZM154.211 95.5319L156.744 96.7725L155.514 99.3103L152.973 98.0698L154.211 95.5319ZM154.365 95.2157L155.603 92.6778L158.136 93.9184L156.89 96.4481L154.365 95.2157ZM158.411 94.0724L160.943 95.313L159.705 97.8508L157.173 96.6103L158.411 94.0724ZM158.556 93.7562L159.794 91.2184L162.327 92.4589L161.089 94.9968L158.556 93.7562ZM162.602 92.613L165.135 93.8535L163.897 96.3914L161.364 95.1508L162.602 92.613ZM162.756 92.2968L163.986 89.7589L166.526 90.9995L165.288 93.5373L162.756 92.2968ZM166.801 91.1535L169.334 92.3941L168.217 94.9238L165.677 93.6995L166.801 91.1535ZM166.955 90.8454L168.193 88.2995L170.726 89.54L169.601 92.0779L166.955 90.8454ZM168.46 88.0238L169.698 85.486L172.231 86.7265L170.993 89.2643L168.46 88.0238ZM169.844 85.1698L171.082 82.6319L173.614 83.8725L172.376 86.4022L169.844 85.1698ZM171.235 82.3238L172.473 79.786L175.006 81.0184L173.768 83.5643L171.235 82.3238ZM172.627 79.4698L173.865 76.9319L176.398 78.1725L175.16 80.7103L172.627 79.4698ZM174.011 76.6238L175.249 74.0778L177.781 75.3184L176.551 77.8562L174.011 76.6238ZM172.554 72.3752L173.792 69.8373L176.333 71.0779L175.095 73.6157L172.554 72.3752ZM171.098 68.1346L172.336 65.5968L174.876 66.8373L173.638 69.3752L171.098 68.1346ZM170.79 67.9806L168.258 66.74L169.496 64.2022L172.028 65.4427L170.79 67.9806ZM166.801 62.4995L168.039 59.9617L170.572 61.2022L169.334 63.6995L166.801 62.4995ZM166.494 62.3454L163.953 61.1049L165.191 58.5671L167.724 59.8076L166.494 62.3454ZM163.646 60.9589L161.113 59.6454L162.351 57.0995L164.884 58.34L163.646 60.9589ZM160.798 59.5643L158.265 58.3238L159.503 55.786L162.036 57.0265L160.798 59.5643ZM157.958 58.1697L155.417 56.9292L156.655 54.3914L159.196 55.6319L157.958 58.1697ZM155.109 56.7751L152.577 55.5427L153.815 52.9968L156.347 54.2373L155.109 56.7751ZM152.269 55.3887L149.729 54.1481L150.967 51.6103L153.499 52.8508L152.269 55.3887ZM149.421 53.9697L146.889 52.7292L148.127 50.1914L150.659 51.4319L149.421 53.9697ZM146.573 52.5751L144.041 51.3346L145.279 48.7968L147.811 50.0373L146.573 52.5751ZM146.427 52.8914L145.189 55.4292L142.649 54.1887L143.887 51.6508L146.427 52.8914ZM142.325 54.0184L139.793 52.7779L141.031 50.24L143.563 51.4806L142.325 54.0184ZM142.171 54.3346L140.934 56.8724L138.401 55.6319L139.639 53.0941L142.171 54.3346ZM138.126 55.4778L135.585 54.2373L136.823 51.6995L139.364 52.94L138.126 55.4778ZM135.278 54.0914L132.745 52.8508L133.983 50.3049L136.499 51.5373L135.278 54.0914ZM135.124 54.3995L133.886 56.9373L131.353 55.6968L132.616 53.1589L135.124 54.3995ZM130.997 55.5914L128.465 54.3508L129.695 51.8049L132.235 53.0454L130.997 55.5914ZM130.844 55.8995L129.606 58.4373L127.073 57.1968L128.311 54.6589L130.844 55.8995ZM126.758 57.0427L124.225 55.8022L125.463 53.2643L127.996 54.5049L126.758 57.0427ZM126.612 57.3589L125.374 59.8968L122.906 58.6157L124.144 56.0779L126.612 57.3589ZM122.566 58.5022L120.026 57.213L121.264 54.6751L123.796 55.9157L122.566 58.5022ZM122.413 58.8184L121.183 61.3562L118.642 60.1157L119.88 57.5779L122.413 58.8184ZM118.367 59.9617L115.834 58.7211L117.072 56.1833L119.605 57.4238L118.367 59.9617ZM118.213 60.2779L116.975 62.8157L114.443 61.5752L115.624 58.9968L118.213 60.2779ZM116.83 63.1238L115.592 65.6616L113.051 64.4292L114.289 61.8833L116.83 63.1238ZM115.438 65.9779L114.2 68.5157L111.667 67.2752L112.905 64.7373L115.438 65.9779ZM114.006 68.7833L112.768 71.3292L110.235 70.0887L111.473 67.5427L114.006 68.7833ZM109.96 69.9346L107.419 68.6941L108.657 66.1562L111.198 67.3968L109.96 69.9346ZM109.806 70.2427L108.568 72.7887L106.036 71.5481L107.274 69.0022L109.806 70.2427ZM108.415 73.0968L107.177 75.6346L104.644 74.3941L105.882 71.8562L108.415 73.0968ZM109.871 77.3373L108.601 79.9157L106.068 78.6752L107.306 76.1292L109.871 77.3373ZM111.327 81.586L110.089 84.1238L107.533 82.8833L108.771 80.3454L111.327 81.586ZM111.635 81.7319L114.176 82.9724L112.938 85.5103L110.397 84.2779L111.635 81.7319ZM115.624 87.213L114.386 89.7508L111.845 88.5103L113.083 85.9725L115.624 87.213ZM117.072 91.4535L115.834 93.9914L113.302 92.7508L114.54 90.213L117.072 91.4535ZM117.388 91.6076L119.92 92.8481L118.682 95.386L116.15 94.1454L117.388 91.6076ZM120.228 92.9941L122.769 94.2346L121.531 96.7725L118.99 95.54L120.228 92.9941ZM123.076 94.3887L125.609 95.6292L124.371 98.1671L121.814 96.9427L123.076 94.3887ZM125.924 95.7833L128.457 97.0238L127.219 99.5616L124.686 98.3211L125.924 95.7833ZM128.764 97.1697L131.305 98.4103L130.043 100.997L127.502 99.7562L128.764 97.1697ZM131.612 98.5643L134.145 99.8049L132.907 102.343L130.374 101.102L131.612 98.5643ZM134.452 99.9589L136.993 101.199L135.755 103.737L133.214 102.497L134.452 99.9589ZM137.3 101.345L139.833 102.586L138.595 105.132L136.063 103.891L137.3 101.345ZM140.149 102.74L142.681 103.981L141.443 106.518L138.911 105.278L140.149 102.74ZM140.294 102.432L141.532 99.886L144.073 101.127L142.835 103.672L140.294 102.432ZM144.34 101.281L146.873 102.521L145.651 105.051L143.134 103.826L144.34 101.281ZM147.188 102.675L149.721 103.916L148.483 106.454L145.95 105.213L147.188 102.675ZM147.334 102.359L148.572 99.8211L151.112 101.062L149.874 103.599L147.334 102.359ZM151.379 101.216L153.912 102.456L152.674 104.994L150.141 103.754L151.379 101.216ZM151.533 100.908L152.771 98.3616L155.304 99.6022L154.066 102.14L151.533 100.908ZM155.579 99.7562L158.111 100.997L156.873 103.535L154.462 102.302L155.579 99.7562ZM155.732 99.4481L156.97 96.9022L159.503 98.1427L158.265 100.689L155.732 99.4481ZM159.778 98.2968L162.319 99.5373L161.081 102.075L158.54 100.835L159.778 98.2968ZM159.932 97.9887L161.17 95.4427L163.702 96.6833L162.553 99.2373L159.932 97.9887ZM164.018 96.8373L166.551 98.0779L165.313 100.616L162.901 99.3752L164.018 96.8373ZM164.172 96.5292L165.402 93.9914L167.942 95.2238L166.826 97.7535L164.172 96.5292ZM168.217 95.3779L170.75 96.6184L169.512 99.1562L166.979 97.9157L168.217 95.3779ZM168.371 95.0698L169.609 92.5319L172.263 93.7806L171.025 96.3184L168.371 95.0698ZM169.755 92.2157L170.993 89.6779L173.533 90.9184L172.295 93.4562L169.755 92.2157ZM171.146 89.3698L172.384 86.8238L174.917 88.0643L173.679 90.6103L171.146 89.3698ZM172.538 86.5157L173.776 83.9779L176.309 85.2184L175.071 87.7562L172.538 86.5157ZM173.922 83.6616L175.16 81.1238L177.7 82.3643L176.462 84.9022L173.922 83.6616ZM175.313 80.8157L176.551 78.2779L179.084 79.5184L177.846 82.0562L175.313 80.8157ZM176.705 77.9616L177.943 75.4238L180.476 76.6643L179.238 79.2022L176.705 77.9616ZM175.249 73.7211L176.487 71.1833L179.019 72.4238L177.927 74.9697L175.249 73.7211ZM173.792 69.4806L175.03 66.9346L177.563 68.1751L176.325 70.7211L173.792 69.4806ZM172.336 65.2319L173.574 62.6941L176.106 63.9346L174.868 66.4725L172.336 65.2319ZM172.028 65.086L169.496 63.8454L170.726 61.2995L173.266 62.54L172.028 65.086ZM168.217 59.6454L169.455 57.1076L171.988 58.3481L170.75 60.886L168.217 59.6454ZM167.902 59.4995L165.369 58.2589L166.599 55.6725L169.132 56.913L167.902 59.4995ZM165.062 58.1049L162.521 56.8643L163.759 54.3265L166.3 55.567L165.062 58.1049ZM162.214 56.7103L159.681 55.4698L160.919 52.9319L163.452 54.1724L162.214 56.7103ZM159.317 55.2833L156.784 54.0427L158.022 51.4968L160.555 52.7373L159.317 55.2833ZM156.477 53.8887L153.944 52.6481L155.182 50.1103L157.715 51.3508L156.477 53.8887ZM153.653 52.4941L151.12 51.2535L152.358 48.7157L154.891 49.9562L153.653 52.4941ZM150.813 51.0995L148.272 49.867L149.51 47.3211L152.051 48.5616L150.813 51.0995ZM147.989 49.713L145.457 48.4724L146.695 45.9346L149.227 47.1751L147.989 49.713ZM145.117 48.2941L142.584 47.0535L143.822 44.5157L146.371 45.7806L145.117 48.2941ZM144.971 48.6022L143.733 51.1481L141.192 49.9157L142.43 47.3778L144.971 48.6022ZM140.925 49.7535L138.393 48.513L139.631 45.9752L142.163 47.2157L140.925 49.7535ZM140.772 50.0616L139.534 52.6076L137.001 51.3671L138.239 48.8211L140.772 50.0616ZM136.726 51.213L134.193 49.9725L135.431 47.4346L137.964 48.6752L136.726 51.213ZM133.878 49.8184L131.345 48.5779L132.583 46.04L135.116 47.2806L133.878 49.8184ZM133.724 50.1346L132.494 52.6724L129.954 51.4319L131.192 48.8941L133.724 50.1346ZM129.679 51.2778L127.146 50.0373L128.384 47.4995L130.917 48.74L129.679 51.2778ZM129.525 51.5941L128.287 54.1319L125.754 52.8914L126.992 50.3535L129.525 51.5941ZM125.479 52.7373L122.801 51.5373L124.039 48.9995L126.58 50.24L125.479 52.7373ZM125.325 53.0454L123.95 55.5914L121.417 54.3508L122.655 51.813L125.325 53.0454ZM121.239 54.1968L118.707 52.9562L119.945 50.4184L122.477 51.6589L121.239 54.1968ZM121.094 54.5049L119.856 57.0508L117.315 55.8103L118.553 53.2643L121.094 54.5049ZM117.008 55.6562L114.475 54.4157L115.713 51.8779L118.246 53.1184L117.008 55.6562ZM116.854 55.9643L115.616 58.5103L113.083 57.2698L114.321 54.7238L116.854 55.9643ZM115.333 58.8346L114.095 61.3725L111.578 60.14L112.816 57.6022L115.333 58.8346ZM113.941 61.6887L112.703 64.2265L110.17 62.986L111.408 60.4481L113.941 61.6887ZM112.549 64.5103L111.311 67.0481L108.779 65.8076L110.017 63.2697L112.549 64.5103ZM108.504 65.6616L105.914 64.4535L107.152 61.9157L109.693 63.1481L108.504 65.6616ZM108.35 65.9697L107.08 68.5643L104.547 67.3238L105.785 64.786L108.35 65.9697ZM106.958 68.8238L105.72 71.3616L103.155 70.186L104.393 67.6481L106.958 68.8238ZM105.575 71.6697L104.296 74.24L101.755 72.9995L102.993 70.4535L105.575 71.6697ZM107.023 75.9184L105.785 78.4562L103.252 77.2157L104.49 74.6779L107.023 75.9184ZM108.479 80.1589L107.241 82.6968L104.709 81.4562L105.947 78.9184L108.479 80.1589ZM109.936 84.3995L108.698 86.9373L106.165 85.6968L107.371 83.1589L109.936 84.3995ZM110.251 84.5535L112.784 85.7941L111.546 88.3319L109.013 87.0914L110.251 84.5535ZM114.24 90.0346L113.002 92.5724L110.47 91.3319L111.708 88.7941L114.24 90.0346ZM115.697 94.2751L114.459 96.8211L111.926 95.5806L113.164 93.0427L115.697 94.2751ZM116.004 94.4292L118.537 95.6697L117.242 98.24L114.71 96.9995L116.004 94.4292ZM118.852 95.8238L121.385 97.0643L120.147 99.6022L117.614 98.3616L118.852 95.8238ZM121.692 97.2184L124.233 98.4589L122.963 100.997L120.422 99.7562L121.692 97.2184ZM124.541 98.6049L127.073 99.8454L125.835 102.383L123.303 101.143L124.541 98.6049ZM127.389 99.9995L129.921 101.24L128.683 103.778L126.143 102.57L127.389 99.9995ZM130.229 101.394L132.761 102.635L131.523 105.172L128.991 103.932L130.229 101.394ZM133.077 102.781L135.609 104.021L134.371 106.559L131.807 105.359L133.077 102.781ZM135.852 104.24L138.393 105.481L137.155 108.018L134.614 106.778L135.852 104.24ZM138.7 105.635L141.233 106.875L139.995 109.413L137.47 108.14L138.7 105.635ZM141.548 107.021L144.081 108.262L142.843 110.808L140.31 109.567L141.548 107.021ZM141.694 106.713L142.932 104.175L145.473 105.416L144.235 107.954L141.694 106.713ZM145.74 105.562L148.272 106.802L147.034 109.348L144.502 108.108L145.74 105.562ZM148.588 106.956L151.12 108.197L149.955 110.727L147.423 109.486L148.588 106.956ZM148.733 106.648L149.971 104.11L152.504 105.343L151.266 107.889L148.733 106.648ZM152.779 105.497L155.312 106.737L154.074 109.275L151.541 108.035L152.779 105.497ZM152.933 105.189L154.163 102.651L156.703 103.891L155.465 106.429L152.933 105.189ZM156.979 104.037L159.511 105.278L158.273 107.816L155.741 106.575L156.979 104.037ZM157.132 103.729L158.508 101.159L161.04 102.399L159.802 104.937L157.132 103.729ZM161.178 102.578L163.719 103.818L162.481 106.364L160.126 105.091L161.178 102.578ZM161.332 102.27L162.57 99.7319L165.102 100.972L163.864 103.51L161.332 102.27ZM165.377 101.118L167.91 102.359L166.672 104.905L164.139 103.664L165.377 101.118ZM165.523 100.81L166.761 98.2725L169.302 99.513L168.064 102.051L165.523 100.81ZM169.569 99.667L172.101 100.899L171.122 103.429L168.59 102.189L169.569 99.667ZM169.722 99.3508L170.96 96.813L173.493 98.0535L172.255 100.591L169.722 99.3508ZM171.106 96.5049L172.344 93.9589L174.885 95.1995L173.881 97.7535L171.106 96.5049ZM172.498 93.6508L173.736 91.113L176.268 92.3535L175.03 94.8914L172.498 93.6508ZM173.889 90.7968L175.127 88.2589L177.66 89.4995L176.422 92.0373L173.889 90.7968ZM175.273 87.9508L176.511 85.4049L179.052 86.6454L177.814 89.1914L175.273 87.9508ZM176.665 85.0968L177.903 82.5589L180.435 83.7995L179.197 86.3373L176.665 85.0968ZM178.056 82.2427L179.545 79.6725L182.078 80.913L180.84 83.4508L178.056 82.2427ZM179.44 79.3968L180.678 76.8589L183.219 78.0995L181.981 80.6373L179.44 79.3968ZM177.992 75.1562L179.23 72.6103L181.762 73.8508L180.524 76.3968L177.992 75.1562ZM176.535 70.9076L177.773 68.3698L180.306 69.6103L179.068 72.1481L176.535 70.9076ZM175.079 66.667L176.317 64.1292L178.849 65.3697L177.611 67.9076L175.079 66.667ZM173.622 62.4265L174.86 59.8806L177.393 61.1211L176.155 63.667L173.622 62.4265ZM173.307 62.2724L170.774 61.0319L172.012 58.4941L174.545 59.7346L173.307 62.2724ZM169.318 56.7914L170.556 54.2454L173.096 55.486L172.117 58.0238L169.318 56.7914ZM169.01 56.6373L166.478 55.3968L167.716 52.8589L170.248 54.0995L169.01 56.6373ZM166.162 55.2427L163.888 53.9697L165.126 51.4319L167.659 52.6724L166.162 55.2427ZM163.322 53.8562L160.781 52.6157L162.019 50.0697L164.56 51.3103L163.322 53.8562ZM160.474 52.4616L157.941 51.2211L159.179 48.6833L161.712 49.9238L160.474 52.4616ZM157.626 51.0671L155.093 49.8265L156.331 47.2887L158.864 48.5292L157.626 51.0671ZM154.786 49.6805L152.253 48.44L153.491 45.8941L156.024 47.1346L154.786 49.6805ZM152.197 48.2941L149.664 47.0535L150.902 44.5157L153.435 45.7562L152.197 48.2941ZM149.357 46.8995L146.816 45.6589L148.054 43.1211L150.594 44.3616L149.357 46.8995ZM146.508 45.513L143.943 44.24L145.181 41.6941L147.714 42.9346L146.508 45.513ZM143.66 44.1184L141.128 42.8779L142.366 40.34L144.898 41.5806L143.66 44.1184ZM143.515 44.4265L142.277 46.9643L139.744 45.7238L140.974 43.186L143.515 44.4265ZM139.429 45.5778L136.896 44.3373L138.134 41.7995L140.666 43.04L139.429 45.5778ZM139.275 45.886L138.037 48.4238L135.504 47.1833L136.742 44.6454L139.275 45.886ZM135.229 47.0373L132.697 45.7968L133.935 43.2508L136.467 44.4914L135.229 47.0373ZM132.381 45.6427L129.848 44.4022L131.086 41.8643L133.619 43.1049L132.381 45.6427ZM132.227 45.9508L130.997 48.4562L128.457 47.2157L129.695 44.6697L132.227 45.9508ZM128.182 47.1022L125.584 45.8616L126.822 43.3238L129.355 44.5643L128.182 47.1022ZM128.028 47.4103L126.725 49.9157L124.193 48.6752L125.431 46.1292L128.028 47.4103ZM123.982 48.5616L121.442 47.3211L122.68 44.7833L125.22 46.0238L123.982 48.5616ZM123.829 48.8697L122.591 51.4076L120.058 50.167L121.296 47.6292L123.829 48.8697ZM119.783 50.0211L117.25 48.7806L118.488 46.2427L121.021 47.4751L119.783 50.0211ZM119.637 50.3292L118.399 52.8671L115.859 51.6265L117.097 49.0887L119.637 50.3292ZM115.592 51.4806L113.059 50.24L114.297 47.6941L116.83 48.9346L115.592 51.4806ZM115.438 51.7887L114.006 54.286L111.473 53.0454L112.711 50.5076L115.438 51.7887ZM114.054 54.6427L112.816 57.1805L110.276 55.94L111.514 53.4022L114.054 54.6427ZM112.663 57.4887L111.425 60.0346L108.892 58.7941L110.13 56.2481L112.663 57.4887ZM111.271 60.3427L110.033 62.8805L107.5 61.64L108.738 59.1022L111.271 60.3427ZM104.507 60.5616L107.039 61.8022L105.801 64.34L103.269 63.0995L104.507 60.5616ZM103.115 63.4076L105.647 64.6481L104.409 67.1941L101.877 65.9535L103.115 63.4076ZM101.723 66.2616L104.264 67.5022L103.026 70.04L100.485 68.7995L101.723 66.2616ZM99.1016 71.6535L100.34 69.1157L102.872 70.3562L101.634 72.8941L99.1016 71.6535ZM100.558 75.8941L101.796 73.3562L104.329 74.5968L103.091 77.1346L100.558 75.8941ZM102.014 80.1346L103.252 77.5968L105.785 78.8373L104.547 81.3751L102.014 80.1346ZM103.463 84.3833L104.701 81.8454L107.241 83.0779L105.825 85.5914L103.463 84.3833ZM104.919 88.6238L106.157 86.086L108.698 87.3265L107.46 89.8643L104.919 88.6238ZM107.767 90.0184L109.005 87.4805L111.538 88.713L110.3 91.2589L107.767 90.0184ZM109.224 94.2589L110.462 91.7211L112.994 92.9616L111.578 95.459L109.224 94.2589ZM110.68 98.4995L111.918 95.9616L114.451 97.2022L113.213 99.74L110.68 98.4995ZM113.52 99.8941L114.758 97.3562L117.299 98.5968L116.061 101.135L113.52 99.8941ZM116.368 101.289L117.606 98.7427L120.139 99.9833L118.901 102.529L116.368 101.289ZM119.216 102.675L120.454 100.137L122.987 101.378L121.749 103.916L119.216 102.675ZM122.057 104.07L123.294 101.532L125.827 102.772L124.597 105.31L122.057 104.07ZM124.905 105.464L126.143 102.918L128.675 104.159L127.259 106.672L124.905 105.464ZM127.753 106.851L128.983 104.313L131.523 105.554L130.285 108.091L127.753 106.851ZM130.593 108.245L131.831 105.708L134.363 106.948L133.125 109.486L130.593 108.245ZM133.441 109.64L134.679 107.102L137.212 108.343L135.974 110.881L133.441 109.64ZM136.281 111.035L137.519 108.489L140.06 109.729L138.822 112.267L136.281 111.035ZM139.129 112.421L140.367 109.883L142.9 111.124L141.516 113.621L139.129 112.421ZM144.51 115.056L141.977 113.816L143.207 111.278L145.748 112.518L144.51 115.056ZM143.361 110.962L144.599 108.424L147.131 109.664L145.902 112.202L143.361 110.962ZM146.209 112.356L147.447 109.818L149.98 111.059L148.742 113.597L146.209 112.356ZM151.59 114.991L149.049 113.751L150.287 111.205L152.828 112.445L151.59 114.991ZM150.441 110.937L151.679 108.399L154.211 109.64L152.973 112.178L150.441 110.937ZM155.821 113.572L153.289 112.332L154.527 109.786L157.059 111.027L155.821 113.572ZM154.462 109.397L155.7 106.859L158.241 108.099L157.003 110.637L154.462 109.397ZM159.843 112.032L157.31 110.791L158.548 108.254L161.081 109.486L159.843 112.032ZM158.702 107.937L159.94 105.399L162.473 106.64L161.235 109.178L158.702 107.937ZM164.083 110.572L161.542 109.332L162.78 106.794L165.321 108.035L164.083 110.572ZM162.934 106.478L164.172 103.94L166.704 105.181L165.466 107.718L162.934 106.478ZM168.314 109.113L165.79 107.872L167.028 105.335L169.56 106.575L168.314 109.113ZM167.198 105.051L168.436 102.513L170.976 103.754L169.738 106.291L167.198 105.051ZM172.579 107.686L170.046 106.445L171.284 103.908L173.816 105.148L172.579 107.686ZM173.97 104.832L171.454 103.559L172.692 101.021L175.224 102.262L173.97 104.832ZM175.362 101.986L172.821 100.745L174.059 98.2076L176.6 99.4481L175.362 101.986ZM176.746 99.1319L174.213 97.8914L175.451 95.3535L177.984 96.5941L176.746 99.1319ZM178.137 96.286L175.605 95.0454L176.843 92.4995L179.375 93.74L178.137 96.286ZM179.529 93.4319L176.988 92.1914L178.226 89.6535L180.767 90.8941L179.529 93.4319ZM180.913 90.5779L178.38 89.3373L179.618 86.7995L182.15 88.04L180.913 90.5779ZM182.304 87.7319L179.772 86.4914L181.01 83.9535L183.542 85.186L182.304 87.7319ZM183.696 84.8779L181.163 83.6049L182.401 81.0671L184.942 82.3076L183.696 84.8779ZM186.318 79.486L185.08 82.0319L182.547 80.7265L183.785 78.1805L186.318 79.486ZM184.861 75.2454L183.591 77.7508L181.058 76.5103L182.296 73.9725L184.861 75.2454ZM183.405 71.0049L182.167 73.5427L179.634 72.3022L180.872 69.7644L183.405 71.0049ZM181.973 66.7238L180.735 69.2697L178.194 68.0292L179.432 65.4833L181.973 66.7238ZM180.516 62.4833L179.278 65.0211L176.737 63.7806L177.927 61.267L180.516 62.4833ZM179.06 58.2427L177.822 60.7806L175.281 59.54L176.519 57.0022L179.06 58.2427ZM176.212 56.8481L174.974 59.386L172.441 58.1454L173.679 55.6076L176.212 56.8481ZM174.755 52.6076L173.517 55.1454L170.985 53.9049L172.223 51.3671L174.755 52.6076ZM171.915 51.213L170.645 53.7508L168.104 52.5103L169.342 49.9725L171.915 51.213ZM169.026 49.8184L167.813 52.3481L165.28 51.1076L166.518 48.5616L169.026 49.8184ZM166.178 48.4319L164.981 50.9697L162.448 49.7292L163.686 47.1914L166.178 48.4319ZM163.363 47.0373L162.125 49.5751L159.592 48.3346L160.822 45.7968L163.363 47.0373ZM160.514 45.6427L159.317 48.1887L156.784 46.9481L158.022 44.4022L160.514 45.6427ZM157.699 44.24L156.461 46.7779L153.92 45.5373L155.158 42.9995L157.699 44.24ZM154.85 42.8454L153.613 45.3833L151.08 44.1427L152.318 41.6049L154.85 42.8454ZM152.002 41.4508L150.764 43.9968L148.232 42.7562L149.47 40.2103L152.002 41.4508ZM149.162 40.0643L147.9 42.6184L145.359 41.3779L146.597 38.84L149.162 40.0643ZM146.314 38.6697L145.076 41.2076L142.544 39.9671L143.782 37.4292L146.314 38.6697ZM140.934 36.0346L143.466 37.2752L142.236 39.8211L139.671 38.5643L140.934 36.0346ZM142.082 40.1292L140.844 42.667L138.28 41.4427L139.518 38.9049L142.082 40.1292ZM136.661 37.5103L139.194 38.7508L137.956 41.2887L135.423 40.0481L136.661 37.5103ZM137.81 41.6049L136.572 44.1427L134.032 42.9022L135.27 40.3643L137.81 41.6049ZM134.978 40.186L133.74 42.7238L131.208 41.4833L132.446 38.9454L134.978 40.186ZM129.598 37.5589L132.13 38.7914L130.892 41.3373L128.36 40.0968L129.598 37.5589ZM130.747 41.613L129.509 44.24L126.952 42.967L128.19 40.4292L130.747 41.613ZM125.333 39.0346L127.866 40.2751L126.628 42.8211L124.096 41.5806L125.333 39.0346ZM126.474 43.1292L125.236 45.6671L122.704 44.4265L123.942 41.8887L126.474 43.1292ZM121.094 40.4941L123.634 41.7346L122.396 44.2805L119.856 43.04L121.094 40.4941ZM122.243 44.5887L121.005 47.1265L118.504 45.8616L119.742 43.3238L122.243 44.5887ZM116.862 41.9535L119.394 43.1941L118.157 45.7319L115.624 44.4995L116.862 41.9535ZM118.011 46.0481L116.773 48.5859L114.24 47.3454L115.47 44.8076L118.011 46.0481ZM112.663 43.4292L115.195 44.6697L113.957 47.2076L111.425 45.967L112.663 43.4292ZM111.271 46.2832L113.803 47.5238L112.565 50.0616L110.033 48.8211L111.271 46.2832ZM109.879 49.1049L112.42 50.3454L111.182 52.8914L108.649 51.6508L109.879 49.1049ZM108.496 51.9589L111.028 53.1995L109.79 55.7373L107.258 54.4968L108.496 51.9589ZM107.104 54.813L109.636 56.0535L108.398 58.5914L105.866 57.3508L107.104 54.813Z" fill="white"/>
<path d="M103.738 38.8968L107.622 38.3778C108.215 38.2995 108.817 38.417 109.337 38.7124C109.857 39.0078 110.267 39.465 110.505 40.0149C110.743 40.5647 110.796 41.1772 110.655 41.7597C110.514 42.3421 110.188 42.8627 109.725 43.2427C109.515 43.413 109.321 43.5995 109.119 43.7697C119.751 34.7211 135.82 31.7616 151.444 36.3751C130.997 30.1886 109.102 35.3211 92.9683 36.9427L90.9536 38.5643L95.1611 40.0157C97.8879 39.6751 100.76 39.2941 103.738 38.8968Z" fill="#3F8EE7"/>
<path d="M86.4066 67.7939C93.9558 80.702 102.88 96.3912 117.234 106.559C103.989 97.0399 96.4479 82.5345 97.0062 68.5723C97.0062 68.8399 97.0062 69.1075 97.0062 69.3831C96.9871 69.979 96.7759 70.5526 96.404 71.018C96.0321 71.4834 95.5197 71.8154 94.9436 71.9643C94.3675 72.1132 93.7587 72.0709 93.2087 71.8439C92.6586 71.6168 92.1967 71.2171 91.8925 70.7048C91.2128 69.5615 90.5574 68.4264 89.9101 67.3156C88.3485 64.6561 86.8435 62.0858 85.3547 59.6615L85.7189 62.9047L84.6104 63.2858L86.4066 67.7939Z" fill="#3F8EE7"/>
<path d="M101.384 53.1589C101.06 53.7346 100.752 54.3184 100.461 54.9184C100.17 55.5184 99.8947 56.1184 99.652 56.7346C99.5791 56.9048 99.5144 57.0913 99.4416 57.2697C99.2717 57.6994 99.0937 58.1373 98.9399 58.5832L98.7457 59.1751C98.6082 59.6048 98.4706 60.0346 98.3412 60.4643C98.2926 60.6589 98.2441 60.8535 98.1874 61.0481C98.0742 61.4859 97.9528 61.9319 97.8557 62.3778C97.8557 62.5562 97.7829 62.7427 97.7424 62.9211C97.6453 63.3913 97.5563 63.8616 97.4754 64.3319L97.4026 64.8021C97.3297 65.3048 97.2569 65.8075 97.2084 66.3102C97.2084 66.44 97.2084 66.5697 97.1679 66.6994C97.1194 67.24 97.0789 67.7805 97.0465 68.3211C97.0465 68.4103 97.0465 68.4994 97.0465 68.5967C96.4397 83.1508 104.66 98.3048 118.974 107.775L119.031 107.816C119.67 108.237 120.317 108.626 120.972 109.04C121.62 109.429 122.275 109.802 122.947 110.167L123.1 110.248C123.775 110.621 124.463 110.978 125.164 111.318C148.41 122.67 175.152 115.891 184.772 96.1562C194.393 76.4211 183.3 51.0994 160.045 39.7238C159.341 39.3751 158.629 39.0508 157.925 38.7427L157.804 38.6859C157.103 38.3778 156.391 38.0859 155.668 37.8102C154.948 37.5346 154.228 37.2751 153.499 36.9994H153.451C137.196 31.5184 120.212 34.3319 109.127 43.7697L108.916 43.9481C108.504 44.3049 108.107 44.6697 107.703 45.0508L107.428 45.3103C107.064 45.667 106.708 46.0319 106.36 46.3967C106.246 46.5102 106.141 46.6238 106.036 46.7454C105.712 47.094 105.397 47.4589 105.089 47.8238C104.968 47.9616 104.847 48.0994 104.733 48.2454C104.442 48.594 104.167 48.9589 103.924 49.3319C103.811 49.4859 103.681 49.6481 103.568 49.8102C103.301 50.167 103.05 50.5481 102.799 50.921C102.686 51.0913 102.565 51.2616 102.452 51.44C102.201 51.8292 101.958 52.2508 101.723 52.64L101.384 53.1589ZM158.645 42.6184C180.29 53.2075 190.711 76.567 181.876 94.6886C173.04 112.81 148.256 118.948 126.612 108.359C104.968 97.7697 94.5868 74.4427 103.382 56.313C112.177 38.1832 137.001 32.0778 158.645 42.6184Z" fill="#F94F06"/>
<path d="M78.5089 66.8211L73.6541 67.1211V65.9454L70.4904 65.2886C63.6856 66.9102 57.8114 68.767 53.6444 71.7102L48.8705 67.0481C51.7429 62.7589 53.4502 56.7508 54.9147 49.8021L52.2203 53.3454L51.3464 50.913C49.7282 58.0643 47.8267 63.8859 44.5012 67.2994L40.4556 71.467L49.4288 80.24L53.4744 76.0724C58.0703 71.3454 67.3996 69.2048 78.5089 66.8211Z" fill="#3F8EE7"/>
<path d="M39.4288 71.9616C39.6227 71.7695 39.8844 71.6617 40.157 71.6617C40.4297 71.6617 40.6914 71.7695 40.8853 71.9616L48.9199 79.8184C49.0158 79.9141 49.0919 80.0278 49.1438 80.153C49.1957 80.2782 49.2225 80.4125 49.2225 80.5481C49.2225 80.6837 49.1957 80.818 49.1438 80.9432C49.0919 81.0684 49.0158 81.1821 48.9199 81.2778L16.2635 114.821C16.1687 114.917 16.0559 114.993 15.9316 115.045C15.8073 115.097 15.674 115.124 15.5393 115.124C15.4046 115.124 15.2713 115.097 15.147 115.045C15.0227 114.993 14.9099 114.917 14.8151 114.821L6.77239 106.964C6.58068 106.77 6.47314 106.508 6.47314 106.235C6.47314 105.961 6.58068 105.699 6.77239 105.505L39.4288 71.9616Z" fill="#203878"/>
</svg>
