<svg width="241" height="92" viewBox="0 0 241 92" fill="none" xmlns="http://www.w3.org/2000/svg">
<path d="M222.959 4.77637H27.0087C20.3813 4.77637 15.0087 10.149 15.0087 16.7764V67.4064C15.0087 74.0338 20.3813 79.4064 27.0087 79.4064H222.959C229.586 79.4064 234.959 74.0338 234.959 67.4064V16.7764C234.959 10.149 229.586 4.77637 222.959 4.77637Z" fill="#3F8EE7"/>
<path d="M213.974 12.936H18.0244C11.397 12.936 6.02441 18.3086 6.02441 24.936V75.566C6.02441 82.1935 11.397 87.566 18.0244 87.566H213.974C220.602 87.566 225.974 82.1935 225.974 75.566V24.936C225.974 18.3086 220.602 12.936 213.974 12.936Z" fill="white"/>
<path d="M189.704 12.936V87.566" stroke="#ECECEC" stroke-width="2" stroke-miterlimit="10"/>
<path d="M153.604 12.936V87.566" stroke="#ECECEC" stroke-width="2" stroke-miterlimit="10"/>
<path d="M117.494 12.936V87.566" stroke="#ECECEC" stroke-width="2" stroke-miterlimit="10"/>
<path d="M6.02441 50.2559H225.974" stroke="#ECECEC" stroke-width="2" stroke-miterlimit="10"/>
<path d="M18 32H100" stroke="#1D1D1D" stroke-width="4" stroke-linecap="round" stroke-linejoin="round"/>
<path d="M129.675 31.5159H140.925" stroke="#1D1D1D" stroke-width="4" stroke-linecap="round" stroke-linejoin="round"/>
<path d="M129.675 68.9958H140.925" stroke="#1D1D1D" stroke-width="4" stroke-linecap="round" stroke-linejoin="round"/>
<path d="M166.024 31.5159H177.284" stroke="#1D1D1D" stroke-width="4" stroke-linecap="round" stroke-linejoin="round"/>
<path d="M166.024 68.9958H177.284" stroke="#1D1D1D" stroke-width="4" stroke-linecap="round" stroke-linejoin="round"/>
<path d="M202.374 31.5159H213.634" stroke="#1D1D1D" stroke-width="4" stroke-linecap="round" stroke-linejoin="round"/>
<path d="M202.374 68.9958H213.634" stroke="#1D1D1D" stroke-width="4" stroke-linecap="round" stroke-linejoin="round"/>
<path d="M18.3848 68.9958H100.465" stroke="#1D1D1D" stroke-width="4" stroke-linecap="round" stroke-linejoin="round"/>
</svg>
