<svg width="236" height="244" viewBox="0 0 236 244" fill="none" xmlns="http://www.w3.org/2000/svg">
<path d="M177.06 21.6689H43.4402C37.9173 21.6689 33.4402 26.1461 33.4402 31.6689V201.709C33.4402 207.232 37.9173 211.709 43.4402 211.709H177.06C182.583 211.709 187.06 207.232 187.06 201.709V31.6689C187.06 26.1461 182.583 21.6689 177.06 21.6689Z" fill="#C7E4FE"/>
<path d="M63.6502 35.1589H43.8902C43.117 35.1589 42.4902 35.7857 42.4902 36.5589V56.6589C42.4902 57.4321 43.117 58.0589 43.8902 58.0589H63.6502C64.4234 58.0589 65.0502 57.4321 65.0502 56.6589V36.5589C65.0502 35.7857 64.4234 35.1589 63.6502 35.1589Z" fill="white"/>
<path d="M176.43 35.1589H156.67C155.897 35.1589 155.27 35.7857 155.27 36.5589V56.6589C155.27 57.4321 155.897 58.0589 156.67 58.0589H176.43C177.203 58.0589 177.83 57.4321 177.83 56.6589V36.5589C177.83 35.7857 177.203 35.1589 176.43 35.1589Z" fill="white"/>
<path d="M177.83 153.809H42.4902" stroke="white" stroke-width="5" stroke-linecap="round" stroke-linejoin="round"/>
<path d="M177.83 134.149H42.4902" stroke="white" stroke-width="5" stroke-linecap="round" stroke-linejoin="round"/>
<path d="M177.83 114.489H42.4902" stroke="white" stroke-width="5" stroke-linecap="round" stroke-linejoin="round"/>
<path d="M142.7 153.809H110.16" stroke="#F94F06" stroke-width="5" stroke-linecap="round" stroke-linejoin="round"/>
<path d="M110.16 153.809H42.4902" stroke="#3F8EE7" stroke-width="5" stroke-linecap="round" stroke-linejoin="round"/>
<path d="M161.27 134.149H110.16" stroke="#F94F06" stroke-width="5" stroke-linecap="round" stroke-linejoin="round"/>
<path d="M141.27 114.489H110.16" stroke="#F94F06" stroke-width="5" stroke-linecap="round" stroke-linejoin="round"/>
<path d="M110.16 134.149H94.0703" stroke="#3F8EE7" stroke-width="5" stroke-linecap="round" stroke-linejoin="round"/>
<path d="M42.4902 114.489H110.16" stroke="#3F8EE7" stroke-width="5" stroke-linecap="round" stroke-linejoin="round"/>
<path d="M177.83 193.119H42.4902" stroke="white" stroke-width="5" stroke-linecap="round" stroke-linejoin="round"/>
<path d="M177.83 173.469H42.4902" stroke="white" stroke-width="5" stroke-linecap="round" stroke-linejoin="round"/>
<path d="M177.83 193.119H110.16" stroke="#F94F06" stroke-width="5" stroke-linecap="round" stroke-linejoin="round"/>
<path d="M110.16 193.119H72.4001" stroke="#3F8EE7" stroke-width="5" stroke-linecap="round" stroke-linejoin="round"/>
<path d="M161.27 173.469H110.16" stroke="#F94F06" stroke-width="5" stroke-linecap="round" stroke-linejoin="round"/>
<path d="M110.16 173.469H54.6401" stroke="#3F8EE7" stroke-width="5" stroke-linecap="round" stroke-linejoin="round"/>
<path d="M177.83 94.8291H42.4902" stroke="white" stroke-width="5" stroke-linecap="round" stroke-linejoin="round"/>
<path d="M177.83 75.179H42.4902" stroke="white" stroke-width="5" stroke-linecap="round" stroke-linejoin="round"/>
<path d="M177.83 94.8291H110.16" stroke="#F94F06" stroke-width="5" stroke-linecap="round" stroke-linejoin="round"/>
<path d="M110.16 94.8291H83.7402" stroke="#3F8EE7" stroke-width="5" stroke-linecap="round" stroke-linejoin="round"/>
<path d="M161.27 75.179H110.16" stroke="#F94F06" stroke-width="5" stroke-linecap="round" stroke-linejoin="round"/>
<path d="M110.16 75.179H54.6401" stroke="#3F8EE7" stroke-width="5" stroke-linecap="round" stroke-linejoin="round"/>
<path d="M104.98 31.679H85.6203C84.7366 31.679 84.0203 32.3953 84.0203 33.279V59.949C84.0203 60.8326 84.7366 61.549 85.6203 61.549H104.98C105.864 61.549 106.58 60.8326 106.58 59.949V33.279C106.58 32.3953 105.864 31.679 104.98 31.679Z" fill="#203878"/>
<path d="M95.3303 37.479H97.9003L96.2203 40.979C95.9203 41.609 95.6303 42.269 95.3303 42.979C95.0303 43.689 94.7203 44.439 94.3903 45.239C94.9252 44.7563 95.6107 44.4737 96.3303 44.439C96.7986 44.4246 97.262 44.538 97.6707 44.7671C98.0794 44.9961 98.4181 45.3321 98.6503 45.739C99.276 47.1095 99.5411 48.6172 99.4203 50.119C99.5349 51.6055 99.2226 53.0939 98.5203 54.409C98.1824 54.8535 97.7374 55.205 97.2267 55.4306C96.716 55.6562 96.1564 55.7485 95.6003 55.699C95.0181 55.7505 94.4327 55.645 93.9051 55.3935C93.3775 55.142 92.9269 54.7537 92.6003 54.269C91.8799 52.8124 91.5623 51.1897 91.6803 49.569C91.672 47.8037 91.9145 46.0462 92.4003 44.349C92.7199 43.3736 93.0904 42.4156 93.5103 41.479C94.0003 40.329 94.6003 39.019 95.3303 37.479ZM97.1003 50.059C97.0963 49.5309 97.0629 49.0034 97.0003 48.479C96.9661 48.1353 96.8818 47.7984 96.7503 47.479C96.6526 47.2391 96.4898 47.0313 96.2803 46.879C96.0715 46.7549 95.8332 46.6894 95.5903 46.6894C95.3474 46.6894 95.1091 46.7549 94.9003 46.879C94.6903 47.0333 94.5247 47.2402 94.4203 47.479C94.2865 47.7983 94.199 48.135 94.1603 48.479C94.0954 49.0031 94.0653 49.5309 94.0703 50.059C94.0703 52.409 94.5803 53.589 95.5903 53.589C96.6003 53.589 97.1003 52.479 97.1003 50.099V50.059Z" fill="white"/>
<path d="M136.87 31.679H117.51C116.626 31.679 115.91 32.3953 115.91 33.279V59.949C115.91 60.8326 116.626 61.549 117.51 61.549H136.87C137.754 61.549 138.47 60.8326 138.47 59.949V33.279C138.47 32.3953 137.754 31.679 136.87 31.679Z" fill="#203878"/>
<path d="M126.18 42.479H123.87V41.999C123.859 41.3065 123.93 40.6151 124.08 39.939C124.189 39.4251 124.407 38.9406 124.72 38.519C125.01 38.1511 125.393 37.8678 125.83 37.699C126.35 37.5156 126.899 37.4275 127.45 37.439C127.984 37.3905 128.522 37.4664 129.022 37.6608C129.521 37.8551 129.969 38.1625 130.33 38.559C131.025 39.6062 131.345 40.857 131.24 42.109C131.298 43.0876 131.155 44.0676 130.82 44.989C130.662 45.3097 130.442 45.5958 130.172 45.831C129.903 46.0661 129.589 46.2456 129.25 46.359C129.984 46.5477 130.613 47.0186 131 47.669C131.37 48.5783 131.531 49.5592 131.47 50.539C131.59 51.9464 131.239 53.3537 130.47 54.539C130.076 54.9868 129.581 55.3358 129.027 55.5581C128.473 55.7804 127.875 55.8697 127.28 55.819C124.81 55.819 123.58 54.409 123.58 51.569V51.259C123.573 51.206 123.573 51.1521 123.58 51.099H125.85C125.85 51.229 125.85 51.339 125.85 51.439V51.679C125.823 52.1992 125.963 52.7143 126.25 53.149C126.374 53.3232 126.54 53.4637 126.732 53.558C126.924 53.6522 127.137 53.6973 127.35 53.689C127.618 53.6971 127.884 53.635 128.12 53.509C128.35 53.3716 128.534 53.17 128.65 52.929C128.796 52.612 128.894 52.2749 128.94 51.929C129.009 51.4153 129.043 50.8974 129.04 50.379C129.103 49.5607 128.929 48.7417 128.54 48.019C128.349 47.7692 128.097 47.572 127.808 47.4461C127.52 47.3202 127.204 47.2696 126.89 47.299H126.61H126.26V45.209H126.6C126.944 45.2531 127.293 45.2214 127.623 45.116C127.953 45.0106 128.256 44.8341 128.51 44.599C128.921 43.9101 129.096 43.1064 129.01 42.309C129.004 40.4224 128.52 39.479 127.56 39.479C126.63 39.479 126.17 40.269 126.17 41.859L126.18 42.479Z" fill="white"/>
<path d="M111.28 40.4191C111.468 40.4162 111.654 40.453 111.826 40.5271C111.999 40.6012 112.153 40.711 112.28 40.8491C112.412 40.98 112.516 41.1359 112.586 41.3076C112.657 41.4794 112.692 41.6635 112.69 41.8491C112.689 42.223 112.542 42.5816 112.28 42.8491C112.08 43.05 111.825 43.1874 111.547 43.2439C111.269 43.3004 110.981 43.2735 110.718 43.1667C110.455 43.0599 110.23 42.8779 110.07 42.6435C109.91 42.4091 109.823 42.1327 109.82 41.8491C109.817 41.6624 109.853 41.4772 109.925 41.3051C109.998 41.1329 110.105 40.9777 110.24 40.8491C110.376 40.7113 110.538 40.6022 110.716 40.5283C110.895 40.4544 111.087 40.4173 111.28 40.4191ZM111.28 49.9391C111.468 49.9362 111.654 49.973 111.826 50.0471C111.999 50.1212 112.153 50.231 112.28 50.3691C112.535 50.6399 112.676 50.9975 112.676 51.3691C112.676 51.7407 112.535 52.0983 112.28 52.3691C112.009 52.6233 111.652 52.7661 111.28 52.7691C110.907 52.7644 110.549 52.6178 110.28 52.3591C110.148 52.2311 110.043 52.0781 109.97 51.9091C109.898 51.7277 109.861 51.5343 109.86 51.3391C109.859 51.1527 109.896 50.968 109.968 50.7961C110.04 50.6242 110.146 50.4688 110.28 50.3391C110.549 50.0814 110.908 49.9381 111.28 49.9391Z" fill="#1D1D1D"/>
<path d="M143.99 0.479004L169.9 49.819L188.25 41.129L202.21 34.519L190.56 27.709L189.6 27.139L143.99 0.479004Z" fill="#C4F042"/>
<path d="M143.99 0.479004L211.21 29.589L232.2 23.679L143.99 0.479004Z" fill="#C4F042"/>
<path d="M188.25 41.129L202.21 58.449V34.519L188.25 41.129Z" fill="#203878"/>
<path d="M143.99 0.479004L202.21 34.519V58.449L211.21 29.589L143.99 0.479004Z" fill="#3F8EE7"/>
<path d="M207.26 57.689C216.86 61.979 218.34 79.119 210.13 84.189C201.92 89.259 210.37 65.629 226.72 76.189C239.01 84.189 233.14 102.239 233.14 102.239" stroke="#1D1D1D" stroke-width="2" stroke-linecap="round" stroke-linejoin="round"/>
<path d="M71.8527 184.542C77.6628 184.542 82.3729 179.832 82.3729 174.022C82.3729 168.212 77.6628 163.502 71.8527 163.502C66.0426 163.502 61.3325 168.212 61.3325 174.022C61.3325 179.832 66.0426 184.542 71.8527 184.542Z" fill="#203878"/>
<path d="M12.2962 203.759L6.25719 201.211C5.52673 200.902 4.87587 200.432 4.35364 199.835C3.8314 199.238 3.4514 198.531 3.24226 197.766L0.566392 187.988C0.358794 187.223 0.326796 186.421 0.472787 185.641C0.618779 184.862 0.938985 184.126 1.40947 183.488L5.31331 178.237L12.2962 203.759Z" fill="#C4F042"/>
<path d="M65.9236 143.065L59.3381 144.865L75.7756 204.992L82.3611 203.192L65.9236 143.065Z" fill="white"/>
<path d="M75.7931 204.987L72.4208 202.98C68.3648 200.605 63.875 199.064 59.2153 198.449C54.5556 197.834 49.8198 198.156 45.2864 199.397L34.6012 202.32L13.5242 208.084L4.177 173.903L35.9575 165.206C40.4958 163.964 44.7398 161.827 48.4398 158.92C52.1397 156.013 55.2209 152.396 57.5019 148.28L59.3897 144.862L63.0552 158.324L75.7931 204.987Z" fill="#F94F06"/>
<path d="M35.0733 165.44L4.11719 173.903L13.4645 208.094L44.4206 199.632L35.0733 165.44Z" fill="#3F8EE7"/>
<path d="M13.4783 208.084L14.4405 211.594C15.0549 213.856 16.5278 215.79 18.5459 216.982C23.4228 219.87 27.5289 223.894 30.514 228.712L38.4133 241.413C38.8295 242.097 39.4578 242.625 40.2024 242.918C40.9469 243.211 41.7669 243.252 42.5371 243.035L54.5602 239.746C54.9087 239.65 55.235 239.487 55.5204 239.265C55.8058 239.044 56.0447 238.768 56.2234 238.454C56.4022 238.14 56.5172 237.794 56.562 237.435C56.6068 237.076 56.5805 236.712 56.4846 236.364L55.779 233.789C55.6493 233.317 55.3957 232.887 55.0445 232.546C54.6932 232.204 54.2571 231.963 53.7812 231.846C51.8763 231.378 50.0842 230.534 48.5104 229.363C46.9366 228.192 45.6129 226.718 44.6173 225.028L31.742 203.09L13.4783 208.084Z" fill="#C4F042"/>
<path d="M37.772 201.44L40.6037 206.49C40.8049 206.847 40.922 207.245 40.946 207.655C40.9699 208.064 40.9001 208.473 40.7419 208.852C40.5837 209.23 40.3413 209.567 40.0331 209.837C39.7249 210.108 39.359 210.304 38.9634 210.412L36.4524 211.099L31.7422 203.09L37.772 201.44Z" fill="#203878"/>
<g style="mix-blend-mode:color-burn" opacity="0.5">
<path d="M14.4405 211.594L32.695 204.712L31.742 203.09L13.4783 208.084L14.4405 211.594Z" fill="#203878"/>
</g>
<g style="mix-blend-mode:color-burn" opacity="0.5">
<path d="M75.793 204.987L72.4206 202.98C68.3646 200.605 63.8749 199.064 59.2152 198.449C54.5554 197.834 49.8197 198.156 45.2862 199.397L37.7993 201.44C37.7993 201.44 67.4813 186.778 69.0391 154.319L82.4002 203.181L75.793 204.987Z" fill="#203878"/>
</g>
</svg>
