<svg width="225" height="190" viewBox="0 0 225 190" fill="none" xmlns="http://www.w3.org/2000/svg">
<path d="M167.486 186.196H99.6264C94.6157 186.196 91.7216 182.127 93.1644 177.116L134.425 33.8885C135.867 28.8692 141.103 24.8088 146.113 24.8088H213.973C218.993 24.8088 221.887 28.8692 220.444 33.8885L179.184 177.116C177.741 182.127 172.506 186.196 167.486 186.196Z" fill="#203878"/>
<path d="M222.405 30.0182L218.889 26.6144L218.025 28.6101H150.113C145.094 28.6101 139.859 32.6704 138.416 37.6898L94.6072 184.278L98.7194 188.191C100.058 189.403 101.813 190.05 103.618 189.997H171.486C176.497 189.997 181.732 185.928 183.175 180.917L224.436 37.6898C224.862 36.3504 224.898 34.9171 224.538 33.5582C224.178 32.1993 223.439 30.9713 222.405 30.0182Z" fill="#203878"/>
<path d="M217.455 34.9943L176.851 176.01C175.711 179.976 171.564 183.189 167.608 183.189H101.294C97.3372 183.189 95.0392 179.976 96.1796 176.01L136.783 34.9943C137.924 31.029 142.079 27.8152 146.036 27.8152H212.367C213.493 27.7898 214.603 28.0897 215.563 28.6791C217.412 29.9232 218.241 32.2816 217.455 34.9943Z" fill="#C7E4FE"/>
<path d="M186.199 39.1928H165.603C165.181 39.2144 164.759 39.1293 164.378 38.9454C163.997 38.7616 163.669 38.4848 163.423 38.1407C163.177 37.7966 163.021 37.3961 162.97 36.9761C162.92 36.5561 162.975 36.13 163.132 35.7372C163.441 34.7758 164.033 33.9306 164.833 33.3135C165.632 32.6965 166.599 32.3366 167.607 32.2816H188.194C190.112 32.2816 191.218 33.8366 190.665 35.7372C190.359 36.6979 189.767 37.5428 188.97 38.16C188.172 38.7771 187.206 39.1373 186.199 39.1928Z" fill="#203878"/>
<g style="mix-blend-mode:hard-light" opacity="0.2">
<path d="M217.455 34.9943L176.851 176.01C175.711 179.976 171.564 183.189 167.608 183.189H101.294C97.3372 183.189 95.0392 179.976 96.1796 176.01L116.447 105.671L215.546 28.6877C217.412 29.9231 218.241 32.2816 217.455 34.9943Z" fill="#203878"/>
</g>
<path d="M218.487 56.7855L215.687 55.9874C215.105 55.8213 214.498 56.159 214.332 56.7418L206.543 84.0673C206.376 84.65 206.714 85.2571 207.297 85.4232L210.097 86.2213C210.679 86.3874 211.287 86.0496 211.453 85.4669L219.242 58.1414C219.408 57.5586 219.07 56.9516 218.487 56.7855Z" fill="#3F8EE7"/>
<path d="M142.062 72.2287H190.147C195.244 72.2287 198.147 76.3668 196.635 81.4639L182.38 129.54C180.869 134.638 175.469 138.767 170.415 138.767H122.33C117.233 138.767 114.33 134.638 115.842 129.54L130.097 81.4639C131.608 76.3668 136.965 72.2287 142.062 72.2287Z" fill="white"/>
<mask id="mask0_1461_10103" style="mask-type:luminance" maskUnits="userSpaceOnUse">
<path d="M145.673 80.6951H181.516C185.318 80.6951 187.486 83.7793 186.363 87.6064L175.728 123.45C174.605 127.251 170.605 130.361 166.804 130.361H130.96C127.159 130.361 124.991 127.277 126.114 123.45L136.714 87.5805C137.872 83.7533 141.897 80.6951 145.673 80.6951Z" fill="white"/>
</mask>
<g mask="url(#mask0_1461_10103)">
<path d="M145.673 80.6951H181.516C185.318 80.6951 187.486 83.7793 186.363 87.6064L175.728 123.45C174.605 127.251 170.605 130.361 166.804 130.361H130.96C127.159 130.361 124.991 127.277 126.114 123.45L136.714 87.5805C137.872 83.7533 141.897 80.6951 145.673 80.6951Z" fill="#C4F042"/>
<path fill-rule="evenodd" clip-rule="evenodd" d="M192.004 58.5099C179.166 58.8986 166.018 69.5247 162.631 82.2501C159.245 94.9755 166.951 104.971 179.745 104.582C192.54 104.193 205.74 93.5587 209.118 80.8419C212.496 68.1252 204.842 58.1211 192.004 58.5099Z" stroke="white" stroke-width="6" stroke-miterlimit="10"/>
<path fill-rule="evenodd" clip-rule="evenodd" d="M132.74 106.362C119.868 106.751 106.685 117.411 103.289 130.163C99.8943 142.914 107.609 152.944 120.455 152.555C133.302 152.166 146.511 141.506 149.906 128.754C153.301 116.003 145.612 105.964 132.74 106.362Z" stroke="white" stroke-width="6" stroke-miterlimit="10"/>
</g>
<path d="M92.2054 117.446H5.52071C2.59117 117.446 0.216309 119.821 0.216309 122.75V145.151C0.216309 148.081 2.59117 150.456 5.52071 150.456H92.2054C95.1349 150.456 97.5098 148.081 97.5098 145.151V122.75C97.5098 119.821 95.1349 117.446 92.2054 117.446Z" fill="#C7E4FE"/>
<path d="M81.467 117.446V150.464" stroke="white" stroke-miterlimit="10"/>
<path d="M65.4932 117.446V150.464" stroke="white" stroke-miterlimit="10"/>
<path d="M49.5195 117.446V150.464" stroke="white" stroke-miterlimit="10"/>
<path d="M0.216309 133.955H97.5098" stroke="white" stroke-miterlimit="10"/>
<path d="M5.68481 125.67H27.3257" stroke="#1D1D1D" stroke-width="2" stroke-linecap="round" stroke-linejoin="round"/>
<path d="M54.9104 125.67H59.8865" stroke="#1D1D1D" stroke-width="2" stroke-linecap="round" stroke-linejoin="round"/>
<path d="M54.9104 142.24H59.8865" stroke="#1D1D1D" stroke-width="2" stroke-linecap="round" stroke-linejoin="round"/>
<path d="M70.9875 125.67H75.9723" stroke="#1D1D1D" stroke-width="2" stroke-linecap="round" stroke-linejoin="round"/>
<path d="M70.9875 142.24H75.9723" stroke="#1D1D1D" stroke-width="2" stroke-linecap="round" stroke-linejoin="round"/>
<path d="M87.0737 125.67H92.0499" stroke="#1D1D1D" stroke-width="2" stroke-linecap="round" stroke-linejoin="round"/>
<path d="M87.0737 142.24H92.0499" stroke="#1D1D1D" stroke-width="2" stroke-linecap="round" stroke-linejoin="round"/>
<path d="M5.68481 142.24H41.9949" stroke="#1D1D1D" stroke-width="2" stroke-linecap="round" stroke-linejoin="round"/>
<path d="M41.1916 127.882L41.995 123.459L39.6452 125.67L38.0124 123.493L36.371 125.705L34.0298 123.493L34.8246 127.916L41.1916 127.882Z" fill="#F94F06" stroke="#F94F06" stroke-width="2" stroke-linecap="round" stroke-linejoin="round"/>
<path d="M149.344 66.121H64.1455C60.8056 66.121 58.0981 68.8285 58.0981 72.1684V103.978C58.0981 107.317 60.8056 110.025 64.1455 110.025H149.344C152.684 110.025 155.392 107.317 155.392 103.978V72.1684C155.392 68.8285 152.684 66.121 149.344 66.121Z" fill="#F94F06"/>
<path d="M147.521 99.4246H65.9597" stroke="white" stroke-width="5" stroke-linecap="round" stroke-linejoin="round"/>
<path d="M147.521 87.5804H65.9597" stroke="white" stroke-width="5" stroke-linecap="round" stroke-linejoin="round"/>
<path d="M147.521 75.7276H65.9597" stroke="white" stroke-width="5" stroke-linecap="round" stroke-linejoin="round"/>
<path d="M126.356 99.4246H106.745" stroke="#3F8EE7" stroke-width="5" stroke-linecap="round" stroke-linejoin="round"/>
<path d="M106.745 99.4246H90.823" stroke="#C4F042" stroke-width="5" stroke-linecap="round" stroke-linejoin="round"/>
<path d="M137.543 87.5804H106.745" stroke="#3F8EE7" stroke-width="5" stroke-linecap="round" stroke-linejoin="round"/>
<path d="M125.492 75.7276H106.745" stroke="#3F8EE7" stroke-width="5" stroke-linecap="round" stroke-linejoin="round"/>
<path d="M106.745 87.5804H73.2856" stroke="#C4F042" stroke-width="5" stroke-linecap="round" stroke-linejoin="round"/>
<path d="M65.9597 75.7276H106.745" stroke="#C4F042" stroke-width="5" stroke-linecap="round" stroke-linejoin="round"/>
<path d="M85.7953 0.818024H45.1916C40.4203 0.818024 36.5525 4.68588 36.5525 9.45712V50.0609C36.5525 54.8321 40.4203 58.7 45.1916 58.7H85.7953C90.5666 58.7 94.4344 54.8321 94.4344 50.0609V9.45712C94.4344 4.68588 90.5666 0.818024 85.7953 0.818024Z" fill="#3F8EE7"/>
<path d="M65.4934 48.1947C75.6753 48.1947 83.9293 39.9407 83.9293 29.7589C83.9293 19.5771 75.6753 11.3231 65.4934 11.3231C55.3116 11.3231 47.0576 19.5771 47.0576 29.7589C47.0576 39.9407 55.3116 48.1947 65.4934 48.1947Z" stroke="white" stroke-width="8" stroke-miterlimit="10"/>
<path d="M65.4934 11.3231C69.1397 11.3231 72.7041 12.4043 75.7358 14.4301C78.7676 16.4558 81.1306 19.3351 82.5259 22.7038C83.9213 26.0725 84.2864 29.7794 83.575 33.3556C82.8637 36.9318 81.1078 40.2167 78.5295 42.795C75.9512 45.3733 72.6663 47.1292 69.0901 47.8405C65.5139 48.5519 61.8071 48.1868 58.4384 46.7914C55.0696 45.396 52.1904 43.0331 50.1646 40.0013C48.1389 36.9696 47.0576 33.4052 47.0576 29.7589" stroke="#C4F042" stroke-width="8" stroke-linecap="round" stroke-linejoin="round"/>
<path d="M64.7505 25.7763C64.7505 28.0829 64.0421 29.2319 62.6081 29.2319C62.2906 29.2472 61.975 29.1747 61.6961 29.0223C61.4171 28.8699 61.1857 28.6435 61.0271 28.368C60.6364 27.5381 60.464 26.6223 60.526 25.7071C60.4657 24.7986 60.6351 23.8895 61.0185 23.0636C61.1777 22.7867 61.4105 22.5594 61.6911 22.4069C61.9718 22.2544 62.2891 22.1827 62.6081 22.1997C62.9327 22.1761 63.2573 22.2447 63.5447 22.3975C63.832 22.5503 64.0703 22.7812 64.2322 23.0636C64.6395 23.9068 64.8183 24.8422 64.7505 25.7763ZM68.5517 22.3206H69.7699L62.418 37.1021H61.2085L68.5517 22.3206ZM63.4547 25.7763C63.4851 25.1721 63.4269 24.5667 63.2819 23.9793C63.1523 23.6165 62.945 23.4264 62.6599 23.4264C62.3748 23.4264 62.1675 23.5992 62.0465 23.9448C61.901 24.5379 61.8428 25.1491 61.8737 25.759C61.8433 26.366 61.9015 26.9743 62.0465 27.5645C62.1675 27.9101 62.3662 28.0829 62.6599 28.0829C62.9536 28.0829 63.1523 27.9015 63.2819 27.5386C63.4257 26.9628 63.4839 26.369 63.4547 25.7763ZM70.461 33.8625C70.461 36.1345 69.7699 37.3181 68.3703 37.3181C68.0528 37.3334 67.7373 37.2609 67.4583 37.1085C67.1794 36.9561 66.9479 36.7297 66.7894 36.4542C66.4015 35.6478 66.226 34.7557 66.2797 33.8625C66.2797 31.5385 66.9794 30.4068 68.3617 30.4068C69.7439 30.4068 70.461 31.504 70.461 33.8625ZM69.1824 33.8625C69.2112 33.2601 69.1471 32.657 68.9923 32.0742C68.8714 31.7027 68.6641 31.5213 68.379 31.5213C68.2339 31.5249 68.0946 31.5785 67.9844 31.6729C67.8743 31.7673 67.8 31.8968 67.7742 32.0396C67.644 32.6235 67.586 33.2212 67.6014 33.8193C67.5743 34.4262 67.6325 35.034 67.7742 35.6248C67.8952 35.9704 68.0852 36.1345 68.3703 36.1345C68.9146 36.1345 69.1824 35.3743 69.1824 33.8452V33.8625Z" fill="white"/>
</svg>
