<svg width="249" height="185" viewBox="0 0 249 185" fill="none" xmlns="http://www.w3.org/2000/svg">
<path d="M240.285 0.343994H144.435C139.934 0.343994 136.285 3.99287 136.285 8.49399V76.064C136.285 80.5651 139.934 84.214 144.435 84.214H240.285C244.786 84.214 248.435 80.5651 248.435 76.064V8.49399C248.435 3.99287 244.786 0.343994 240.285 0.343994Z" fill="#C4F042"/>
<path d="M234.095 29.304H228.005C227.105 29.304 226.375 30.0337 226.375 30.934V72.644C226.375 73.5442 227.105 74.274 228.005 74.274H234.095C234.995 74.274 235.725 73.5442 235.725 72.644V30.934C235.725 30.0337 234.995 29.304 234.095 29.304Z" fill="white"/>
<path d="M220.225 18.5239H214.135C213.235 18.5239 212.505 19.2537 212.505 20.1539V72.6439C212.505 73.5442 213.235 74.2739 214.135 74.2739H220.225C221.125 74.2739 221.855 73.5442 221.855 72.6439V20.1539C221.855 19.2537 221.125 18.5239 220.225 18.5239Z" fill="white"/>
<path d="M192.485 33.2041H186.395C185.495 33.2041 184.765 33.9339 184.765 34.8341V72.6441C184.765 73.5443 185.495 74.2741 186.395 74.2741H192.485C193.385 74.2741 194.115 73.5443 194.115 72.6441V34.8341C194.115 33.9339 193.385 33.2041 192.485 33.2041Z" fill="white"/>
<path d="M206.355 43.5439H200.265C199.365 43.5439 198.635 44.2737 198.635 45.1739V72.6439C198.635 73.5442 199.365 74.2739 200.265 74.2739H206.355C207.255 74.2739 207.985 73.5442 207.985 72.6439V45.1739C207.985 44.2737 207.255 43.5439 206.355 43.5439Z" fill="white"/>
<path d="M178.615 18.5239H172.525C171.625 18.5239 170.895 19.2537 170.895 20.1539V72.6439C170.895 73.5442 171.625 74.2739 172.525 74.2739H178.615C179.515 74.2739 180.245 73.5442 180.245 72.6439V20.1539C180.245 19.2537 179.515 18.5239 178.615 18.5239Z" fill="white"/>
<path d="M164.745 43.5439H158.655C157.755 43.5439 157.025 44.2737 157.025 45.1739V72.6439C157.025 73.5442 157.755 74.2739 158.655 74.2739H164.745C165.645 74.2739 166.375 73.5442 166.375 72.6439V45.1739C166.375 44.2737 165.645 43.5439 164.745 43.5439Z" fill="white"/>
<path d="M145.845 10.2839V74.2739H240.615" stroke="#1D1D1D" stroke-width="2" stroke-linecap="round" stroke-linejoin="round"/>
<path d="M84.2149 81.574H11.0249C5.24804 81.574 0.564941 86.2571 0.564941 92.034V174.014C0.564941 179.791 5.24804 184.474 11.0249 184.474H84.2149C89.9918 184.474 94.6749 179.791 94.6749 174.014V92.034C94.6749 86.2571 89.9918 81.574 84.2149 81.574Z" fill="#3F8EE7"/>
<path d="M47.6149 135.904C59.4007 135.904 68.9549 126.35 68.9549 114.564C68.9549 102.778 59.4007 93.2239 47.6149 93.2239C35.8291 93.2239 26.2749 102.778 26.2749 114.564C26.2749 126.35 35.8291 135.904 47.6149 135.904Z" stroke="white" stroke-width="8" stroke-miterlimit="10"/>
<path d="M47.6149 93.2239C51.836 93.2219 55.9628 94.4718 59.4735 96.8155C62.9842 99.1591 65.7209 102.491 67.3376 106.39C68.9543 110.29 69.3784 114.581 68.5561 118.721C67.7338 122.861 65.7022 126.665 62.7181 129.65C59.7341 132.635 55.9316 134.669 51.7918 135.493C47.652 136.317 43.3607 135.895 39.4608 134.28C35.5608 132.666 32.2274 129.93 29.882 126.421C27.5367 122.911 26.2849 118.785 26.2849 114.564" stroke="#C4F042" stroke-width="8" stroke-linecap="round" stroke-linejoin="round"/>
<path d="M46.7649 109.944C46.7649 112.624 45.9349 113.944 44.2849 113.944C43.9157 113.964 43.5483 113.881 43.2235 113.704C42.8987 113.527 42.6292 113.264 42.4449 112.944C41.671 110.97 41.671 108.777 42.4449 106.804C42.6292 106.483 42.8987 106.22 43.2235 106.044C43.5483 105.867 43.9157 105.784 44.2849 105.804C44.659 105.779 45.0327 105.859 45.3633 106.036C45.694 106.212 45.9682 106.479 46.1549 106.804C46.6325 107.778 46.843 108.862 46.7649 109.944ZM51.1549 105.944H52.5649L44.0849 123.044H42.6749L51.1549 105.944ZM45.2549 109.944C45.2881 109.243 45.2139 108.542 45.0349 107.864C44.8882 107.444 44.6482 107.234 44.3149 107.234C44.1463 107.24 43.9845 107.302 43.8557 107.411C43.7269 107.52 43.6385 107.669 43.6049 107.834C43.3381 109.218 43.3381 110.64 43.6049 112.024C43.6405 112.187 43.7297 112.334 43.8583 112.441C43.987 112.548 44.1477 112.609 44.3149 112.614C44.6449 112.614 44.8849 112.414 45.0349 111.994C45.2137 111.326 45.2879 110.634 45.2549 109.944ZM53.3749 119.344C53.3749 122.011 52.5649 123.344 50.9449 123.344C50.5774 123.362 50.2121 123.278 49.8892 123.101C49.5663 122.925 49.2984 122.663 49.1149 122.344C48.6697 121.409 48.4701 120.377 48.5349 119.344C48.5349 116.677 49.3349 115.344 50.9349 115.344C52.5649 115.224 53.3749 116.584 53.3749 119.344ZM51.8849 119.344C51.9152 118.647 51.8444 117.95 51.6749 117.274C51.5249 116.844 51.2849 116.634 50.9549 116.634C50.6249 116.634 50.3949 116.834 50.2649 117.234C50.1109 117.916 50.047 118.615 50.0749 119.314C50.0396 120.017 50.107 120.721 50.2749 121.404C50.4049 121.794 50.6349 121.994 50.9549 121.994C51.5649 121.944 51.8849 121.064 51.8849 119.344Z" fill="white"/>
<path d="M14.4464 160.716H17.1998V172.794H15.6432V162.101H14.4464V160.716ZM20.5947 160.716H24.4354V162.117H21.8306L21.4395 165.152H21.635C22.1096 165.152 22.5294 165.227 22.8944 165.378C23.2647 165.53 23.575 165.751 23.8253 166.043C24.0756 166.335 24.2659 166.695 24.3963 167.123C24.5267 167.55 24.5918 168.038 24.5918 168.586C24.5918 169.941 24.2972 171.008 23.7079 171.785C23.1187 172.551 22.2999 172.935 21.2517 172.935C20.6625 172.935 20.0236 172.768 19.3353 172.434L19.742 170.995C20.3 171.287 20.7668 171.433 21.1422 171.433C21.6741 171.433 22.0965 171.193 22.4094 170.713C22.7223 170.228 22.8788 169.576 22.8788 168.758C22.8788 167.209 22.2139 166.434 20.8841 166.434C20.5556 166.434 20.2244 166.484 19.8907 166.583L20.5947 160.716Z" fill="white"/>
<path d="M11.7949 150.214H27.2649" stroke="#1D1D1D" stroke-width="2" stroke-linecap="round" stroke-linejoin="round"/>
<path d="M76.8906 166.239C77.433 166.437 77.8058 166.753 78.0092 167.185C78.2126 167.618 78.3143 168.32 78.3143 169.29C78.3143 170.541 78.1031 171.462 77.6807 172.051C77.2635 172.64 76.6064 172.935 75.7095 172.935C74.8073 172.935 74.145 172.64 73.7226 172.051C73.3054 171.462 73.0968 170.541 73.0968 169.29C73.0968 168.32 73.1985 167.618 73.4019 167.185C73.6053 166.753 73.9781 166.437 74.5205 166.239C74.0407 166.03 73.7018 165.723 73.5036 165.316C73.3054 164.878 73.2063 164.286 73.2063 163.54C73.2063 163.024 73.2533 162.578 73.3471 162.203C73.4462 161.827 73.5975 161.519 73.8008 161.28C74.0042 161.034 74.2624 160.855 74.5752 160.74C74.8933 160.625 75.2714 160.568 75.7095 160.568C76.1475 160.568 76.523 160.625 76.8359 160.74C77.1488 160.855 77.4069 161.034 77.6103 161.28C77.8137 161.519 77.9623 161.827 78.0562 162.203C78.1552 162.578 78.2048 163.024 78.2048 163.54C78.2048 164.286 78.1057 164.878 77.9075 165.316C77.7094 165.723 77.3704 166.03 76.8906 166.239ZM76.6012 163.673C76.6012 162.536 76.3014 161.968 75.7017 161.968C75.1072 161.968 74.8099 162.531 74.8099 163.658C74.8099 164.909 75.1098 165.535 75.7095 165.535C76.304 165.535 76.6012 164.914 76.6012 163.673ZM76.7107 169.477C76.7107 169.055 76.6925 168.695 76.656 168.398C76.6195 168.095 76.5595 167.85 76.4761 167.663C76.3926 167.475 76.2857 167.337 76.1553 167.248C76.0302 167.159 75.879 167.115 75.7017 167.115C75.3523 167.115 75.0967 167.295 74.9351 167.655C74.7786 168.015 74.7004 168.596 74.7004 169.399C74.7004 170.802 75.0368 171.503 75.7095 171.503C76.377 171.503 76.7107 170.828 76.7107 169.477Z" fill="white"/>
<path d="M67.9749 150.214H83.4448" stroke="#1D1D1D" stroke-width="2" stroke-linecap="round" stroke-linejoin="round"/>
<path d="M50.3515 166.849C50.3515 169.018 50.1429 170.583 49.7258 171.542C49.3138 172.471 48.6124 172.935 47.6216 172.935C46.6308 172.935 45.9267 172.468 45.5096 171.535C45.0976 170.627 44.8916 169.034 44.8916 166.755C44.8916 164.476 45.0976 162.883 45.5096 161.976C45.9215 161.037 46.6229 160.568 47.6138 160.568C48.5316 160.568 49.2095 160.98 49.6475 161.804C50.1169 162.675 50.3515 164.356 50.3515 166.849ZM48.6932 166.849C48.6932 165.024 48.615 163.762 48.4586 163.063C48.3021 162.369 48.0179 162.023 47.6059 162.023C47.194 162.023 46.9071 162.367 46.7455 163.055C46.589 163.744 46.5108 164.982 46.5108 166.771C46.5108 168.559 46.589 169.801 46.7455 170.494C46.9071 171.183 47.194 171.527 47.6059 171.527C48.0127 171.527 48.2943 171.185 48.4507 170.502C48.6124 169.85 48.6932 168.632 48.6932 166.849Z" fill="white"/>
<path d="M39.885 150.214H55.355" stroke="#1D1D1D" stroke-width="2" stroke-linecap="round" stroke-linejoin="round"/>
<path d="M168.035 27.7539H69.415C65.549 27.7539 62.415 30.8879 62.415 34.7539V135.084C62.415 138.95 65.549 142.084 69.415 142.084H168.035C171.901 142.084 175.035 138.95 175.035 135.084V34.7539C175.035 30.8879 171.901 27.7539 168.035 27.7539Z" fill="#F94F06"/>
<path d="M86.6551 41.1641H72.5251C71.9729 41.1641 71.5251 41.6118 71.5251 42.1641V56.5341C71.5251 57.0863 71.9729 57.5341 72.5251 57.5341H86.6551C87.2074 57.5341 87.6551 57.0863 87.6551 56.5341V42.1641C87.6551 41.6118 87.2074 41.1641 86.6551 41.1641Z" fill="white"/>
<path d="M165.375 41.1641H151.245C150.693 41.1641 150.245 41.6118 150.245 42.1641V56.5341C150.245 57.0863 150.693 57.5341 151.245 57.5341H165.375C165.927 57.5341 166.375 57.0863 166.375 56.5341V42.1641C166.375 41.6118 165.927 41.1641 165.375 41.1641Z" fill="white"/>
<path d="M165.935 127.474H71.5251" stroke="white" stroke-width="5" stroke-linecap="round" stroke-linejoin="round"/>
<path d="M165.935 113.754H71.5251" stroke="white" stroke-width="5" stroke-linecap="round" stroke-linejoin="round"/>
<path d="M165.935 100.044H71.5251" stroke="white" stroke-width="5" stroke-linecap="round" stroke-linejoin="round"/>
<path d="M141.425 127.474H118.725" stroke="#3F8EE7" stroke-width="5" stroke-linecap="round" stroke-linejoin="round"/>
<path d="M118.725 127.474H100.295" stroke="#C7E4FE" stroke-width="5" stroke-linecap="round" stroke-linejoin="round"/>
<path d="M154.375 113.754H118.725" stroke="#3F8EE7" stroke-width="5" stroke-linecap="round" stroke-linejoin="round"/>
<path d="M140.425 100.044H118.725" stroke="#3F8EE7" stroke-width="5" stroke-linecap="round" stroke-linejoin="round"/>
<path d="M118.725 113.754H79.9951" stroke="#C7E4FE" stroke-width="5" stroke-linecap="round" stroke-linejoin="round"/>
<path d="M71.5251 100.044H118.725" stroke="#C7E4FE" stroke-width="5" stroke-linecap="round" stroke-linejoin="round"/>
<path d="M165.935 86.334H71.5251" stroke="white" stroke-width="5" stroke-linecap="round" stroke-linejoin="round"/>
<path d="M165.935 72.614H71.5251" stroke="white" stroke-width="5" stroke-linecap="round" stroke-linejoin="round"/>
<path d="M141.425 86.334H118.725" stroke="#3F8EE7" stroke-width="5" stroke-linecap="round" stroke-linejoin="round"/>
<path d="M118.725 86.334H100.295" stroke="#C7E4FE" stroke-width="5" stroke-linecap="round" stroke-linejoin="round"/>
<path d="M154.375 72.614H118.725" stroke="#3F8EE7" stroke-width="5" stroke-linecap="round" stroke-linejoin="round"/>
<path d="M118.725 72.614H79.9951" stroke="#C7E4FE" stroke-width="5" stroke-linecap="round" stroke-linejoin="round"/>
<path d="M114.595 39.5039H101.835C101.25 39.5039 100.775 39.9785 100.775 40.5639V58.1439C100.775 58.7293 101.25 59.2039 101.835 59.2039H114.595C115.181 59.2039 115.655 58.7293 115.655 58.1439V40.5639C115.655 39.9785 115.181 39.5039 114.595 39.5039Z" fill="#203878"/>
<path d="M108.235 43.344H109.925L108.815 45.624C108.625 46.044 108.425 46.484 108.225 46.944C108.025 47.404 107.825 47.944 107.605 48.434C107.964 48.1182 108.418 47.9317 108.895 47.904C109.203 47.8953 109.507 47.9709 109.775 48.1224C110.042 48.274 110.264 48.4958 110.415 48.764C110.829 49.6678 111.005 50.6629 110.925 51.654C110.999 52.6341 110.795 53.6152 110.335 54.484C110.087 54.7596 109.783 54.9783 109.443 55.1253C109.103 55.2722 108.735 55.3439 108.364 55.3353C107.994 55.3268 107.63 55.2382 107.297 55.0757C106.964 54.9133 106.67 54.6807 106.435 54.394C105.958 53.4337 105.748 52.3633 105.825 51.294C105.82 50.1303 105.981 48.9718 106.305 47.854C106.511 47.2005 106.755 46.5594 107.035 45.934C107.355 45.204 107.755 44.344 108.235 43.344ZM109.395 51.644C109.418 51.2944 109.418 50.9436 109.395 50.594C109.368 50.3535 109.307 50.1179 109.215 49.894C109.154 49.7326 109.046 49.5932 108.905 49.494C108.773 49.4037 108.615 49.3582 108.455 49.364C108.292 49.3567 108.13 49.4023 107.995 49.494C107.854 49.5892 107.746 49.7253 107.685 49.884C107.593 50.1114 107.532 50.3502 107.505 50.594C107.488 50.9271 107.488 51.2609 107.505 51.594C107.505 53.144 107.835 53.914 108.505 53.914C109.175 53.914 109.395 53.194 109.395 51.654V51.644Z" fill="white"/>
<path d="M135.625 39.5039H122.865C122.28 39.5039 121.805 39.9785 121.805 40.5639V58.1439C121.805 58.7293 122.28 59.2039 122.865 59.2039H135.625C136.21 59.2039 136.685 58.7293 136.685 58.1439V40.5639C136.685 39.9785 136.21 39.5039 135.625 39.5039Z" fill="#203878"/>
<path d="M128.565 46.6039H127.045V46.3439C127.036 45.8871 127.08 45.4309 127.175 44.9839C127.247 44.6446 127.391 44.3243 127.595 44.0439C127.792 43.8038 128.046 43.6179 128.335 43.5039C128.675 43.384 129.034 43.3264 129.395 43.3339C129.749 43.3036 130.105 43.3546 130.436 43.4828C130.767 43.6111 131.064 43.8132 131.305 44.0739C131.762 44.7645 131.973 45.5887 131.905 46.4139C131.94 47.0596 131.845 47.7058 131.625 48.3139C131.526 48.5225 131.387 48.7094 131.215 48.8639C131.043 49.0183 130.843 49.1373 130.625 49.2139C131.11 49.344 131.523 49.6603 131.775 50.0939C132.021 50.6957 132.127 51.3453 132.085 51.9939C132.16 52.9207 131.924 53.8459 131.415 54.6239C131.153 54.9193 130.826 55.1498 130.46 55.2973C130.094 55.4448 129.699 55.5052 129.305 55.4739C127.685 55.4739 126.865 54.5339 126.865 52.6639V52.4639C126.863 52.4273 126.863 52.3906 126.865 52.3539H128.365C128.36 52.4305 128.36 52.5073 128.365 52.5839C128.361 52.6339 128.361 52.684 128.365 52.7339C128.339 53.0882 128.435 53.4408 128.635 53.7339C128.715 53.8494 128.823 53.9429 128.949 54.0058C129.075 54.0687 129.214 54.099 129.355 54.0939C129.533 54.1 129.709 54.0586 129.865 53.9739C130.017 53.8856 130.14 53.7531 130.215 53.5939C130.314 53.3754 130.378 53.1425 130.405 52.9039C130.456 52.5731 130.48 52.2386 130.475 51.9039C130.517 51.3631 130.402 50.8216 130.145 50.3439C130.017 50.1807 129.85 50.0522 129.66 49.97C129.47 49.8879 129.262 49.8549 129.055 49.8739H128.875H128.645V48.4239H128.865C129.092 48.4529 129.322 48.4321 129.539 48.363C129.757 48.2939 129.957 48.1782 130.125 48.0239C130.394 47.5689 130.509 47.0396 130.455 46.5139C130.455 45.2839 130.145 44.6739 129.525 44.6739C128.905 44.6739 128.605 45.1939 128.605 46.2439L128.565 46.6039Z" fill="white"/>
<path d="M118.745 45.2639C118.989 45.2808 119.219 45.3869 119.391 45.562C119.562 45.7371 119.663 45.9691 119.675 46.2139C119.678 46.339 119.655 46.4633 119.606 46.5788C119.558 46.6942 119.486 46.7982 119.395 46.8839C119.311 46.9748 119.209 47.0468 119.095 47.0951C118.981 47.1433 118.859 47.1668 118.735 47.1639C118.608 47.1678 118.482 47.1448 118.365 47.0965C118.248 47.0483 118.142 46.9758 118.055 46.8839C117.881 46.7036 117.781 46.4644 117.775 46.2139C117.773 46.089 117.797 45.965 117.845 45.8498C117.893 45.7345 117.965 45.6304 118.055 45.5439C118.24 45.3652 118.488 45.2649 118.745 45.2639ZM118.745 51.5439C118.931 51.5485 119.111 51.6073 119.264 51.7132C119.416 51.8192 119.534 51.9675 119.603 52.1399C119.673 52.3123 119.69 52.5011 119.653 52.6831C119.616 52.8651 119.526 53.0323 119.395 53.1639C119.308 53.2501 119.205 53.3184 119.092 53.3647C118.979 53.411 118.857 53.4345 118.735 53.4339C118.605 53.4355 118.476 53.4117 118.355 53.3639C118.246 53.3126 118.144 53.2452 118.055 53.1639C117.963 53.0834 117.894 52.9799 117.855 52.8639C117.805 52.7468 117.778 52.6212 117.775 52.4939C117.774 52.3692 117.799 52.2456 117.847 52.1305C117.895 52.0154 117.966 51.9111 118.055 51.8239C118.24 51.6452 118.488 51.5449 118.745 51.5439Z" fill="white"/>
<path d="M229.837 135.904H129.497C126.106 135.904 123.357 138.653 123.357 142.044V167.974C123.357 171.365 126.106 174.114 129.497 174.114H229.837C233.228 174.114 235.977 171.365 235.977 167.974V142.044C235.977 138.653 233.228 135.904 229.837 135.904Z" fill="#C7E4FE"/>
<path d="M217.407 135.904V174.114" stroke="white" stroke-miterlimit="10"/>
<path d="M198.917 135.904V174.114" stroke="white" stroke-miterlimit="10"/>
<path d="M180.437 135.904V174.114" stroke="white" stroke-miterlimit="10"/>
<path d="M123.357 155.004H235.977" stroke="white" stroke-miterlimit="10"/>
<path d="M129.687 145.414H154.737" stroke="#1D1D1D" stroke-width="2" stroke-linecap="round" stroke-linejoin="round"/>
<path d="M186.667 145.414H192.437" stroke="#1D1D1D" stroke-width="2" stroke-linecap="round" stroke-linejoin="round"/>
<path d="M186.667 164.604H192.437" stroke="#1D1D1D" stroke-width="2" stroke-linecap="round" stroke-linejoin="round"/>
<path d="M205.287 145.414H211.047" stroke="#1D1D1D" stroke-width="2" stroke-linecap="round" stroke-linejoin="round"/>
<path d="M205.287 164.604H211.047" stroke="#1D1D1D" stroke-width="2" stroke-linecap="round" stroke-linejoin="round"/>
<path d="M223.897 145.414H229.657" stroke="#1D1D1D" stroke-width="2" stroke-linecap="round" stroke-linejoin="round"/>
<path d="M223.897 164.604H229.657" stroke="#1D1D1D" stroke-width="2" stroke-linecap="round" stroke-linejoin="round"/>
<path d="M129.687 164.604H171.717" stroke="#1D1D1D" stroke-width="2" stroke-linecap="round" stroke-linejoin="round"/>
<path d="M170.797 147.994L171.717 142.874L169.007 145.434L167.107 142.874L165.237 145.414L162.517 142.854L163.437 147.974L170.797 147.994Z" fill="#F94F06" stroke="#F94F06" stroke-width="2" stroke-linecap="round" stroke-linejoin="round"/>
</svg>
