<svg width="219" height="197" viewBox="0 0 219 197" fill="none" xmlns="http://www.w3.org/2000/svg">
<path d="M201.04 92.749H143.48C137.957 92.749 133.48 97.2262 133.48 102.749V160.309C133.48 165.832 137.957 170.309 143.48 170.309H201.04C206.563 170.309 211.04 165.832 211.04 160.309V102.749C211.04 97.2262 206.563 92.749 201.04 92.749Z" fill="#203878"/>
<path d="M199.42 96.3589H145.1C140.682 96.3589 137.1 99.9406 137.1 104.359V158.679C137.1 163.097 140.682 166.679 145.1 166.679H199.42C203.838 166.679 207.42 163.097 207.42 158.679V104.359C207.42 99.9406 203.838 96.3589 199.42 96.3589Z" fill="white"/>
<path d="M147.5 87.189H197.02C197.816 87.189 198.579 87.505 199.141 88.0676C199.704 88.6303 200.02 89.3933 200.02 90.189V92.739H144.5V90.189C144.5 89.3933 144.816 88.6303 145.379 88.0676C145.941 87.505 146.704 87.189 147.5 87.189Z" fill="#203878"/>
<path d="M197.02 175.859H147.5C146.704 175.859 145.941 175.543 145.379 174.98C144.816 174.418 144.5 173.655 144.5 172.859V170.309H200.02V172.859C200.02 173.655 199.704 174.418 199.141 174.98C198.579 175.543 197.816 175.859 197.02 175.859Z" fill="#203878"/>
<path d="M197.02 87.189H147.5C147.5 87.189 152.5 79.269 153.68 70.419C153.796 69.4416 154.268 68.5411 155.006 67.8898C155.744 67.2385 156.696 66.8822 157.68 66.889H186.6C187.58 66.8814 188.528 67.2335 189.265 67.8786C190.003 68.5237 190.478 69.417 190.6 70.389C191.78 79.249 197.02 87.189 197.02 87.189Z" fill="#C7E4FE"/>
<path d="M147.5 175.849H197.02C197.02 175.849 192.02 183.779 190.84 192.629C190.724 193.606 190.252 194.507 189.514 195.158C188.776 195.809 187.824 196.166 186.84 196.159H157.96C156.98 196.167 156.032 195.814 155.295 195.169C154.557 194.524 154.082 193.631 153.96 192.659C152.78 183.799 147.5 175.849 147.5 175.849Z" fill="#C7E4FE"/>
<path d="M212.69 133.259H210.63C210.078 133.259 209.63 133.707 209.63 134.259V155.489C209.63 156.041 210.078 156.489 210.63 156.489H212.69C213.242 156.489 213.69 156.041 213.69 155.489V134.259C213.69 133.707 213.242 133.259 212.69 133.259Z" fill="#3F8EE7"/>
<path d="M211.66 120.609C213.438 120.609 214.88 117.757 214.88 114.239C214.88 110.721 213.438 107.869 211.66 107.869C209.882 107.869 208.44 110.721 208.44 114.239C208.44 117.757 209.882 120.609 211.66 120.609Z" fill="#3F8EE7"/>
<mask id="mask0_1461_10049" style="mask-type:luminance" maskUnits="userSpaceOnUse">
<path d="M191.91 104.339H152.62C148.456 104.339 145.08 107.715 145.08 111.879V151.169C145.08 155.333 148.456 158.709 152.62 158.709H191.91C196.074 158.709 199.45 155.333 199.45 151.169V111.879C199.45 107.715 196.074 104.339 191.91 104.339Z" fill="white"/>
</mask>
<g mask="url(#mask0_1461_10049)">
<path d="M191.91 104.339H152.62C148.456 104.339 145.08 107.715 145.08 111.879V151.169C145.08 155.333 148.456 158.709 152.62 158.709H191.91C196.074 158.709 199.45 155.333 199.45 151.169V111.879C199.45 107.715 196.074 104.339 191.91 104.339Z" fill="#C4F042"/>
<path fill-rule="evenodd" clip-rule="evenodd" d="M196.18 80.0288C191.188 80.1795 186.353 81.8072 182.286 84.706C178.219 87.6048 175.103 91.6445 173.332 96.3143C171.561 100.984 171.215 106.074 172.337 110.941C173.459 115.807 176 120.232 179.636 123.655C183.273 127.077 187.844 129.345 192.769 130.17C197.695 130.995 202.754 130.342 207.308 128.291C211.862 126.241 215.706 122.886 218.353 118.651C221 114.416 222.332 109.491 222.18 104.499C221.976 97.8064 219.123 91.4689 214.247 86.8801C209.371 82.2913 202.872 79.8269 196.18 80.0288Z" stroke="white" stroke-width="6" stroke-miterlimit="10"/>
<path fill-rule="evenodd" clip-rule="evenodd" d="M146.78 132.459C141.772 132.612 136.922 134.246 132.843 137.155C128.765 140.064 125.64 144.118 123.865 148.803C122.09 153.488 121.744 158.594 122.871 163.476C123.998 168.357 126.548 172.795 130.197 176.228C133.847 179.66 138.432 181.934 143.374 182.76C148.315 183.587 153.391 182.929 157.958 180.871C162.526 178.812 166.381 175.446 169.035 171.197C171.689 166.947 173.024 162.007 172.87 156.999C172.664 150.285 169.799 143.928 164.906 139.326C160.014 134.724 153.494 132.254 146.78 132.459Z" stroke="white" stroke-width="6" stroke-miterlimit="10"/>
</g>
<path d="M111.5 18.489H38.3101C32.5332 18.489 27.8501 23.1721 27.8501 28.949V110.929C27.8501 116.706 32.5332 121.389 38.3101 121.389H111.5C117.277 121.389 121.96 116.706 121.96 110.929V28.949C121.96 23.1721 117.277 18.489 111.5 18.489Z" fill="#F94F06"/>
<path d="M74.9001 72.8189C86.6858 72.8189 96.2401 63.2647 96.2401 51.4789C96.2401 39.6932 86.6858 30.1389 74.9001 30.1389C63.1143 30.1389 53.5601 39.6932 53.5601 51.4789C53.5601 63.2647 63.1143 72.8189 74.9001 72.8189Z" stroke="white" stroke-width="8" stroke-miterlimit="10"/>
<path d="M74.9001 30.1389C79.1207 30.1389 83.2466 31.3905 86.7559 33.7354C90.2653 36.0802 93.0005 39.4131 94.6156 43.3125C96.2308 47.2118 96.6534 51.5026 95.83 55.6421C95.0066 59.7817 92.9742 63.5841 89.9897 66.5686C87.0053 69.553 83.2028 71.5855 79.0633 72.4089C74.9237 73.2323 70.633 72.8097 66.7336 71.1945C62.8342 69.5793 59.5014 66.8441 57.1565 63.3348C54.8116 59.8254 53.5601 55.6996 53.5601 51.4789" stroke="#C7E4FE" stroke-width="8" stroke-linecap="round" stroke-linejoin="round"/>
<path d="M74.04 46.8689C74.04 49.5389 73.22 50.8689 71.56 50.8689C71.1925 50.8867 70.8273 50.8027 70.5044 50.6263C70.1815 50.4499 69.9136 50.1878 69.73 49.8689C69.2778 48.9083 69.0782 47.8482 69.15 46.7889C69.0983 45.7417 69.3152 44.6987 69.78 43.7589C69.9636 43.44 70.2315 43.178 70.5544 43.0015C70.8773 42.8251 71.2425 42.7411 71.61 42.7589C71.9858 42.7316 72.3616 42.811 72.6942 42.9879C73.0268 43.1648 73.3027 43.4321 73.49 43.7589C73.9392 44.7306 74.1287 45.8021 74.04 46.8689ZM78.44 42.8689H79.85L71.37 59.9689H69.96L78.44 42.8689ZM72.54 46.8689C72.5739 46.1684 72.4997 45.4668 72.32 44.7889C72.17 44.3689 71.93 44.1489 71.6 44.1489C71.4315 44.1545 71.2697 44.2168 71.1409 44.3257C71.0121 44.4345 70.9237 44.5836 70.89 44.7489C70.7268 45.4363 70.6595 46.143 70.69 46.8489C70.66 47.5515 70.7273 48.2548 70.89 48.9389C70.9237 49.1042 71.0121 49.2533 71.1409 49.3622C71.2697 49.471 71.4315 49.5333 71.6 49.5389C71.9334 49.5389 72.1734 49.3289 72.32 48.9089C72.4983 48.2444 72.5725 47.5562 72.54 46.8689ZM80.66 56.2289C80.66 58.8623 79.85 60.1956 78.23 60.2289C77.8625 60.2467 77.4973 60.1627 77.1744 59.9863C76.8515 59.8099 76.5836 59.5478 76.4 59.2289C75.9549 58.2945 75.7553 57.262 75.82 56.2289C75.82 53.5623 76.62 52.2289 78.22 52.2289C79.84 52.1389 80.66 53.4989 80.66 56.2289ZM79.17 56.2289C79.2004 55.5324 79.1296 54.8352 78.96 54.1589C78.81 53.7289 78.57 53.5189 78.24 53.5189C77.91 53.5189 77.68 53.7189 77.54 54.1189C77.3956 54.8023 77.3352 55.5008 77.36 56.1989C77.3235 56.9016 77.3909 57.6059 77.56 58.2889C77.69 58.6889 77.92 58.8789 78.24 58.8789C78.86 58.8589 79.17 57.9789 79.17 56.2089V56.2289Z" fill="white"/>
<path d="M41.7315 97.6314H44.485V109.709H42.9283V99.0159H41.7315V97.6314ZM47.8798 97.6314H51.7206V99.0316H49.1157L48.7246 102.067H48.9202C49.3947 102.067 49.8145 102.142 50.1796 102.293C50.5498 102.445 50.8601 102.666 51.1104 102.958C51.3607 103.25 51.5511 103.61 51.6814 104.038C51.8118 104.465 51.877 104.953 51.877 105.501C51.877 106.856 51.5824 107.923 50.9931 108.7C50.4038 109.466 49.5851 109.85 48.5369 109.85C47.9476 109.85 47.3088 109.683 46.6204 109.349L47.0272 107.91C47.5852 108.202 48.0519 108.348 48.4274 108.348C48.9593 108.348 49.3817 108.108 49.6946 107.628C50.0075 107.143 50.1639 106.491 50.1639 105.673C50.1639 104.124 49.499 103.349 48.1692 103.349C47.8407 103.349 47.5096 103.399 47.1758 103.498L47.8798 97.6314Z" fill="white"/>
<path d="M39.0801 87.1389H54.5501" stroke="#1D1D1D" stroke-width="2" stroke-linecap="round" stroke-linejoin="round"/>
<path d="M104.176 103.154C104.718 103.352 105.091 103.668 105.294 104.1C105.498 104.533 105.599 105.235 105.599 106.205C105.599 107.456 105.388 108.377 104.966 108.966C104.549 109.555 103.892 109.85 102.995 109.85C102.092 109.85 101.43 109.555 101.008 108.966C100.591 108.377 100.382 107.456 100.382 106.205C100.382 105.235 100.484 104.533 100.687 104.1C100.89 103.668 101.263 103.352 101.806 103.154C101.326 102.945 100.987 102.638 100.789 102.231C100.591 101.793 100.492 101.201 100.492 100.455C100.492 99.939 100.538 99.4931 100.632 99.1176C100.731 98.7422 100.883 98.4345 101.086 98.1946C101.289 97.9495 101.548 97.7696 101.86 97.6549C102.179 97.5401 102.557 97.4828 102.995 97.4828C103.433 97.4828 103.808 97.5401 104.121 97.6549C104.434 97.7696 104.692 97.9495 104.895 98.1946C105.099 98.4345 105.247 98.7422 105.341 99.1176C105.44 99.4931 105.49 99.939 105.49 100.455C105.49 101.201 105.391 101.793 105.193 102.231C104.995 102.638 104.656 102.945 104.176 103.154ZM103.886 100.588C103.886 99.4514 103.587 98.883 102.987 98.883C102.392 98.883 102.095 99.4462 102.095 100.573C102.095 101.824 102.395 102.45 102.995 102.45C103.589 102.45 103.886 101.829 103.886 100.588ZM103.996 106.392C103.996 105.97 103.978 105.61 103.941 105.313C103.905 105.01 103.845 104.765 103.761 104.578C103.678 104.39 103.571 104.252 103.44 104.163C103.315 104.074 103.164 104.03 102.987 104.03C102.637 104.03 102.382 104.21 102.22 104.57C102.064 104.93 101.986 105.511 101.986 106.314C101.986 107.717 102.322 108.418 102.995 108.418C103.662 108.418 103.996 107.743 103.996 106.392Z" fill="white"/>
<path d="M95.26 87.1389H110.73" stroke="#1D1D1D" stroke-width="2" stroke-linecap="round" stroke-linejoin="round"/>
<path d="M77.6367 103.764C77.6367 105.933 77.4281 107.498 77.0109 108.457C76.5989 109.386 75.8975 109.85 74.9067 109.85C73.9159 109.85 73.2119 109.383 72.7947 108.45C72.3827 107.542 72.1768 105.949 72.1768 103.67C72.1768 101.391 72.3827 99.7982 72.7947 98.8908C73.2067 97.9521 73.9081 97.4828 74.8989 97.4828C75.8167 97.4828 76.4946 97.8948 76.9327 98.7187C77.402 99.5896 77.6367 101.271 77.6367 103.764ZM75.9784 103.764C75.9784 101.939 75.9002 100.677 75.7437 99.9781C75.5873 99.2845 75.3031 98.9377 74.8911 98.9377C74.4791 98.9377 74.1923 99.2819 74.0306 99.9703C73.8742 100.659 73.796 101.897 73.796 103.686C73.796 105.475 73.8742 106.716 74.0306 107.409C74.1923 108.098 74.4791 108.442 74.8911 108.442C75.2978 108.442 75.5794 108.1 75.7359 107.417C75.8975 106.765 75.9784 105.548 75.9784 103.764Z" fill="white"/>
<path d="M67.1702 87.1389H82.6402" stroke="#1D1D1D" stroke-width="2" stroke-linecap="round" stroke-linejoin="round"/>
<path d="M211.22 0.658936H112.6C108.734 0.658936 105.6 3.79294 105.6 7.65894V44.4789C105.6 48.3449 108.734 51.4789 112.6 51.4789H211.22C215.086 51.4789 218.22 48.3449 218.22 44.4789V7.65894C218.22 3.79294 215.086 0.658936 211.22 0.658936Z" fill="#3F8EE7"/>
<path d="M114.71 11.7791H209.12" stroke="white" stroke-width="5" stroke-linecap="round" stroke-linejoin="round"/>
<path d="M114.71 25.499H209.12" stroke="white" stroke-width="5" stroke-linecap="round" stroke-linejoin="round"/>
<path d="M114.71 39.209H209.12" stroke="white" stroke-width="5" stroke-linecap="round" stroke-linejoin="round"/>
<path d="M139.22 11.7791H161.91" stroke="#F94F06" stroke-width="5" stroke-linecap="round" stroke-linejoin="round"/>
<path d="M161.91 11.7791H180.35" stroke="#C4F042" stroke-width="5" stroke-linecap="round" stroke-linejoin="round"/>
<path d="M126.26 25.499H161.91" stroke="#F94F06" stroke-width="5" stroke-linecap="round" stroke-linejoin="round"/>
<path d="M140.21 39.209H161.91" stroke="#F94F06" stroke-width="5" stroke-linecap="round" stroke-linejoin="round"/>
<path d="M161.91 25.499H200.64" stroke="#C4F042" stroke-width="5" stroke-linecap="round" stroke-linejoin="round"/>
<path d="M209.12 39.209H161.91" stroke="#C4F042" stroke-width="5" stroke-linecap="round" stroke-linejoin="round"/>
<path d="M107.26 131.519H6.92003C3.529 131.519 0.780029 134.268 0.780029 137.659V163.589C0.780029 166.98 3.529 169.729 6.92003 169.729H107.26C110.651 169.729 113.4 166.98 113.4 163.589V137.659C113.4 134.268 110.651 131.519 107.26 131.519Z" fill="#C7E4FE"/>
<path d="M94.8301 131.519V169.739" stroke="white" stroke-miterlimit="10"/>
<path d="M76.3401 131.519V169.739" stroke="white" stroke-miterlimit="10"/>
<path d="M57.8501 131.519V169.739" stroke="white" stroke-miterlimit="10"/>
<path d="M0.780029 150.629H113.4" stroke="white" stroke-miterlimit="10"/>
<path d="M7.11011 141.039H32.1601" stroke="#1D1D1D" stroke-width="2" stroke-linecap="round" stroke-linejoin="round"/>
<path d="M64.0901 141.039H69.8501" stroke="#1D1D1D" stroke-width="2" stroke-linecap="round" stroke-linejoin="round"/>
<path d="M64.0901 160.219H69.8501" stroke="#1D1D1D" stroke-width="2" stroke-linecap="round" stroke-linejoin="round"/>
<path d="M82.7 141.039H88.47" stroke="#1D1D1D" stroke-width="2" stroke-linecap="round" stroke-linejoin="round"/>
<path d="M82.7 160.219H88.47" stroke="#1D1D1D" stroke-width="2" stroke-linecap="round" stroke-linejoin="round"/>
<path d="M101.32 141.039H107.08" stroke="#1D1D1D" stroke-width="2" stroke-linecap="round" stroke-linejoin="round"/>
<path d="M101.32 160.219H107.08" stroke="#1D1D1D" stroke-width="2" stroke-linecap="round" stroke-linejoin="round"/>
<path d="M7.11011 160.219H49.1401" stroke="#1D1D1D" stroke-width="2" stroke-linecap="round" stroke-linejoin="round"/>
<path d="M48.2099 143.599L49.1399 138.479L46.4199 141.039L44.5299 138.479L42.6299 141.039L39.9199 138.479L40.8399 143.599H48.2099Z" fill="#F94F06" stroke="#F94F06" stroke-width="2" stroke-linecap="round" stroke-linejoin="round"/>
</svg>
