<svg width="190" height="190" viewBox="0 0 190 190" fill="none" xmlns="http://www.w3.org/2000/svg">
<path d="M20.5005 87.17C20.3105 86.17 20.5005 41.85 20.5005 41.85C20.5005 32.8724 24.0668 24.2626 30.4149 17.9144C36.763 11.5663 45.3729 8 54.3505 8C63.328 8 71.9379 11.5663 78.286 17.9144C84.6341 24.2626 88.2005 32.8724 88.2005 41.85" stroke="#1D1D1D" stroke-width="2" stroke-linecap="round" stroke-linejoin="round"/>
<path d="M95.15 92.4002V143.53C95.15 144.916 94.6004 146.244 93.6217 147.225C92.6431 148.205 91.3153 148.758 89.93 148.76H10.22C8.83465 148.758 7.50695 148.205 6.52829 147.225C5.54964 146.244 5 144.916 5 143.53V92.4002C5 91.0148 5.54964 89.6861 6.52829 88.7055C7.50695 87.725 8.83465 87.1728 10.22 87.1702H89.93C91.3137 87.1781 92.6384 87.7319 93.6159 88.7113C94.5934 89.6907 95.1448 91.0164 95.15 92.4002Z" fill="#3F8EE7"/>
<path d="M181.85 49.4302H59.0603C57.2709 49.4302 55.8203 50.8808 55.8203 52.6702V75.1802C55.8203 76.9696 57.2709 78.4202 59.0603 78.4202H181.85C183.64 78.4202 185.09 76.9696 185.09 75.1802V52.6702C185.09 50.8808 183.64 49.4302 181.85 49.4302Z" fill="#F94F06"/>
<path d="M57.1799 111.81C57.1832 110.519 56.8345 109.251 56.1714 108.142C55.5084 107.034 54.556 106.127 53.4164 105.519C52.2769 104.911 50.9933 104.625 49.7035 104.692C48.4137 104.758 47.1663 105.175 46.0954 105.897C45.0245 106.619 44.1705 107.619 43.6251 108.79C43.0797 109.96 42.8634 111.258 42.9996 112.542C43.1358 113.826 43.6192 115.049 44.398 116.08C45.1767 117.11 46.2215 117.909 47.4199 118.39V131.23H52.7299V118.39C54.0438 117.863 55.1699 116.955 55.963 115.782C56.756 114.609 57.1799 113.226 57.1799 111.81Z" fill="white"/>
<path d="M72.0599 55.8301L73.6199 60.2101L77.8199 58.2201L75.8199 62.4101L80.1999 63.9701L75.8199 65.5301L77.8199 69.7301L73.6199 67.7301L72.0599 72.1101L70.4999 67.7301L66.3099 69.7301L68.2999 65.5301L63.9199 63.9701L68.2999 62.4101L66.3099 58.2201L70.4999 60.2101L72.0599 55.8301Z" fill="white" stroke="white" stroke-linecap="round" stroke-linejoin="round"/>
<path d="M96.2601 55.8301L97.8101 60.2101L102.01 58.2201L100.02 62.4101L104.4 63.9701L100.02 65.5301L102.01 69.7301L97.8101 67.7301L96.2601 72.1101L94.7001 67.7301L90.5001 69.7301L92.5001 65.5301L88.1201 63.9701L92.5001 62.4101L90.5001 58.2201L94.7001 60.2101L96.2601 55.8301Z" fill="white" stroke="white" stroke-linecap="round" stroke-linejoin="round"/>
<path d="M120.451 55.8301L122.011 60.2101L126.211 58.2201L124.211 62.4101L128.591 63.9701L124.211 65.5301L126.211 69.7301L122.011 67.7301L120.451 72.1101L118.901 67.7301L114.701 69.7301L116.691 65.5301L112.311 63.9701L116.691 62.4101L114.701 58.2201L118.901 60.2101L120.451 55.8301Z" fill="white" stroke="white" stroke-linecap="round" stroke-linejoin="round"/>
<path d="M144.651 55.8301L146.211 60.2101L150.401 58.2201L148.411 62.4101L152.791 63.9701L148.411 65.5301L150.401 69.7301L146.211 67.7301L144.651 72.1101L143.091 67.7301L138.891 69.7301L140.891 65.5301L136.511 63.9701L140.891 62.4101L138.891 58.2201L143.091 60.2101L144.651 55.8301Z" fill="white" stroke="white" stroke-linecap="round" stroke-linejoin="round"/>
<path d="M168.84 55.8301L170.4 60.2101L174.6 58.2201L172.6 62.4101L176.98 63.9701L172.6 65.5301L174.6 69.7301L170.4 67.7301L168.84 72.1101L167.29 67.7301L163.09 69.7301L165.08 65.5301L160.7 63.9701L165.08 62.4101L163.09 58.2201L167.29 60.2101L168.84 55.8301Z" fill="white" stroke="white" stroke-linecap="round" stroke-linejoin="round"/>
<g style="mix-blend-mode:color-burn" opacity="0.5">
<path d="M95.15 92.4001V143.53C95.15 144.916 94.6003 146.244 93.6217 147.225C92.643 148.205 91.3153 148.757 89.93 148.76H37.21C59.97 146.14 85.42 134.77 95.15 92.4001Z" fill="#203878"/>
</g>
<path d="M103 182C118.464 182 131 169.464 131 154C131 138.536 118.464 126 103 126C87.536 126 75 138.536 75 154C75 169.464 87.536 182 103 182Z" fill="#C4F042"/>
<path d="M90.8506 156.3L98.3606 163.81L117.141 145.04" stroke="white" stroke-width="2" stroke-linecap="round" stroke-linejoin="round"/>
</svg>
