<svg width="120" height="120" viewBox="0 0 120 120" fill="none" xmlns="http://www.w3.org/2000/svg">
<path d="M72.5495 12.9257C73.9508 12.1602 75.5237 11.7634 77.1204 11.7725C78.7172 11.7815 80.2854 12.1962 81.6779 12.9776C83.226 13.8539 84.4985 15.1452 85.3519 16.706C86.4075 18.6551 86.7442 20.9133 86.3031 23.0856C85.8619 25.2579 84.671 27.206 82.9387 28.5889C81.2064 29.9719 79.043 30.7018 76.827 30.6508C74.6109 30.5999 72.4833 29.7714 70.8164 28.3103C69.9828 27.5851 69.2869 26.7154 68.762 25.7431C68.1687 24.6529 67.796 23.4565 67.6653 22.2222C67.5346 20.9879 67.6483 19.74 68.0001 18.5496C68.3518 17.3593 68.9346 16.25 69.7152 15.285C70.4958 14.32 71.4589 13.5183 72.5495 12.9257Z" fill="#95BC23"/>
<mask id="mask0_1726_10105" style="mask-type:luminance" maskUnits="userSpaceOnUse" x="67" y="11" width="20" height="20">
<path d="M68.5478 17.1271C66.2835 21.8231 68.2548 27.4655 72.9508 29.7298C77.6468 31.9941 83.2892 30.0228 85.5535 25.3268C87.8178 20.6308 85.8465 14.9884 81.1505 12.7241C76.4545 10.4598 70.8121 12.4311 68.5478 17.1271Z" fill="white"/>
</mask>
<g mask="url(#mask0_1726_10105)">
<path d="M45.7406 38.9148C49.5116 45.8159 59.0099 47.8907 66.9557 43.5489C74.9015 39.2072 78.2859 30.093 74.5149 23.1918C70.744 16.2907 61.2457 14.2159 53.2999 18.5577C45.3541 22.8994 41.9697 32.0136 45.7406 38.9148Z" stroke="white" stroke-width="1.37093" stroke-miterlimit="10"/>
<path d="M81.3449 20.2142C85.242 27.3747 92.3302 31.041 97.1767 28.4032C102.023 25.7654 102.793 17.8224 98.8958 10.662C94.9986 3.50156 87.9105 -0.164748 83.0639 2.47304C78.2174 5.11083 77.4477 13.0538 81.3449 20.2142Z" stroke="white" stroke-width="1.37093" stroke-miterlimit="10"/>
</g>
<path d="M63.2721 23.014C61.5596 23.2464 59.8162 23.0047 58.2315 22.3151C56.6468 21.6254 55.2817 20.5144 54.2846 19.1028C53.2875 17.6913 52.6967 16.0333 52.5764 14.3093C52.4562 12.5852 52.8111 10.8613 53.6026 9.32494C54.394 7.78862 55.5917 6.49881 57.0653 5.59588C58.5388 4.69295 60.2318 4.21149 61.96 4.2039C63.6882 4.19631 65.3854 4.66287 66.8668 5.55282C68.3483 6.44277 69.5573 7.722 70.3622 9.25131C70.8819 10.2242 71.2222 11.2827 71.3669 12.3762C71.5344 13.6063 71.4579 14.8573 71.1417 16.0578C70.8255 17.2583 70.2758 18.3847 69.5241 19.3726C68.7723 20.3606 67.8332 21.1907 66.7605 21.8155C65.6877 22.4403 64.5023 22.8475 63.2721 23.014Z" fill="#C4F042"/>
<mask id="mask1_1726_10105" style="mask-type:luminance" maskUnits="userSpaceOnUse" x="52" y="4" width="20" height="20">
<path d="M63.3066 23.0008C68.471 22.2881 72.0798 17.5237 71.3671 12.3593C70.6543 7.19487 65.89 3.58605 60.7255 4.29878C55.5611 5.01151 51.9523 9.77589 52.665 14.9403C53.3778 20.1047 58.1421 23.7136 63.3066 23.0008Z" fill="white"/>
</mask>
<g mask="url(#mask1_1726_10105)">
<path d="M95.0341 8.71431C93.9754 0.891748 85.8158 -4.46152 76.8091 -3.24255C67.8024 -2.02358 61.3593 5.30603 62.418 13.1286C63.4767 20.9512 71.6363 26.3044 80.643 25.0855C89.6497 23.8665 96.0928 16.5369 95.0341 8.71431Z" stroke="white" stroke-width="1.37093" stroke-miterlimit="10"/>
<path d="M54.8198 13.7312C53.7264 5.65258 48.4074 -0.296492 42.9394 0.443553C37.4713 1.1836 33.925 8.33252 35.0183 16.4111C36.1117 24.4897 41.4308 30.4388 46.8988 29.6987C52.3668 28.9587 55.9132 21.8098 54.8198 13.7312Z" stroke="white" stroke-width="1.37093" stroke-miterlimit="10"/>
</g>
<g style="mix-blend-mode:multiply" opacity="0.2">
<path d="M63.2738 23.0138C61.6907 23.2284 60.079 23.038 58.5894 22.4605C57.0998 21.8829 55.781 20.9371 54.7563 19.7114C59.8717 21.9485 67.7611 19.9658 70.3639 9.25109C70.8836 10.224 71.2239 11.2825 71.3686 12.3759C71.5361 13.606 71.4596 14.8571 71.1434 16.0576C70.8272 17.2581 70.2775 18.3845 69.5257 19.3724C68.774 20.3603 67.8349 21.1904 66.7622 21.8152C65.6894 22.44 64.504 22.8473 63.2738 23.0138Z" fill="#203878"/>
</g>
<path d="M49.486 27.6051C48.7354 29.0159 47.6396 30.2135 46.3007 31.0861C44.9619 31.9586 43.4237 32.4776 41.83 32.5946C40.0631 32.719 38.2965 32.3503 36.7268 31.5298C34.7606 30.4923 33.2233 28.7947 32.3851 26.7356C31.547 24.6766 31.4618 22.3879 32.1445 20.2722C32.8272 18.1565 34.2341 16.3493 36.1177 15.1685C38.0013 13.9877 40.241 13.509 42.4427 13.8165C43.5366 13.9633 44.5951 14.3061 45.5675 14.8283C46.6639 15.4097 47.6351 16.2015 48.4254 17.1583C49.2157 18.1152 49.8098 19.2184 50.1737 20.4049C50.5376 21.5914 50.6642 22.838 50.5462 24.0734C50.4282 25.3089 50.0679 26.5089 49.486 27.6051Z" fill="#C4F042"/>
<mask id="mask2_1726_10105" style="mask-type:luminance" maskUnits="userSpaceOnUse" x="31" y="13" width="20" height="20">
<path d="M47.8993 16.5706C44.2569 12.8407 38.2805 12.7697 34.5506 16.4121C30.8207 20.0545 30.7498 26.031 34.3922 29.7609C38.0346 33.4908 44.011 33.5617 47.7409 29.9193C51.4708 26.2769 51.5417 20.3005 47.8993 16.5706Z" fill="white"/>
</mask>
<g mask="url(#mask2_1726_10105)">
<path d="M57.7789 -9.44519C50.8077 -13.1487 41.6997 -9.6443 37.4355 -1.61787C33.1714 6.40856 35.3659 15.9176 42.337 19.6211C49.3082 23.3246 58.4162 19.8202 62.6804 11.7938C66.9445 3.76734 64.75 -5.74166 57.7789 -9.44519Z" stroke="white" stroke-width="1.37093" stroke-miterlimit="10"/>
<path d="M38.4032 26.1381C31.2039 22.3134 23.269 23.1631 20.6803 28.036C18.0915 32.9089 21.8291 39.9597 29.0284 43.7844C36.2277 47.6092 44.1626 46.7595 46.7514 41.8866C49.3402 37.0137 45.6026 29.9628 38.4032 26.1381Z" stroke="white" stroke-width="1.37093" stroke-miterlimit="10"/>
</g>
<path d="M29.6755 22.9352C28.6127 22.2149 27.3752 21.7946 26.0936 21.7187C24.5772 21.7187 23.1229 22.3211 22.0506 23.3933C20.9784 24.4656 20.376 25.9199 20.376 27.4363C20.376 34.2622 26.5396 34.911 32.7168 44.0754" stroke="#E2C444" stroke-width="2.18599" stroke-linecap="round" stroke-linejoin="round"/>
<path d="M89.5961 22.9352C90.661 22.2191 91.8973 21.7992 93.1781 21.7187C93.93 21.7169 94.675 21.8635 95.3702 22.15C96.0655 22.4366 96.6974 22.8575 97.2297 23.3886C97.7621 23.9197 98.1845 24.5506 98.4727 25.2451C98.7608 25.9397 98.9092 26.6843 98.9092 27.4363C98.9092 34.2623 92.732 34.9111 86.5684 44.0754" stroke="#E2C444" stroke-width="2.18599" stroke-linecap="round" stroke-linejoin="round"/>
<path d="M84.638 109.186V112.403H34.626V109.186H36.4507V107.631H38.4647V106.05H40.3841V83.0713C39.8899 83.0963 39.3963 83.0116 38.9387 82.8232C38.4811 82.6349 38.0709 82.3475 37.7376 81.9818C37.4042 81.6162 37.1559 81.1812 37.0105 80.7082C36.8652 80.2352 36.8263 79.7359 36.8968 79.2461H82.3807C82.4232 79.8479 82.3356 80.4518 82.1239 81.0168C81.8915 81.6694 81.4469 82.2253 80.8612 82.5953C80.2755 82.9654 79.5826 83.1282 78.8934 83.0578V106.036H80.8263V107.631H82.8132V109.213L84.638 109.186Z" fill="#3E3D47"/>
<path d="M76.903 84.8419H42.3677V103.887H76.903V84.8419Z" fill="#EFEFED"/>
<path d="M68.009 84.8419L48.9639 103.887H42.3677V84.8419H68.009Z" fill="white"/>
<path d="M92.043 17.4609C91.9268 17.4965 91.8138 17.5417 91.7051 17.596L91.5294 17.6907L91.2861 17.8529C91.0407 18.0505 90.8305 18.2881 90.6643 18.5557C90.5611 18.6887 90.4748 18.834 90.4075 18.9883C90.3053 19.1649 90.2194 19.3504 90.1507 19.5425C90.0696 19.7993 89.975 20.0696 89.9074 20.3535C89.8285 20.6366 89.7743 20.9261 89.7452 21.2185C89.6633 21.7875 89.6136 22.3606 89.5965 22.9352C89.5583 23.8371 89.5854 24.7405 89.6776 25.6385C88.4146 26.4703 87.3489 27.5683 86.5552 28.8555C85.775 30.0652 85.3532 31.4711 85.3387 32.9105C85.1966 35.3095 85.8577 37.6875 87.2175 39.6689C87.2246 39.7814 87.2246 39.8943 87.2175 40.0068C87.2061 41.3967 86.9874 42.7771 86.5687 44.1024C84.0005 52.2125 66.7532 56.0512 66.618 56.0648L66.1584 56.646L65.78 57.1055C65.78 57.1055 68.9969 58.7816 69.4565 61.0389C69.5576 61.3462 69.5576 61.6778 69.4565 61.9851C69.4148 62.1432 69.3192 62.2818 69.1862 62.3771C68.632 62.9177 67.4425 63.0394 66.6991 65.0804L66.5099 67.7838L66.7937 67.973C69.6679 69.7159 72.9061 70.7707 76.2554 71.0548L78.1072 73.4879H78.9858V79.246H40.3009V73.5014H41.193L43.0853 71.1359C46.4347 70.8522 49.6731 69.7975 52.5471 68.0541L52.8309 67.8649L52.6687 65.1615C51.9253 63.0124 50.6817 62.9583 50.114 62.4582C49.8572 62.2014 49.722 61.8499 49.8707 61.1065C50.3438 58.8492 53.5338 57.1731 53.5338 57.1731L52.6822 56.1188C48.9233 55.4697 45.2314 54.4789 41.6525 53.1586C37.5975 51.3204 34.1372 48.4954 32.7585 44.1565C32.3749 42.8933 32.1657 41.5835 32.1367 40.2637C32.1297 40.1511 32.1297 40.0383 32.1367 39.9257C33.4918 37.9426 34.1481 35.5648 34.0021 33.1674C33.9828 31.7267 33.5563 30.3209 32.772 29.1123C31.9798 27.7498 30.8834 26.5887 29.5686 25.7196C29.6608 24.8216 29.6879 23.9182 29.6497 23.0163C29.6338 21.8696 29.4517 20.7314 29.109 19.6371C29.0346 19.4474 28.9488 19.2623 28.8522 19.0829L28.7305 18.8531C28.5124 18.4403 28.1911 18.0911 27.7979 17.8393C27.7171 17.7819 27.6311 17.7321 27.541 17.6907C27.4344 17.6318 27.3209 17.5864 27.2031 17.5555L92.043 17.4609Z" fill="#F2DA4C"/>
<path d="M80.8233 106.036H38.4482V107.604H80.8233V106.036Z" fill="#4B4A59"/>
<path d="M84.6479 109.172H34.6089V112.403H84.6479V109.172Z" fill="#4B4A59"/>
<path d="M29.1201 19.5425H90.1483C89.9578 20.0872 89.8175 20.6483 89.7293 21.2186L29.1201 19.5425Z" fill="#E2C444"/>
<path d="M41.1934 73.5013H78.9592V75.5694L41.1934 73.5013Z" fill="#E2C444"/>
<path d="M86.5391 28.9366C85.7595 30.1466 85.3378 31.5523 85.3226 32.9916C85.1765 35.3891 85.8328 37.7669 87.1879 39.75C87.1949 39.8625 87.1949 39.9754 87.1879 40.0879H32.0936C32.0865 39.9754 32.0865 39.8625 32.0936 39.75C33.4487 37.7669 34.1049 35.3891 33.9589 32.9916C33.9308 31.5543 33.5102 30.152 32.7424 28.9366C31.9293 27.6467 30.8454 26.549 29.5659 25.7196H89.6614C88.4015 26.555 87.3365 27.6523 86.5391 28.9366Z" fill="#E2C444"/>
<path d="M66.6189 56.0377L65.7809 57.0785H53.4806L52.6426 56.0242L66.6189 56.0377Z" fill="#E2C444"/>
<path d="M66.6316 65.121L66.4559 67.8243L66.7397 68.0135H52.5471L52.831 67.8243L52.6688 65.121C51.9254 62.9718 50.6818 62.9177 50.1006 62.4176H69.1592C68.5645 62.9177 67.4156 63.0259 66.6316 65.121Z" fill="#E2C444"/>
<g style="mix-blend-mode:multiply">
<path d="M92.0422 17.4609C91.926 17.4965 91.813 17.5417 91.7043 17.596L91.5286 17.6907L91.2853 17.8529C91.0399 18.0505 90.8297 18.2881 90.6635 18.5557C90.5603 18.6887 90.474 18.834 90.4067 18.9883C90.3045 19.1649 90.2186 19.3504 90.1499 19.5425C90.0688 19.7993 89.9741 20.0696 89.9066 20.3535C89.8277 20.6366 89.7734 20.926 89.7444 21.2185C89.6624 21.7875 89.6128 22.3606 89.5957 22.9352C89.5575 23.8371 89.5846 24.7405 89.6768 25.6385C88.4138 26.4703 87.3481 27.5683 86.5544 28.8555C85.7742 30.0652 85.3524 31.4711 85.3379 32.9105C85.1958 35.3095 85.8569 37.6875 87.2167 39.6689C87.2238 39.7814 87.2238 39.8943 87.2167 40.0068C87.2053 41.3967 86.9866 42.7771 86.5679 44.1024C83.9997 52.2125 66.7524 56.0512 66.6172 56.0647C66.6172 56.0647 82.2831 51.1446 84.6485 17.4609H92.0422Z" fill="#F2DA4C"/>
</g>
<path d="M42.3294 37.9176C42.3294 35.988 41.5648 34.1371 40.2029 32.7701C38.8411 31.4031 36.993 30.6315 35.0635 30.6243C36.993 30.617 38.8411 29.8454 40.2029 28.4784C41.5648 27.1114 42.3294 25.2605 42.3294 23.3309C42.3294 25.2629 43.0959 27.1159 44.4607 28.4833C45.8255 29.8506 47.6771 30.6206 49.609 30.6243C47.6771 30.6279 45.8255 31.3979 44.4607 32.7653C43.0959 34.1326 42.3294 35.9857 42.3294 37.9176Z" fill="white"/>
<path d="M49.0287 25.3961C49.0287 24.088 48.5103 22.8333 47.5871 21.9066C46.6639 20.9799 45.4111 20.4568 44.103 20.4519C45.4111 20.447 46.6639 19.9239 47.5871 18.9972C48.5103 18.0705 49.0287 16.8158 49.0287 15.5077C49.0287 16.8174 49.5483 18.0735 50.4735 19.0005C51.3987 19.9274 52.6539 20.4494 53.9636 20.4519C52.6539 20.4544 51.3987 20.9764 50.4735 21.9033C49.5483 22.8303 49.0287 24.0864 49.0287 25.3961Z" fill="white"/>
<path d="M85.723 115.617C84.3686 116.447 82.8261 116.919 81.2397 116.991C79.6532 117.062 78.0745 116.731 76.6509 116.027C75.0672 115.232 73.7365 114.011 72.8082 112.501C71.6628 110.618 71.2159 108.392 71.5457 106.212C71.8755 104.033 72.961 102.038 74.6124 100.578C76.2638 99.1178 78.3759 98.2845 80.5795 98.224C82.7831 98.1634 84.9378 98.8793 86.667 100.247C87.5158 100.927 88.2371 101.753 88.7972 102.686C90.1023 104.809 90.5117 107.363 89.9353 109.788C89.3589 112.212 87.8439 114.309 85.723 115.617Z" fill="#C4F042"/>
<mask id="mask3_1726_10105" style="mask-type:luminance" maskUnits="userSpaceOnUse" x="71" y="98" width="20" height="19">
<path d="M80.8246 116.987C86.0103 116.987 90.2141 112.783 90.2141 107.598C90.2141 102.412 86.0103 98.2082 80.8246 98.2082C75.6389 98.2082 71.4351 102.412 71.4351 107.598C71.4351 112.783 75.6389 116.987 80.8246 116.987Z" fill="white"/>
</mask>
<g mask="url(#mask3_1726_10105)">
<path d="M102.367 110.545C110.08 105.825 113.011 96.5696 108.913 89.8715C104.815 83.1734 95.2394 81.5693 87.526 86.2887C79.8125 91.0081 76.8818 100.264 80.98 106.962C85.0781 113.66 94.6533 115.264 102.367 110.545Z" stroke="white" stroke-width="1.37093" stroke-miterlimit="10"/>
<path d="M73.0914 127.937C77.7542 125.084 78.117 117.186 73.9018 110.296C69.6866 103.406 62.4897 100.133 57.8269 102.985C53.1642 105.838 52.8014 113.736 57.0165 120.626C61.2317 127.516 68.4287 130.789 73.0914 127.937Z" stroke="white" stroke-width="1.37093" stroke-miterlimit="10"/>
</g>
<g style="mix-blend-mode:multiply" opacity="0.2">
<path d="M85.7239 115.617C84.3695 116.447 82.8271 116.919 81.2406 116.991C79.6542 117.062 78.0754 116.731 76.6519 116.027C82.207 116.027 88.5893 111.014 86.6763 100.247C87.5221 100.928 88.2405 101.754 88.7981 102.686C90.1033 104.809 90.5126 107.363 89.9362 109.788C89.3598 112.212 87.8449 114.309 85.7239 115.617Z" fill="#203878"/>
</g>
</svg>
