<svg width="82" height="82" viewBox="0 0 82 82" fill="none" xmlns="http://www.w3.org/2000/svg">
<path d="M49.843 7.2611C50.8408 6.71603 51.9608 6.43347 53.0978 6.43994C54.2348 6.44641 55.3515 6.74171 56.3431 7.29811C57.4454 7.92208 58.3515 8.84157 58.9592 9.95293C59.7108 11.3408 59.9506 12.9489 59.6365 14.4957C59.3223 16.0425 58.4743 17.4296 57.2408 18.4144C56.0073 19.3992 54.4668 19.9189 52.8888 19.8826C51.3109 19.8463 49.7959 19.2564 48.6089 18.216C48.0153 17.6996 47.5198 17.0803 47.146 16.388C46.7236 15.6117 46.4582 14.7597 46.3651 13.8808C46.272 13.002 46.353 12.1133 46.6035 11.2657C46.8539 10.4182 47.269 9.62824 47.8248 8.94111C48.3807 8.25398 49.0664 7.6831 49.843 7.2611Z" fill="#B6D840"/>
<mask id="mask0_2051_12841" style="mask-type:luminance" maskUnits="userSpaceOnUse" x="46" y="6" width="14" height="14">
<path d="M46.9939 10.2528C45.3816 13.5967 46.7853 17.6145 50.1291 19.2268C53.473 20.8391 57.4908 19.4354 59.1031 16.0916C60.7154 12.7477 59.3117 8.72994 55.9679 7.11762C52.624 5.50529 48.6062 6.90898 46.9939 10.2528Z" fill="white"/>
</mask>
<g mask="url(#mask0_2051_12841)">
<path d="M30.7546 25.767C33.4397 30.6811 40.2032 32.1584 45.8611 29.0668C51.519 25.9752 53.9289 19.4853 51.2438 14.5712C48.5586 9.65711 41.7952 8.17973 36.1372 11.2714C30.4793 14.363 28.0694 20.8529 30.7546 25.767Z" stroke="white" stroke-width="1.38095" stroke-miterlimit="10"/>
<path d="M56.1063 12.451C58.8813 17.5496 63.9286 20.1603 67.3796 18.282C70.8307 16.4037 71.3787 10.7478 68.6037 5.6491C65.8287 0.550415 60.7815 -2.06024 57.3304 -0.181955C53.8793 1.69633 53.3313 7.35228 56.1063 12.451Z" stroke="white" stroke-width="1.38095" stroke-miterlimit="10"/>
</g>
<path d="M43.235 14.4446C42.0156 14.6101 40.7741 14.438 39.6458 13.9469C38.5174 13.4559 37.5453 12.6648 36.8353 11.6596C36.1253 10.6545 35.7046 9.47391 35.619 8.24629C35.5333 7.01868 35.7861 5.79109 36.3496 4.69713C36.9132 3.60316 37.766 2.68474 38.8153 2.04179C39.8646 1.39884 41.0701 1.05601 42.3007 1.05061C43.5313 1.0452 44.7398 1.37742 45.7947 2.01113C46.8496 2.64483 47.7105 3.55573 48.2836 4.6447C48.6537 5.33745 48.896 6.09118 48.999 6.86981C49.1183 7.7457 49.0638 8.63653 48.8387 9.49136C48.6135 10.3462 48.2221 11.1483 47.6868 11.8517C47.1515 12.5552 46.4828 13.1463 45.7189 13.5912C44.9551 14.0361 44.111 14.3261 43.235 14.4446Z" fill="#C4F042"/>
<mask id="mask1_2051_12841" style="mask-type:luminance" maskUnits="userSpaceOnUse" x="35" y="1" width="15" height="14">
<path d="M43.2601 14.4353C46.9375 13.9278 49.5072 10.5352 48.9997 6.8578C48.4922 3.18038 45.0996 0.61067 41.4222 1.11818C37.7448 1.62569 35.1751 5.01824 35.6826 8.69566C36.1901 12.3731 39.5827 14.9428 43.2601 14.4353Z" fill="white"/>
</mask>
<g mask="url(#mask1_2051_12841)">
<path d="M65.852 4.2623C65.0982 -1.30789 59.288 -5.11977 52.8746 -4.25178C46.4612 -3.3838 41.8733 1.83538 42.6272 7.40556C43.3811 12.9757 49.1912 16.7876 55.6046 15.9196C62.018 15.0517 66.6059 9.83248 65.852 4.2623Z" stroke="white" stroke-width="1.38095" stroke-miterlimit="10"/>
<path d="M37.2176 7.83471C36.4391 2.08222 32.6516 -2.15392 28.758 -1.62695C24.8644 -1.09999 22.3391 3.99051 23.1177 9.743C23.8962 15.4955 27.6837 19.7316 31.5773 19.2047C35.4709 18.6777 37.9962 13.5872 37.2176 7.83471Z" stroke="white" stroke-width="1.38095" stroke-miterlimit="10"/>
</g>
<g style="mix-blend-mode:multiply" opacity="0.2">
<path d="M43.2352 14.4445C42.1079 14.5973 40.9603 14.4617 39.8996 14.0505C38.8389 13.6392 37.8998 12.9657 37.1702 12.093C40.8127 13.6859 46.4305 12.2741 48.2838 4.6445C48.6539 5.33726 48.8962 6.09098 48.9992 6.86961C49.1185 7.74551 49.064 8.63633 48.8389 9.49116C48.6137 10.346 48.2223 11.1481 47.687 11.8515C47.1517 12.555 46.483 13.1461 45.7191 13.591C44.9553 14.0359 44.1112 14.3259 43.2352 14.4445Z" fill="#203878"/>
</g>
<path d="M33.4199 17.7138C32.8854 18.7184 32.1051 19.5711 31.1517 20.1924C30.1984 20.8137 29.1031 21.1833 27.9682 21.2666C26.7101 21.3552 25.4522 21.0927 24.3345 20.5084C22.9344 19.7696 21.8397 18.5608 21.2429 17.0946C20.6461 15.6284 20.5854 13.9987 21.0715 12.4922C21.5577 10.9857 22.5595 9.69889 23.9007 8.85808C25.242 8.01728 26.8368 7.67637 28.4046 7.89532C29.1835 7.9999 29.9372 8.24395 30.6296 8.61579C31.4103 9.02982 32.1019 9.59362 32.6646 10.275C33.2274 10.9563 33.6504 11.7419 33.9096 12.5867C34.1687 13.4316 34.2588 14.3192 34.1748 15.199C34.0907 16.0787 33.8342 16.9332 33.4199 17.7138Z" fill="#C4F042"/>
<mask id="mask2_2051_12841" style="mask-type:luminance" maskUnits="userSpaceOnUse" x="20" y="7" width="15" height="15">
<path d="M32.288 9.85636C29.6944 7.20042 25.4388 7.14991 22.7828 9.74354C20.1269 12.3372 20.0764 16.5928 22.67 19.2487C25.2637 21.9047 29.5193 21.9552 32.1752 19.3616C34.8312 16.7679 34.8817 12.5123 32.288 9.85636Z" fill="white"/>
</mask>
<g mask="url(#mask2_2051_12841)">
<path d="M39.325 -8.66839C34.361 -11.3055 27.8755 -8.81017 24.8392 -3.09482C21.8028 2.62053 23.3654 9.39157 28.3294 12.0287C33.2933 14.6659 39.7788 12.1705 42.8152 6.45515C45.8515 0.739804 44.2889 -6.03124 39.325 -8.66839Z" stroke="white" stroke-width="1.38095" stroke-miterlimit="10"/>
<path d="M25.5271 16.6692C20.4007 13.9457 14.7506 14.5507 12.9072 18.0206C11.0638 21.4904 13.7252 26.511 18.8516 29.2345C23.978 31.958 29.6281 31.3529 31.4715 27.8831C33.3149 24.4133 30.6535 19.3926 25.5271 16.6692Z" stroke="white" stroke-width="1.38095" stroke-miterlimit="10"/>
</g>
<path d="M19.3133 14.3885C18.5565 13.8755 17.6753 13.5763 16.7627 13.5222C15.6829 13.5222 14.6474 13.9512 13.8839 14.7147C13.1203 15.4782 12.6914 16.5137 12.6914 17.5935C12.6914 22.4541 17.0803 22.916 21.4789 29.4417" stroke="#E2C444" stroke-width="2.20197" stroke-linecap="round" stroke-linejoin="round"/>
<path d="M61.9792 14.3885C62.7375 13.8785 63.6178 13.5795 64.5298 13.5222C65.0652 13.521 65.5957 13.6253 66.0908 13.8294C66.5858 14.0334 67.0358 14.3331 67.4149 14.7113C67.7939 15.0895 68.0947 15.5387 68.2999 16.0333C68.5051 16.5279 68.6107 17.0581 68.6107 17.5935C68.6107 22.4541 64.2122 22.9161 59.8232 29.4417" stroke="#E2C444" stroke-width="2.20197" stroke-linecap="round" stroke-linejoin="round"/>
<path d="M58.4498 75.8045V78.0952H22.8379V75.8045H24.1372V74.6977H25.5713V73.5716H26.9381V57.2094C26.5862 57.2272 26.2347 57.1668 25.9089 57.0327C25.583 56.8986 25.2909 56.694 25.0535 56.4336C24.8162 56.1732 24.6394 55.8635 24.5359 55.5267C24.4323 55.1898 24.4047 54.8343 24.4549 54.4855H56.8424C56.8726 54.9141 56.8103 55.3441 56.6595 55.7464C56.4941 56.2111 56.1775 56.6069 55.7604 56.8704C55.3434 57.1339 54.85 57.2499 54.3592 57.1997V73.5619H55.7356V74.6977H57.1504V75.8238L58.4498 75.8045Z" fill="#3E3D47"/>
<path d="M52.942 58.4702H28.3506V72.0316H52.942V58.4702Z" fill="#EFEFED"/>
<path d="M46.6089 58.4702L33.0475 72.0316H28.3506V58.4702H46.6089Z" fill="white"/>
<path d="M63.723 10.4904C63.6403 10.5157 63.5598 10.5479 63.4824 10.5866L63.3573 10.654L63.1841 10.7695C63.0094 10.9102 62.8597 11.0794 62.7413 11.27C62.6678 11.3646 62.6064 11.4681 62.5584 11.578C62.4857 11.7037 62.4245 11.8358 62.3756 11.9726C62.3178 12.1555 62.2505 12.3479 62.2023 12.5501C62.1462 12.7517 62.1075 12.9578 62.0868 13.1661C62.0285 13.5712 61.9932 13.9793 61.981 14.3884C61.9537 15.0306 61.973 15.674 62.0387 16.3134C61.1394 16.9057 60.3805 17.6875 59.8154 18.6041C59.2598 19.4655 58.9595 20.4666 58.9491 21.4915C58.8479 23.1998 59.3187 24.893 60.287 26.304C60.292 26.3841 60.292 26.4644 60.287 26.5446C60.2789 27.5342 60.1231 28.5172 59.825 29.4609C57.9963 35.2358 45.715 37.9692 45.6187 37.9789L45.2915 38.3927L45.022 38.72C45.022 38.72 47.3127 39.9135 47.64 41.5208C47.7119 41.7396 47.7119 41.9757 47.64 42.1945C47.6102 42.3071 47.5421 42.4059 47.4475 42.4737C47.0528 42.8587 46.2059 42.9453 45.6765 44.3986L45.5417 46.3236L45.7439 46.4583C47.7905 47.6994 50.0963 48.4505 52.4812 48.6528L53.7998 50.3853H54.4255V54.4855H26.8792V50.3949H27.5144L28.8619 48.7106C31.2469 48.5085 33.5528 47.7575 35.5993 46.5161L35.8014 46.3813L35.6859 44.4564C35.1566 42.926 34.2711 42.8875 33.8668 42.5314C33.684 42.3485 33.5877 42.0983 33.6936 41.5689C34.0304 39.9616 36.3019 38.7681 36.3019 38.7681L35.6955 38.0174C33.0189 37.5552 30.3901 36.8496 27.8417 35.9095C24.9542 34.6006 22.4903 32.589 21.5085 29.4994C21.2354 28.5999 21.0864 27.6673 21.0658 26.7274C21.0608 26.6473 21.0608 26.5669 21.0658 26.4868C22.0307 25.0747 22.498 23.3815 22.394 21.6744C22.3803 20.6486 22.0766 19.6476 21.5182 18.787C20.954 17.8167 20.1734 16.99 19.2371 16.3711C19.3027 15.7317 19.322 15.0884 19.2948 14.4462C19.2836 13.6297 19.1539 12.8192 18.9098 12.04C18.8569 11.9049 18.7958 11.7731 18.727 11.6453L18.6403 11.4817C18.485 11.1878 18.2562 10.9391 17.9762 10.7599C17.9187 10.719 17.8575 10.6835 17.7934 10.654C17.7174 10.6121 17.6366 10.5797 17.5527 10.5577L63.723 10.4904Z" fill="#F2DA4C"/>
<path d="M55.7344 73.5618H25.5605V74.6783H55.7344V73.5618Z" fill="#4B4A59"/>
<path d="M58.4573 75.7949H22.8262V78.0953H58.4573V75.7949Z" fill="#4B4A59"/>
<path d="M18.917 11.9727H62.3731C62.2375 12.3606 62.1376 12.76 62.0747 13.1661L18.917 11.9727Z" fill="#E2C444"/>
<path d="M27.5146 50.395H54.4064V51.8676L27.5146 50.395Z" fill="#E2C444"/>
<path d="M59.803 18.6619C59.248 19.5235 58.9477 20.5244 58.9368 21.5493C58.8328 23.2564 59.3001 24.9496 60.265 26.3617C60.27 26.4419 60.27 26.5222 60.265 26.6023H21.0342C21.0292 26.5222 21.0292 26.4419 21.0342 26.3617C21.9991 24.9496 22.4665 23.2564 22.3624 21.5493C22.3425 20.5258 22.0429 19.5273 21.4962 18.6619C20.9173 17.7433 20.1455 16.9617 19.2344 16.3712H62.0264C61.1292 16.966 60.3709 17.7474 59.803 18.6619Z" fill="#E2C444"/>
<path d="M45.6191 37.9596L45.0223 38.7007H36.2637L35.667 37.95L45.6191 37.9596Z" fill="#E2C444"/>
<path d="M45.6276 44.4276L45.5025 46.3526L45.7046 46.4873H35.5985L35.8007 46.3526L35.6852 44.4276C35.1558 42.8972 34.2703 42.8587 33.8564 42.5026H47.4275C47.004 42.8587 46.1859 42.9357 45.6276 44.4276Z" fill="#E2C444"/>
<g style="mix-blend-mode:multiply">
<path d="M63.7225 10.4904C63.6397 10.5157 63.5593 10.5479 63.4818 10.5866L63.3567 10.654L63.1835 10.7695C63.0088 10.9102 62.8591 11.0794 62.7407 11.27C62.6672 11.3646 62.6058 11.4681 62.5579 11.578C62.4851 11.7037 62.4239 11.8358 62.375 11.9726C62.3172 12.1555 62.2499 12.3479 62.2017 12.5501C62.1456 12.7517 62.107 12.9578 62.0862 13.1661C62.0279 13.5712 61.9926 13.9793 61.9804 14.3884C61.9532 15.0306 61.9725 15.674 62.0381 16.3134C61.1388 16.9057 60.38 17.6875 59.8148 18.6041C59.2592 19.4655 58.9589 20.4666 58.9486 21.4915C58.8474 23.1998 59.3181 24.893 60.2864 26.304C60.2914 26.3841 60.2914 26.4644 60.2864 26.5446C60.2783 27.5342 60.1226 28.5172 59.8244 29.4609C57.9957 35.2358 45.7144 37.9692 45.6182 37.9789C45.6182 37.9789 56.7733 34.4754 58.4577 10.4904H63.7225Z" fill="#F2DA4C"/>
</g>
<path d="M28.3222 25.057C28.3223 23.683 27.7778 22.365 26.8081 21.3916C25.8383 20.4182 24.5224 19.8688 23.1484 19.8636C24.5224 19.8585 25.8383 19.309 26.8081 18.3356C27.7778 17.3623 28.3223 16.0443 28.3222 14.6703C28.3222 16.046 28.8681 17.3654 29.8399 18.3391C30.8117 19.3127 32.1302 19.861 33.5058 19.8636C32.1302 19.8662 30.8117 20.4145 29.8399 21.3882C28.8681 22.3618 28.3222 23.6813 28.3222 25.057Z" fill="white"/>
<path d="M33.0933 16.1408C33.0933 15.2094 32.7242 14.3159 32.0668 13.656C31.4094 12.9962 30.5174 12.6237 29.5859 12.6202C30.5174 12.6167 31.4094 12.2442 32.0668 11.5844C32.7242 10.9245 33.0933 10.031 33.0933 9.09961C33.0933 10.0322 33.4633 10.9267 34.1221 11.5867C34.7809 12.2468 35.6747 12.6185 36.6073 12.6202C35.6747 12.622 34.7809 12.9937 34.1221 13.6537C33.4633 14.3138 33.0933 15.2082 33.0933 16.1408Z" fill="white"/>
<path d="M59.2232 80.3842C58.2588 80.9746 57.1605 81.311 56.0308 81.362C54.9011 81.413 53.777 81.1768 52.7633 80.6757C51.6356 80.1096 50.688 79.2403 50.027 78.1655C49.2114 76.8243 48.8932 75.2391 49.1281 73.6871C49.3629 72.1351 50.1359 70.715 51.3118 69.6752C52.4876 68.6354 53.9916 68.0421 55.5607 67.9989C57.1298 67.9558 58.6641 68.4656 59.8954 69.4392C60.4998 69.9238 61.0134 70.5119 61.4122 71.1761C62.3416 72.6878 62.6331 74.5066 62.2226 76.233C61.8122 77.9594 60.7335 79.4524 59.2232 80.3842Z" fill="#C4F042"/>
<mask id="mask3_2051_12841" style="mask-type:luminance" maskUnits="userSpaceOnUse" x="49" y="67" width="14" height="15">
<path d="M55.7348 81.3598C59.4274 81.3598 62.4208 78.3664 62.4208 74.6738C62.4208 70.9813 59.4274 67.9879 55.7348 67.9879C52.0422 67.9879 49.0488 70.9813 49.0488 74.6738C49.0488 78.3664 52.0422 81.3598 55.7348 81.3598Z" fill="white"/>
</mask>
<g mask="url(#mask3_2051_12841)">
<path d="M71.0751 76.7722C76.5676 73.4117 78.6545 66.821 75.7363 62.0515C72.8182 57.282 66 56.1399 60.5075 59.5004C55.015 62.8609 52.9281 69.4516 55.8463 74.2211C58.7645 78.9906 65.5827 80.1328 71.0751 76.7722Z" stroke="white" stroke-width="1.38095" stroke-miterlimit="10"/>
<path d="M50.2297 89.1565C53.5499 87.1253 53.8082 81.5014 50.8067 76.5952C47.8053 71.6889 42.6805 69.3581 39.3604 71.3893C36.0402 73.4205 35.7818 79.0444 38.7833 83.9507C41.7848 88.857 46.9095 91.1877 50.2297 89.1565Z" stroke="white" stroke-width="1.38095" stroke-miterlimit="10"/>
</g>
<g style="mix-blend-mode:multiply" opacity="0.2">
<path d="M59.2236 80.3843C58.2592 80.9747 57.1608 81.3111 56.0312 81.3621C54.9015 81.413 53.7774 81.1769 52.7637 80.6757C56.7193 80.6757 61.2639 77.1067 59.9017 69.4393C60.504 69.9244 61.0156 70.5125 61.4126 71.1762C62.342 72.6879 62.6334 74.5066 62.223 76.2331C61.8126 77.9595 60.7338 79.4525 59.2236 80.3843Z" fill="#203878"/>
</g>
</svg>
