<svg width="168" height="75" viewBox="0 0 168 75" fill="none" xmlns="http://www.w3.org/2000/svg">
<path d="M157.153 46.9772C155.161 48.2081 152.875 48.8623 150.542 48.8687C148.209 48.8751 145.919 48.2335 143.921 47.0136C141.923 45.7937 140.293 44.0421 139.208 41.9493C138.124 39.8565 137.626 37.5024 137.769 35.1431C137.912 32.7837 138.691 30.5093 140.021 28.567C141.35 26.6247 143.18 25.0889 145.311 24.1264C147.441 23.1639 149.792 22.8116 152.106 23.1078C154.421 23.404 156.611 24.3373 158.438 25.8064C159.611 26.7475 160.608 27.8935 161.382 29.1901C163.14 32.1195 163.682 35.635 162.89 38.968C162.097 42.3011 160.034 45.1807 157.153 46.9772Z" fill="#D3F73C"/>
<mask id="mask0_2572_7171" style="mask-type:luminance" maskUnits="userSpaceOnUse" x="137" y="23" width="27" height="26">
<path d="M150.502 48.8777C157.553 48.8777 163.269 43.0856 163.269 35.9406C163.269 28.7957 157.553 23.0035 150.502 23.0035C143.451 23.0035 137.734 28.7957 137.734 35.9406C137.734 43.0856 143.451 48.8777 150.502 48.8777Z" fill="white"/>
</mask>
<g mask="url(#mask0_2572_7171)">
<path d="M179.777 39.9974C190.257 33.5001 194.236 20.7531 188.665 11.526C183.093 2.29899 170.081 0.086066 159.601 6.58333C149.121 13.0806 145.142 25.8277 150.713 35.0547C156.285 44.2817 169.297 46.4947 179.777 39.9974Z" stroke="white" stroke-width="2" stroke-miterlimit="10"/>
<path d="M140.535 64.3938C146.896 60.4502 147.39 49.5321 141.639 40.0075C135.888 30.4829 126.069 25.9586 119.708 29.9021C113.347 33.8457 112.853 44.7638 118.604 54.2884C124.355 63.813 134.174 68.3373 140.535 64.3938Z" stroke="white" stroke-width="2" stroke-miterlimit="10"/>
</g>
<g style="mix-blend-mode:multiply" opacity="0.2">
<path d="M157.152 46.9772C155.312 48.1192 153.216 48.77 151.06 48.8686C148.904 48.9672 146.759 48.5105 144.824 47.5411C152.371 47.5411 161.054 40.6778 158.438 25.812C159.61 26.7532 160.607 27.8991 161.382 29.1957C163.138 32.1246 163.679 35.6388 162.887 38.9705C162.094 42.3022 160.032 45.1807 157.152 46.9772Z" fill="#203878"/>
</g>
<path d="M4 15.5002C13.2023 16.5268 18.2334 17.0119 25.5 18.5M134 37.0002C118.483 42.0665 111.564 48.6547 102 67.0002C77.4128 40.547 61.6311 28.884 39.5 22.5689" stroke="#2D2D2D" stroke-width="2" stroke-linecap="round"/>
<path d="M163.263 24.7856C163.263 24.7856 158.811 15.1984 146.327 17.3301" stroke="#2D2D2D" stroke-width="2" stroke-linecap="round" stroke-linejoin="round"/>
<path d="M150.496 69.2253C154.483 69.2253 157.715 68.4021 157.715 67.3868C157.715 66.3714 154.483 65.5483 150.496 65.5483C146.509 65.5483 143.277 66.3714 143.277 67.3868C143.277 68.4021 146.509 69.2253 150.496 69.2253Z" fill="#2D2D2D"/>
</svg>
