<svg width="48" height="48" viewBox="0 0 48 48" fill="none" xmlns="http://www.w3.org/2000/svg">
<rect width="48" height="48" rx="22" fill="#1D1D1D"/>
<g clip-path="url(#clip0_894_7203)">
<path d="M32.59 18.867C32.4593 18.9699 30.1508 20.2889 30.1508 23.2217C30.1508 26.6141 33.0883 27.8142 33.1762 27.8439C33.1627 27.917 32.7095 29.4875 31.6274 31.0876C30.6625 32.4958 29.6548 33.9016 28.1219 33.9016C26.5889 33.9016 26.1944 32.9987 24.4247 32.9987C22.7001 32.9987 22.0869 33.9314 20.6846 33.9314C19.2824 33.9314 18.304 32.6284 17.1791 31.0282C15.876 29.1492 14.8232 26.23 14.8232 23.4595C14.8232 19.0156 17.6728 16.6588 20.4772 16.6588C21.9674 16.6588 23.2096 17.6509 24.1451 17.6509C25.0356 17.6509 26.4243 16.5993 28.1196 16.5993C28.7621 16.5993 31.0706 16.6588 32.59 18.867ZM27.3148 14.718C28.0159 13.8745 28.5119 12.7041 28.5119 11.5337C28.5119 11.3714 28.4983 11.2068 28.469 11.0742C27.3283 11.1177 25.9712 11.8446 25.1528 12.807C24.5103 13.5476 23.9107 14.718 23.9107 15.9044C23.9107 16.0827 23.94 16.261 23.9535 16.3182C24.0256 16.3319 24.1429 16.3479 24.2601 16.3479C25.2836 16.3479 26.5708 15.653 27.3148 14.718Z" fill="white"/>
</g>
<defs>
<clipPath id="clip0_894_7203">
<rect width="19.5" height="24" fill="white" transform="translate(14.25 10.5)"/>
</clipPath>
</defs>
</svg>
