<svg width="32" height="32" viewBox="0 0 32 32" fill="none" xmlns="http://www.w3.org/2000/svg">
<rect width="32" height="32" rx="12" fill="#1D1D1D"/>
<g clip-path="url(#clip0_894_7203)">
<path d="M21.7273 12.578C21.6402 12.6466 20.1012 13.5259 20.1012 15.4811C20.1012 17.7427 22.0595 18.5428 22.1181 18.5626C22.1091 18.6114 21.807 19.6583 21.0856 20.7251C20.4423 21.6639 19.7705 22.6011 18.7486 22.6011C17.7266 22.6011 17.4636 21.9991 16.2838 21.9991C15.134 21.9991 14.7252 22.6209 13.7904 22.6209C12.8556 22.6209 12.2033 21.7522 11.4534 20.6855C10.5847 19.4328 9.88281 17.4867 9.88281 15.6396C9.88281 12.6771 11.7825 11.1059 13.6521 11.1059C14.6456 11.1059 15.4737 11.7673 16.0974 11.7673C16.6911 11.7673 17.6169 11.0662 18.7471 11.0662C19.1754 11.0662 20.7144 11.1059 21.7273 12.578ZM18.2105 9.81201C18.6779 9.24967 19.0086 8.4694 19.0086 7.68913C19.0086 7.58093 18.9995 7.4712 18.98 7.38281C18.2195 7.41177 17.3148 7.89639 16.7692 8.53798C16.3409 9.03174 15.9411 9.81201 15.9411 10.6029C15.9411 10.7218 15.9606 10.8407 15.9696 10.8788C16.0177 10.8879 16.0959 10.8986 16.174 10.8986C16.8564 10.8986 17.7145 10.4353 18.2105 9.81201Z" fill="white"/>
</g>
<defs>
<clipPath id="clip0_894_7203">
<rect width="13" height="16" fill="white" transform="translate(9.5 7)"/>
</clipPath>
</defs>
</svg>
