<svg width="48" height="48" viewBox="0 0 48 48" fill="none" xmlns="http://www.w3.org/2000/svg">
<rect width="48" height="48" rx="22" fill="#ECECEC"/>
<g clip-path="url(#clip0_1113_9433)">
<path d="M12.7727 33.9412H16.9091V23.6987L11 19.18V32.1337C11 33.1338 11.7948 33.9412 12.7727 33.9412Z" fill="#4285F4"/>
<path d="M31.0903 33.9412H35.2267C36.2076 33.9412 36.9994 33.1308 36.9994 32.1337V19.18L31.0903 23.6987" fill="#34A853"/>
<path d="M31.0903 15.8663V23.6987L36.9994 19.18V16.77C36.9994 14.5348 34.4969 13.2605 32.7449 14.6011" fill="#FBBC04"/>
<path d="M16.9097 23.6988V15.8663L24.0006 21.2888L31.0915 15.8663V23.6988L24.0006 29.1212" fill="#EA4335"/>
<path d="M11 16.77V19.18L16.9091 23.6987V15.8663L15.2545 14.6011C13.4995 13.2605 11 14.5348 11 16.77Z" fill="#C5221F"/>
</g>
<defs>
<clipPath id="clip0_1113_9433">
<rect width="26" height="19.8824" fill="white" transform="translate(11 14.0588)"/>
</clipPath>
</defs>
</svg>
