<svg width="48" height="48" viewBox="0 0 48 48" fill="none" xmlns="http://www.w3.org/2000/svg">
<rect width="48" height="48" rx="22" fill="#ECECEC"/>
<g clip-path="url(#clip0_894_7201)">
<path d="M35.7449 24.272C35.7449 23.482 35.6749 22.732 35.5549 22.002H24.2549V26.512H30.7249C30.4349 27.992 29.5849 29.242 28.3249 30.092V33.092H32.1849C34.4449 31.002 35.7449 27.922 35.7449 24.272Z" fill="#4285F4"/>
<path d="M24.2549 36.001C27.4949 36.001 30.2049 34.921 32.1849 33.091L28.3249 30.091C27.2449 30.811 25.8749 31.251 24.2549 31.251C21.1249 31.251 18.4749 29.141 17.5249 26.291H13.5449V29.381C15.5149 33.301 19.5649 36.001 24.2549 36.001Z" fill="#34A853"/>
<path d="M17.5249 26.2911C17.2749 25.5711 17.1449 24.8011 17.1449 24.0011C17.1449 23.2011 17.2849 22.4311 17.5249 21.7111V18.6211H13.5449C12.7249 20.2411 12.2549 22.0611 12.2549 24.0011C12.2549 25.9411 12.7249 27.7611 13.5449 29.3811L17.5249 26.2911Z" fill="#FBBC05"/>
<path d="M24.2549 16.75C26.0249 16.75 27.6049 17.36 28.8549 18.55L32.2749 15.13C30.2049 13.19 27.4949 12 24.2549 12C19.5649 12 15.5149 14.7 13.5449 18.62L17.5249 21.71C18.4749 18.86 21.1249 16.75 24.2549 16.75Z" fill="#EA4335"/>
</g>
<defs>
<clipPath id="clip0_894_7201">
<rect width="24" height="24" fill="white" transform="translate(12 12)"/>
</clipPath>
</defs>
</svg>
