<svg width="32" height="32" viewBox="0 0 32 32" fill="none" xmlns="http://www.w3.org/2000/svg">
<rect width="32" height="32" rx="12" fill="#ECECEC"/>
<g clip-path="url(#clip0_894_7201)">
<path d="M23.8299 16.1813C23.8299 15.6546 23.7833 15.1546 23.7033 14.668H16.1699V17.6746H20.4833C20.2899 18.6613 19.7233 19.4946 18.8833 20.0613V22.0613H21.4566C22.9633 20.668 23.8299 18.6146 23.8299 16.1813Z" fill="#4285F4"/>
<path d="M16.1703 24.0007C18.3303 24.0007 20.1369 23.2807 21.4569 22.0607L18.8836 20.0607C18.1636 20.5407 17.2503 20.834 16.1703 20.834C14.0836 20.834 12.3169 19.4273 11.6836 17.5273H9.03027V19.5873C10.3436 22.2007 13.0436 24.0007 16.1703 24.0007Z" fill="#34A853"/>
<path d="M11.6833 17.5274C11.5166 17.0474 11.4299 16.5341 11.4299 16.0007C11.4299 15.4674 11.5233 14.9541 11.6833 14.4741V12.4141H9.02992C8.48325 13.4941 8.16992 14.7074 8.16992 16.0007C8.16992 17.2941 8.48325 18.5074 9.02992 19.5874L11.6833 17.5274Z" fill="#FBBC05"/>
<path d="M16.1703 11.1667C17.3503 11.1667 18.4036 11.5733 19.2369 12.3667L21.5169 10.0867C20.1369 8.79333 18.3303 8 16.1703 8C13.0436 8 10.3436 9.8 9.03027 12.4133L11.6836 14.4733C12.3169 12.5733 14.0836 11.1667 16.1703 11.1667Z" fill="#EA4335"/>
</g>
<defs>
<clipPath id="clip0_894_7201">
<rect width="16" height="16" fill="white" transform="translate(8 8)"/>
</clipPath>
</defs>
</svg>
