<svg width="48" height="48" viewBox="0 0 48 48" fill="none" xmlns="http://www.w3.org/2000/svg">
<rect width="48" height="48" rx="22" fill="#ECECEC"/>
<g clip-path="url(#clip0_1113_9434)">
<path d="M38.5991 24.4558C38.6007 24.2244 38.4811 24.009 38.2838 23.8879H38.2804L38.268 23.881L28.0113 17.8096C27.967 17.7797 27.921 17.7523 27.8736 17.7277C27.4776 17.5234 27.0071 17.5234 26.6111 17.7277C26.5637 17.7523 26.5177 17.7797 26.4734 17.8096L16.2167 23.881L16.2043 23.8879C15.8908 24.0829 15.7947 24.495 15.9897 24.8085C16.0471 24.9009 16.1262 24.9778 16.2201 25.0327L26.4769 31.1041C26.5213 31.1338 26.5673 31.1611 26.6146 31.1861C27.0106 31.3904 27.481 31.3904 27.877 31.1861C27.9243 31.1611 27.9703 31.1338 28.0147 31.1041L38.2715 25.0327C38.4764 24.9132 38.6014 24.693 38.5991 24.4558Z" fill="#0A2767"/>
<path d="M17.4126 20.402H24.1435V26.5719H17.4126V20.402ZM37.2225 14.1302V11.3079C37.2387 10.6023 36.6801 10.0169 35.9745 10H18.5078C17.8021 10.0169 17.2436 10.6023 17.2597 11.3079V14.1302L27.5853 16.8837L37.2225 14.1302Z" fill="#0364B8"/>
<path d="M17.2594 14.1302H24.1431V20.3256H17.2594V14.1302Z" fill="#0078D4"/>
<path d="M31.0268 14.1302H24.1431V20.3256L31.0268 26.5209H37.2221V20.3256L31.0268 14.1302Z" fill="#28A8EA"/>
<path d="M24.1431 20.3256H31.0268V26.5209H24.1431V20.3256Z" fill="#0078D4"/>
<path d="M24.1431 26.521H31.0268V32.7163H24.1431V26.521Z" fill="#0364B8"/>
<path d="M17.4124 26.5718H24.1433V32.1807H17.4124V26.5718Z" fill="#14447D"/>
<path d="M31.0269 26.521H37.2222V32.7163H31.0269V26.521Z" fill="#0078D4"/>
<path d="M38.2839 24.9948L38.2708 25.0017L28.0141 30.7702C27.9694 30.7978 27.9239 30.8239 27.8764 30.8473C27.7022 30.9303 27.513 30.9771 27.3202 30.985L26.7599 30.6573C26.7125 30.6336 26.6666 30.6072 26.6222 30.5782L16.2278 24.6458H16.223L15.8829 24.4558V36.1334C15.8882 36.9125 16.5239 37.5398 17.303 37.5349H37.2011C37.2128 37.5349 37.2231 37.5294 37.2355 37.5294C37.4001 37.5188 37.5623 37.485 37.7174 37.4289C37.7844 37.4005 37.8491 37.3669 37.9108 37.3284C37.9569 37.3022 38.0361 37.2451 38.0361 37.2451C38.3887 36.9841 38.5974 36.572 38.5992 36.1334V24.4558C38.599 24.6792 38.4785 24.8851 38.2839 24.9948Z" fill="url(#paint0_linear_1113_9434)"/>
<path opacity="0.5" d="M38.0486 24.4097V25.1256L27.3238 32.5098L16.2204 24.6506C16.2204 24.6468 16.2173 24.6437 16.2135 24.6437L15.1947 24.0311V23.5148L15.6146 23.5079L16.5026 24.0173L16.5232 24.0242L16.599 24.0724C16.599 24.0724 27.0347 30.0268 27.0622 30.0406L27.4615 30.2746C27.4959 30.2608 27.5303 30.2471 27.5716 30.2333C27.5923 30.2195 37.9316 24.4028 37.9316 24.4028L38.0486 24.4097Z" fill="#0A2767"/>
<path d="M38.2839 24.9948L38.2708 25.0024L28.0141 30.7709C27.9693 30.7985 27.9239 30.8246 27.8764 30.848C27.4781 31.0426 27.0123 31.0426 26.6139 30.848C26.5668 30.8247 26.5208 30.7989 26.4763 30.7709L16.2195 25.0024L16.2072 24.9948C16.0091 24.8874 15.885 24.6811 15.8829 24.4558V36.1334C15.8879 36.9123 16.5233 37.5398 17.3023 37.5349C17.3023 37.5349 17.3023 37.5349 17.3024 37.5349H37.1798C37.9587 37.5398 38.5942 36.9124 38.5992 36.1334C38.5992 36.1334 38.5992 36.1334 38.5992 36.1334V24.4558C38.5989 24.6792 38.4785 24.8851 38.2839 24.9948Z" fill="#1490DF"/>
<path opacity="0.1" d="M28.1634 30.6856L28.0099 30.7716C27.9654 30.7999 27.9195 30.8259 27.8722 30.8494C27.7031 30.9324 27.5192 30.9811 27.3312 30.9926L31.2336 35.6074L38.0409 37.2478C38.2274 37.1069 38.3758 36.9216 38.4725 36.7088L28.1634 30.6856Z" fill="black"/>
<path opacity="0.05" d="M28.8587 30.2946L28.0099 30.7716C27.9654 30.7999 27.9195 30.8259 27.8722 30.8494C27.7031 30.9324 27.5192 30.9811 27.3312 30.9926L29.1595 36.0335L38.0429 37.2458C38.3929 36.983 38.5989 36.571 38.5991 36.1333V35.9826L28.8587 30.2946Z" fill="black"/>
<path d="M17.3216 37.5349H37.1777C37.4832 37.5364 37.7812 37.4399 38.0278 37.2595L26.7592 30.6587C26.7118 30.635 26.6659 30.6085 26.6215 30.5796L16.2271 24.6472H16.2223L15.8829 24.4558V36.0934C15.8822 36.8888 16.5263 37.5341 17.3216 37.5349V37.5349Z" fill="#28A8EA"/>
<path opacity="0.1" d="M25.5201 16.7688V31.4518C25.5189 31.9666 25.2059 32.4293 24.7285 32.622C24.5806 32.6856 24.4214 32.7184 24.2604 32.7184H15.8829V16.1954H17.2597V15.507H24.2604C24.9558 15.5097 25.5186 16.0734 25.5201 16.7688Z" fill="black"/>
<path opacity="0.2" d="M24.8318 17.4572V32.1401C24.8335 32.3064 24.7982 32.471 24.7285 32.622C24.5373 33.0932 24.0806 33.4023 23.572 33.4046H15.8829V16.1954H23.572C23.7718 16.1934 23.9686 16.2432 24.1434 16.3399C24.5654 16.5525 24.8316 16.9847 24.8318 17.4572Z" fill="black"/>
<path opacity="0.2" d="M24.8318 17.4572V30.7634C24.8284 31.4585 24.2672 32.0219 23.5721 32.0279H15.8829V16.1954H23.572C23.7718 16.1934 23.9686 16.2432 24.1434 16.3399C24.5654 16.5525 24.8316 16.9847 24.8318 17.4572Z" fill="black"/>
<path opacity="0.2" d="M24.1434 17.4572V30.7634C24.1426 31.4596 23.5799 32.0245 22.8837 32.0279H15.8829V16.1954H22.8837C23.5798 16.1957 24.1438 16.7604 24.1434 17.4565C24.1434 17.4567 24.1434 17.4569 24.1434 17.4572Z" fill="black"/>
<path d="M10.261 16.1954H22.8817C23.5785 16.1954 24.1434 16.7603 24.1434 17.4572V30.0778C24.1434 30.7746 23.5785 31.3395 22.8817 31.3395H10.261C9.56418 31.3395 8.99927 30.7746 8.99927 30.0778V17.4572C8.99927 16.7603 9.5642 16.1954 10.261 16.1954Z" fill="url(#paint1_linear_1113_9434)"/>
<path d="M12.9431 21.4876C13.2541 20.825 13.7561 20.2705 14.3846 19.8954C15.0806 19.4969 15.8731 19.2982 16.6748 19.3213C17.4178 19.3051 18.151 19.4935 18.7943 19.8658C19.3991 20.2264 19.8862 20.7549 20.1965 21.3871C20.5344 22.0836 20.7028 22.8502 20.688 23.6243C20.7044 24.4332 20.5311 25.2348 20.1821 25.9647C19.8644 26.6195 19.3618 27.1668 18.7365 27.539C18.0684 27.9227 17.308 28.116 16.5378 28.098C15.7789 28.1163 15.0296 27.9258 14.3715 27.5473C13.7615 27.1861 13.2682 26.6571 12.9507 26.0232C12.6108 25.3367 12.4404 24.5788 12.4537 23.8129C12.4395 23.0108 12.6069 22.2159 12.9431 21.4876ZM14.4796 25.2254C14.6454 25.6443 14.9266 26.0076 15.2905 26.2731C15.6611 26.5322 16.105 26.6658 16.5571 26.6545C17.0385 26.6735 17.5131 26.5353 17.909 26.2607C18.2683 25.996 18.5421 25.6317 18.6965 25.213C18.8691 24.7454 18.9543 24.25 18.9478 23.7516C18.9531 23.2484 18.8731 22.748 18.711 22.2716C18.5678 21.8415 18.3029 21.4622 17.9483 21.1799C17.5622 20.8923 17.089 20.7464 16.608 20.7668C16.1461 20.7549 15.6923 20.8896 15.3118 21.1516C14.9417 21.4183 14.6552 21.7848 14.4858 22.2083C14.1098 23.179 14.1079 24.2547 14.4803 25.2268L14.4796 25.2254Z" fill="white"/>
<path d="M31.0269 14.1302H37.2222V20.3256H31.0269V14.1302Z" fill="#50D9FF"/>
</g>
<defs>
<linearGradient id="paint0_linear_1113_9434" x1="27.2411" y1="24.4558" x2="27.2411" y2="37.5349" gradientUnits="userSpaceOnUse">
<stop stop-color="#35B8F1"/>
<stop offset="1" stop-color="#28A8EA"/>
</linearGradient>
<linearGradient id="paint1_linear_1113_9434" x1="11.6301" y1="15.2094" x2="21.5126" y2="32.3255" gradientUnits="userSpaceOnUse">
<stop stop-color="#1784D9"/>
<stop offset="0.5" stop-color="#107AD5"/>
<stop offset="1" stop-color="#0A63C9"/>
</linearGradient>
<clipPath id="clip0_1113_9434">
<rect width="29.6" height="27.5349" fill="white" transform="translate(8.99963 10)"/>
</clipPath>
</defs>
</svg>
