<svg width="48" height="48" viewBox="0 0 48 48" fill="none" xmlns="http://www.w3.org/2000/svg">
<rect width="48" height="48" rx="22" fill="#5F01D1"/>
<g clip-path="url(#clip0_1113_9435)">
<path d="M11 17.8426H16.1487L19.1468 25.5125L22.1838 17.8426H27.1964L19.6484 36H14.6032L16.6695 31.1886L11.0002 17.8426H11ZM33.0336 23.9711H27.4192L32.4023 12L37.9962 12.0002L33.0336 23.9711ZM28.8899 25.1169C30.6126 25.1169 32.0089 26.5134 32.0089 28.2357C32.0089 29.9582 30.6126 31.3547 28.8899 31.3547C27.1674 31.3547 25.7713 29.9582 25.7713 28.2357C25.7713 26.5134 27.1677 25.1169 28.8899 25.1169Z" fill="white"/>
</g>
<defs>
<clipPath id="clip0_1113_9435">
<rect width="26.9962" height="24" fill="white" transform="translate(11 12)"/>
</clipPath>
</defs>
</svg>
